solid centroids
facet normal -0.57735 -0.57735 -0.57735
  outer loop
    vertex -6.08694 -11.2901 0.590134
    vertex -6.08694 -11.2401 0.540134
    vertex -6.03694 -11.2901 0.540134
  endloop
endfacet
facet normal -0.57735 0.57735 -0.57735
  outer loop
    vertex -6.08694 -11.2901 0.590134
    vertex -6.03694 -11.2901 0.540134
    vertex -6.08694 -11.3401 0.540134
  endloop
endfacet
facet normal 0.57735 0.57735 -0.57735
  outer loop
    vertex -6.08694 -11.2901 0.590134
    vertex -6.08694 -11.3401 0.540134
    vertex -6.13694 -11.2901 0.540134
  endloop
endfacet
facet normal 0.57735 -0.57735 -0.57735
  outer loop
    vertex -6.08694 -11.2901 0.590134
    vertex -6.13694 -11.2901 0.540134
    vertex -6.08694 -11.2401 0.540134
  endloop
endfacet
facet normal -0.57735 -0.57735 0.57735
  outer loop
    vertex -6.08694 -11.2901 0.490134
    vertex -6.03694 -11.2901 0.540134
    vertex -6.08694 -11.2401 0.540134
  endloop
endfacet
facet normal -0.57735 0.57735 0.57735
  outer loop
    vertex -6.08694 -11.2901 0.490134
    vertex -6.08694 -11.3401 0.540134
    vertex -6.03694 -11.2901 0.540134
  endloop
endfacet
facet normal 0.57735 0.57735 0.57735
  outer loop
    vertex -6.08694 -11.2901 0.490134
    vertex -6.13694 -11.2901 0.540134
    vertex -6.08694 -11.3401 0.540134
  endloop
endfacet
facet normal 0.57735 -0.57735 0.57735
  outer loop
    vertex -6.08694 -11.2901 0.490134
    vertex -6.08694 -11.2401 0.540134
    vertex -6.13694 -11.2901 0.540134
  endloop
endfacet
facet normal -0.57735 -0.57735 -0.57735
  outer loop
    vertex -7.87145 -9.21686 1.82545
    vertex -7.87145 -9.16686 1.77545
    vertex -7.82145 -9.21686 1.77545
  endloop
endfacet
facet normal -0.57735 0.57735 -0.57735
  outer loop
    vertex -7.87145 -9.21686 1.82545
    vertex -7.82145 -9.21686 1.77545
    vertex -7.87145 -9.26686 1.77545
  endloop
endfacet
facet normal 0.57735 0.57735 -0.57735
  outer loop
    vertex -7.87145 -9.21686 1.82545
    vertex -7.87145 -9.26686 1.77545
    vertex -7.92145 -9.21686 1.77545
  endloop
endfacet
facet normal 0.57735 -0.57735 -0.57735
  outer loop
    vertex -7.87145 -9.21686 1.82545
    vertex -7.92145 -9.21686 1.77545
    vertex -7.87145 -9.16686 1.77545
  endloop
endfacet
facet normal -0.57735 -0.57735 0.57735
  outer loop
    vertex -7.87145 -9.21686 1.72545
    vertex -7.82145 -9.21686 1.77545
    vertex -7.87145 -9.16686 1.77545
  endloop
endfacet
facet normal -0.57735 0.57735 0.57735
  outer loop
    vertex -7.87145 -9.21686 1.72545
    vertex -7.87145 -9.26686 1.77545
    vertex -7.82145 -9.21686 1.77545
  endloop
endfacet
facet normal 0.57735 0.57735 0.57735
  outer loop
    vertex -7.87145 -9.21686 1.72545
    vertex -7.92145 -9.21686 1.77545
    vertex -7.87145 -9.26686 1.77545
  endloop
endfacet
facet normal 0.57735 -0.57735 0.57735
  outer loop
    vertex -7.87145 -9.21686 1.72545
    vertex -7.87145 -9.16686 1.77545
    vertex -7.92145 -9.21686 1.77545
  endloop
endfacet
facet normal -0.57735 -0.57735 -0.57735
  outer loop
    vertex -4.83981 -4.54008 1.54261
    vertex -4.83981 -4.49008 1.49261
    vertex -4.78981 -4.54008 1.49261
  endloop
endfacet
facet normal -0.57735 0.57735 -0.57735
  outer loop
    vertex -4.83981 -4.54008 1.54261
    vertex -4.78981 -4.54008 1.49261
    vertex -4.83981 -4.59008 1.49261
  endloop
endfacet
facet normal 0.57735 0.57735 -0.57735
  outer loop
    vertex -4.83981 -4.54008 1.54261
    vertex -4.83981 -4.59008 1.49261
    vertex -4.88981 -4.54008 1.49261
  endloop
endfacet
facet normal 0.57735 -0.57735 -0.57735
  outer loop
    vertex -4.83981 -4.54008 1.54261
    vertex -4.88981 -4.54008 1.49261
    vertex -4.83981 -4.49008 1.49261
  endloop
endfacet
facet normal -0.57735 -0.57735 0.57735
  outer loop
    vertex -4.83981 -4.54008 1.44261
    vertex -4.78981 -4.54008 1.49261
    vertex -4.83981 -4.49008 1.49261
  endloop
endfacet
facet normal -0.57735 0.57735 0.57735
  outer loop
    vertex -4.83981 -4.54008 1.44261
    vertex -4.83981 -4.59008 1.49261
    vertex -4.78981 -4.54008 1.49261
  endloop
endfacet
facet normal 0.57735 0.57735 0.57735
  outer loop
    vertex -4.83981 -4.54008 1.44261
    vertex -4.88981 -4.54008 1.49261
    vertex -4.83981 -4.59008 1.49261
  endloop
endfacet
facet normal 0.57735 -0.57735 0.57735
  outer loop
    vertex -4.83981 -4.54008 1.44261
    vertex -4.83981 -4.49008 1.49261
    vertex -4.88981 -4.54008 1.49261
  endloop
endfacet
facet normal -0.57735 -0.57735 -0.57735
  outer loop
    vertex -5.01871 -12.7535 1.23899
    vertex -5.01871 -12.7035 1.18899
    vertex -4.96871 -12.7535 1.18899
  endloop
endfacet
facet normal -0.57735 0.57735 -0.57735
  outer loop
    vertex -5.01871 -12.7535 1.23899
    vertex -4.96871 -12.7535 1.18899
    vertex -5.01871 -12.8035 1.18899
  endloop
endfacet
facet normal 0.57735 0.57735 -0.57735
  outer loop
    vertex -5.01871 -12.7535 1.23899
    vertex -5.01871 -12.8035 1.18899
    vertex -5.06871 -12.7535 1.18899
  endloop
endfacet
facet normal 0.57735 -0.57735 -0.57735
  outer loop
    vertex -5.01871 -12.7535 1.23899
    vertex -5.06871 -12.7535 1.18899
    vertex -5.01871 -12.7035 1.18899
  endloop
endfacet
facet normal -0.57735 -0.57735 0.57735
  outer loop
    vertex -5.01871 -12.7535 1.13899
    vertex -4.96871 -12.7535 1.18899
    vertex -5.01871 -12.7035 1.18899
  endloop
endfacet
facet normal -0.57735 0.57735 0.57735
  outer loop
    vertex -5.01871 -12.7535 1.13899
    vertex -5.01871 -12.8035 1.18899
    vertex -4.96871 -12.7535 1.18899
  endloop
endfacet
facet normal 0.57735 0.57735 0.57735
  outer loop
    vertex -5.01871 -12.7535 1.13899
    vertex -5.06871 -12.7535 1.18899
    vertex -5.01871 -12.8035 1.18899
  endloop
endfacet
facet normal 0.57735 -0.57735 0.57735
  outer loop
    vertex -5.01871 -12.7535 1.13899
    vertex -5.01871 -12.7035 1.18899
    vertex -5.06871 -12.7535 1.18899
  endloop
endfacet
facet normal -0.57735 -0.57735 -0.57735
  outer loop
    vertex -8.437 -9.29469 2.6416
    vertex -8.437 -9.24469 2.5916
    vertex -8.387 -9.29469 2.5916
  endloop
endfacet
facet normal -0.57735 0.57735 -0.57735
  outer loop
    vertex -8.437 -9.29469 2.6416
    vertex -8.387 -9.29469 2.5916
    vertex -8.437 -9.34469 2.5916
  endloop
endfacet
facet normal 0.57735 0.57735 -0.57735
  outer loop
    vertex -8.437 -9.29469 2.6416
    vertex -8.437 -9.34469 2.5916
    vertex -8.487 -9.29469 2.5916
  endloop
endfacet
facet normal 0.57735 -0.57735 -0.57735
  outer loop
    vertex -8.437 -9.29469 2.6416
    vertex -8.487 -9.29469 2.5916
    vertex -8.437 -9.24469 2.5916
  endloop
endfacet
facet normal -0.57735 -0.57735 0.57735
  outer loop
    vertex -8.437 -9.29469 2.5416
    vertex -8.387 -9.29469 2.5916
    vertex -8.437 -9.24469 2.5916
  endloop
endfacet
facet normal -0.57735 0.57735 0.57735
  outer loop
    vertex -8.437 -9.29469 2.5416
    vertex -8.437 -9.34469 2.5916
    vertex -8.387 -9.29469 2.5916
  endloop
endfacet
facet normal 0.57735 0.57735 0.57735
  outer loop
    vertex -8.437 -9.29469 2.5416
    vertex -8.487 -9.29469 2.5916
    vertex -8.437 -9.34469 2.5916
  endloop
endfacet
facet normal 0.57735 -0.57735 0.57735
  outer loop
    vertex -8.437 -9.29469 2.5416
    vertex -8.437 -9.24469 2.5916
    vertex -8.487 -9.29469 2.5916
  endloop
endfacet
facet normal -0.57735 -0.57735 -0.57735
  outer loop
    vertex -4.09609 -11.4196 0.486511
    vertex -4.09609 -11.3696 0.436511
    vertex -4.04609 -11.4196 0.436511
  endloop
endfacet
facet normal -0.57735 0.57735 -0.57735
  outer loop
    vertex -4.09609 -11.4196 0.486511
    vertex -4.04609 -11.4196 0.436511
    vertex -4.09609 -11.4696 0.436511
  endloop
endfacet
facet normal 0.57735 0.57735 -0.57735
  outer loop
    vertex -4.09609 -11.4196 0.486511
    vertex -4.09609 -11.4696 0.436511
    vertex -4.14609 -11.4196 0.436511
  endloop
endfacet
facet normal 0.57735 -0.57735 -0.57735
  outer loop
    vertex -4.09609 -11.4196 0.486511
    vertex -4.14609 -11.4196 0.436511
    vertex -4.09609 -11.3696 0.436511
  endloop
endfacet
facet normal -0.57735 -0.57735 0.57735
  outer loop
    vertex -4.09609 -11.4196 0.386511
    vertex -4.04609 -11.4196 0.436511
    vertex -4.09609 -11.3696 0.436511
  endloop
endfacet
facet normal -0.57735 0.57735 0.57735
  outer loop
    vertex -4.09609 -11.4196 0.386511
    vertex -4.09609 -11.4696 0.436511
    vertex -4.04609 -11.4196 0.436511
  endloop
endfacet
facet normal 0.57735 0.57735 0.57735
  outer loop
    vertex -4.09609 -11.4196 0.386511
    vertex -4.14609 -11.4196 0.436511
    vertex -4.09609 -11.4696 0.436511
  endloop
endfacet
facet normal 0.57735 -0.57735 0.57735
  outer loop
    vertex -4.09609 -11.4196 0.386511
    vertex -4.09609 -11.3696 0.436511
    vertex -4.14609 -11.4196 0.436511
  endloop
endfacet
facet normal -0.57735 -0.57735 -0.57735
  outer loop
    vertex -1.8273 -10.8214 2.89289
    vertex -1.8273 -10.7714 2.84289
    vertex -1.7773 -10.8214 2.84289
  endloop
endfacet
facet normal -0.57735 0.57735 -0.57735
  outer loop
    vertex -1.8273 -10.8214 2.89289
    vertex -1.7773 -10.8214 2.84289
    vertex -1.8273 -10.8714 2.84289
  endloop
endfacet
facet normal 0.57735 0.57735 -0.57735
  outer loop
    vertex -1.8273 -10.8214 2.89289
    vertex -1.8273 -10.8714 2.84289
    vertex -1.8773 -10.8214 2.84289
  endloop
endfacet
facet normal 0.57735 -0.57735 -0.57735
  outer loop
    vertex -1.8273 -10.8214 2.89289
    vertex -1.8773 -10.8214 2.84289
    vertex -1.8273 -10.7714 2.84289
  endloop
endfacet
facet normal -0.57735 -0.57735 0.57735
  outer loop
    vertex -1.8273 -10.8214 2.79289
    vertex -1.7773 -10.8214 2.84289
    vertex -1.8273 -10.7714 2.84289
  endloop
endfacet
facet normal -0.57735 0.57735 0.57735
  outer loop
    vertex -1.8273 -10.8214 2.79289
    vertex -1.8273 -10.8714 2.84289
    vertex -1.7773 -10.8214 2.84289
  endloop
endfacet
facet normal 0.57735 0.57735 0.57735
  outer loop
    vertex -1.8273 -10.8214 2.79289
    vertex -1.8773 -10.8214 2.84289
    vertex -1.8273 -10.8714 2.84289
  endloop
endfacet
facet normal 0.57735 -0.57735 0.57735
  outer loop
    vertex -1.8273 -10.8214 2.79289
    vertex -1.8273 -10.7714 2.84289
    vertex -1.8773 -10.8214 2.84289
  endloop
endfacet
facet normal -0.57735 -0.57735 -0.57735
  outer loop
    vertex -0.126246 -8.58931 1.2881
    vertex -0.126246 -8.53931 1.2381
    vertex -0.0762459 -8.58931 1.2381
  endloop
endfacet
facet normal -0.57735 0.57735 -0.57735
  outer loop
    vertex -0.126246 -8.58931 1.2881
    vertex -0.0762459 -8.58931 1.2381
    vertex -0.126246 -8.63931 1.2381
  endloop
endfacet
facet normal 0.57735 0.57735 -0.57735
  outer loop
    vertex -0.126246 -8.58931 1.2881
    vertex -0.126246 -8.63931 1.2381
    vertex -0.176246 -8.58931 1.2381
  endloop
endfacet
facet normal 0.57735 -0.57735 -0.57735
  outer loop
    vertex -0.126246 -8.58931 1.2881
    vertex -0.176246 -8.58931 1.2381
    vertex -0.126246 -8.53931 1.2381
  endloop
endfacet
facet normal -0.57735 -0.57735 0.57735
  outer loop
    vertex -0.126246 -8.58931 1.1881
    vertex -0.0762459 -8.58931 1.2381
    vertex -0.126246 -8.53931 1.2381
  endloop
endfacet
facet normal -0.57735 0.57735 0.57735
  outer loop
    vertex -0.126246 -8.58931 1.1881
    vertex -0.126246 -8.63931 1.2381
    vertex -0.0762459 -8.58931 1.2381
  endloop
endfacet
facet normal 0.57735 0.57735 0.57735
  outer loop
    vertex -0.126246 -8.58931 1.1881
    vertex -0.176246 -8.58931 1.2381
    vertex -0.126246 -8.63931 1.2381
  endloop
endfacet
facet normal 0.57735 -0.57735 0.57735
  outer loop
    vertex -0.126246 -8.58931 1.1881
    vertex -0.126246 -8.53931 1.2381
    vertex -0.176246 -8.58931 1.2381
  endloop
endfacet
facet normal -0.57735 -0.57735 -0.57735
  outer loop
    vertex -4.02823 -12.4802 2.55687
    vertex -4.02823 -12.4302 2.50687
    vertex -3.97823 -12.4802 2.50687
  endloop
endfacet
facet normal -0.57735 0.57735 -0.57735
  outer loop
    vertex -4.02823 -12.4802 2.55687
    vertex -3.97823 -12.4802 2.50687
    vertex -4.02823 -12.5302 2.50687
  endloop
endfacet
facet normal 0.57735 0.57735 -0.57735
  outer loop
    vertex -4.02823 -12.4802 2.55687
    vertex -4.02823 -12.5302 2.50687
    vertex -4.07823 -12.4802 2.50687
  endloop
endfacet
facet normal 0.57735 -0.57735 -0.57735
  outer loop
    vertex -4.02823 -12.4802 2.55687
    vertex -4.07823 -12.4802 2.50687
    vertex -4.02823 -12.4302 2.50687
  endloop
endfacet
facet normal -0.57735 -0.57735 0.57735
  outer loop
    vertex -4.02823 -12.4802 2.45687
    vertex -3.97823 -12.4802 2.50687
    vertex -4.02823 -12.4302 2.50687
  endloop
endfacet
facet normal -0.57735 0.57735 0.57735
  outer loop
    vertex -4.02823 -12.4802 2.45687
    vertex -4.02823 -12.5302 2.50687
    vertex -3.97823 -12.4802 2.50687
  endloop
endfacet
facet normal 0.57735 0.57735 0.57735
  outer loop
    vertex -4.02823 -12.4802 2.45687
    vertex -4.07823 -12.4802 2.50687
    vertex -4.02823 -12.5302 2.50687
  endloop
endfacet
facet normal 0.57735 -0.57735 0.57735
  outer loop
    vertex -4.02823 -12.4802 2.45687
    vertex -4.02823 -12.4302 2.50687
    vertex -4.07823 -12.4802 2.50687
  endloop
endfacet
facet normal -0.57735 -0.57735 -0.57735
  outer loop
    vertex -2.22482 -10.8216 0.402573
    vertex -2.22482 -10.7716 0.352573
    vertex -2.17482 -10.8216 0.352573
  endloop
endfacet
facet normal -0.57735 0.57735 -0.57735
  outer loop
    vertex -2.22482 -10.8216 0.402573
    vertex -2.17482 -10.8216 0.352573
    vertex -2.22482 -10.8716 0.352573
  endloop
endfacet
facet normal 0.57735 0.57735 -0.57735
  outer loop
    vertex -2.22482 -10.8216 0.402573
    vertex -2.22482 -10.8716 0.352573
    vertex -2.27482 -10.8216 0.352573
  endloop
endfacet
facet normal 0.57735 -0.57735 -0.57735
  outer loop
    vertex -2.22482 -10.8216 0.402573
    vertex -2.27482 -10.8216 0.352573
    vertex -2.22482 -10.7716 0.352573
  endloop
endfacet
facet normal -0.57735 -0.57735 0.57735
  outer loop
    vertex -2.22482 -10.8216 0.302573
    vertex -2.17482 -10.8216 0.352573
    vertex -2.22482 -10.7716 0.352573
  endloop
endfacet
facet normal -0.57735 0.57735 0.57735
  outer loop
    vertex -2.22482 -10.8216 0.302573
    vertex -2.22482 -10.8716 0.352573
    vertex -2.17482 -10.8216 0.352573
  endloop
endfacet
facet normal 0.57735 0.57735 0.57735
  outer loop
    vertex -2.22482 -10.8216 0.302573
    vertex -2.27482 -10.8216 0.352573
    vertex -2.22482 -10.8716 0.352573
  endloop
endfacet
facet normal 0.57735 -0.57735 0.57735
  outer loop
    vertex -2.22482 -10.8216 0.302573
    vertex -2.22482 -10.7716 0.352573
    vertex -2.27482 -10.8216 0.352573
  endloop
endfacet
facet normal -0.57735 -0.57735 -0.57735
  outer loop
    vertex -4.14447 -10.6296 0.450694
    vertex -4.14447 -10.5796 0.400694
    vertex -4.09447 -10.6296 0.400694
  endloop
endfacet
facet normal -0.57735 0.57735 -0.57735
  outer loop
    vertex -4.14447 -10.6296 0.450694
    vertex -4.09447 -10.6296 0.400694
    vertex -4.14447 -10.6796 0.400694
  endloop
endfacet
facet normal 0.57735 0.57735 -0.57735
  outer loop
    vertex -4.14447 -10.6296 0.450694
    vertex -4.14447 -10.6796 0.400694
    vertex -4.19447 -10.6296 0.400694
  endloop
endfacet
facet normal 0.57735 -0.57735 -0.57735
  outer loop
    vertex -4.14447 -10.6296 0.450694
    vertex -4.19447 -10.6296 0.400694
    vertex -4.14447 -10.5796 0.400694
  endloop
endfacet
facet normal -0.57735 -0.57735 0.57735
  outer loop
    vertex -4.14447 -10.6296 0.350694
    vertex -4.09447 -10.6296 0.400694
    vertex -4.14447 -10.5796 0.400694
  endloop
endfacet
facet normal -0.57735 0.57735 0.57735
  outer loop
    vertex -4.14447 -10.6296 0.350694
    vertex -4.14447 -10.6796 0.400694
    vertex -4.09447 -10.6296 0.400694
  endloop
endfacet
facet normal 0.57735 0.57735 0.57735
  outer loop
    vertex -4.14447 -10.6296 0.350694
    vertex -4.19447 -10.6296 0.400694
    vertex -4.14447 -10.6796 0.400694
  endloop
endfacet
facet normal 0.57735 -0.57735 0.57735
  outer loop
    vertex -4.14447 -10.6296 0.350694
    vertex -4.14447 -10.5796 0.400694
    vertex -4.19447 -10.6296 0.400694
  endloop
endfacet
facet normal -0.57735 -0.57735 -0.57735
  outer loop
    vertex -4.5341 -8.44983 0.00257605
    vertex -4.5341 -8.39983 -0.0474239
    vertex -4.4841 -8.44983 -0.0474239
  endloop
endfacet
facet normal -0.57735 0.57735 -0.57735
  outer loop
    vertex -4.5341 -8.44983 0.00257605
    vertex -4.4841 -8.44983 -0.0474239
    vertex -4.5341 -8.49983 -0.0474239
  endloop
endfacet
facet normal 0.57735 0.57735 -0.57735
  outer loop
    vertex -4.5341 -8.44983 0.00257605
    vertex -4.5341 -8.49983 -0.0474239
    vertex -4.5841 -8.44983 -0.0474239
  endloop
endfacet
facet normal 0.57735 -0.57735 -0.57735
  outer loop
    vertex -4.5341 -8.44983 0.00257605
    vertex -4.5841 -8.44983 -0.0474239
    vertex -4.5341 -8.39983 -0.0474239
  endloop
endfacet
facet normal -0.57735 -0.57735 0.57735
  outer loop
    vertex -4.5341 -8.44983 -0.0974239
    vertex -4.4841 -8.44983 -0.0474239
    vertex -4.5341 -8.39983 -0.0474239
  endloop
endfacet
facet normal -0.57735 0.57735 0.57735
  outer loop
    vertex -4.5341 -8.44983 -0.0974239
    vertex -4.5341 -8.49983 -0.0474239
    vertex -4.4841 -8.44983 -0.0474239
  endloop
endfacet
facet normal 0.57735 0.57735 0.57735
  outer loop
    vertex -4.5341 -8.44983 -0.0974239
    vertex -4.5841 -8.44983 -0.0474239
    vertex -4.5341 -8.49983 -0.0474239
  endloop
endfacet
facet normal 0.57735 -0.57735 0.57735
  outer loop
    vertex -4.5341 -8.44983 -0.0974239
    vertex -4.5341 -8.39983 -0.0474239
    vertex -4.5841 -8.44983 -0.0474239
  endloop
endfacet
facet normal -0.57735 -0.57735 -0.57735
  outer loop
    vertex -5.98892 -5.01999 0.528663
    vertex -5.98892 -4.96999 0.478663
    vertex -5.93892 -5.01999 0.478663
  endloop
endfacet
facet normal -0.57735 0.57735 -0.57735
  outer loop
    vertex -5.98892 -5.01999 0.528663
    vertex -5.93892 -5.01999 0.478663
    vertex -5.98892 -5.06999 0.478663
  endloop
endfacet
facet normal 0.57735 0.57735 -0.57735
  outer loop
    vertex -5.98892 -5.01999 0.528663
    vertex -5.98892 -5.06999 0.478663
    vertex -6.03892 -5.01999 0.478663
  endloop
endfacet
facet normal 0.57735 -0.57735 -0.57735
  outer loop
    vertex -5.98892 -5.01999 0.528663
    vertex -6.03892 -5.01999 0.478663
    vertex -5.98892 -4.96999 0.478663
  endloop
endfacet
facet normal -0.57735 -0.57735 0.57735
  outer loop
    vertex -5.98892 -5.01999 0.428663
    vertex -5.93892 -5.01999 0.478663
    vertex -5.98892 -4.96999 0.478663
  endloop
endfacet
facet normal -0.57735 0.57735 0.57735
  outer loop
    vertex -5.98892 -5.01999 0.428663
    vertex -5.98892 -5.06999 0.478663
    vertex -5.93892 -5.01999 0.478663
  endloop
endfacet
facet normal 0.57735 0.57735 0.57735
  outer loop
    vertex -5.98892 -5.01999 0.428663
    vertex -6.03892 -5.01999 0.478663
    vertex -5.98892 -5.06999 0.478663
  endloop
endfacet
facet normal 0.57735 -0.57735 0.57735
  outer loop
    vertex -5.98892 -5.01999 0.428663
    vertex -5.98892 -4.96999 0.478663
    vertex -6.03892 -5.01999 0.478663
  endloop
endfacet
facet normal -0.57735 -0.57735 -0.57735
  outer loop
    vertex -4.04208 -5.5531 0.607267
    vertex -4.04208 -5.5031 0.557267
    vertex -3.99208 -5.5531 0.557267
  endloop
endfacet
facet normal -0.57735 0.57735 -0.57735
  outer loop
    vertex -4.04208 -5.5531 0.607267
    vertex -3.99208 -5.5531 0.557267
    vertex -4.04208 -5.6031 0.557267
  endloop
endfacet
facet normal 0.57735 0.57735 -0.57735
  outer loop
    vertex -4.04208 -5.5531 0.607267
    vertex -4.04208 -5.6031 0.557267
    vertex -4.09208 -5.5531 0.557267
  endloop
endfacet
facet normal 0.57735 -0.57735 -0.57735
  outer loop
    vertex -4.04208 -5.5531 0.607267
    vertex -4.09208 -5.5531 0.557267
    vertex -4.04208 -5.5031 0.557267
  endloop
endfacet
facet normal -0.57735 -0.57735 0.57735
  outer loop
    vertex -4.04208 -5.5531 0.507267
    vertex -3.99208 -5.5531 0.557267
    vertex -4.04208 -5.5031 0.557267
  endloop
endfacet
facet normal -0.57735 0.57735 0.57735
  outer loop
    vertex -4.04208 -5.5531 0.507267
    vertex -4.04208 -5.6031 0.557267
    vertex -3.99208 -5.5531 0.557267
  endloop
endfacet
facet normal 0.57735 0.57735 0.57735
  outer loop
    vertex -4.04208 -5.5531 0.507267
    vertex -4.09208 -5.5531 0.557267
    vertex -4.04208 -5.6031 0.557267
  endloop
endfacet
facet normal 0.57735 -0.57735 0.57735
  outer loop
    vertex -4.04208 -5.5531 0.507267
    vertex -4.04208 -5.5031 0.557267
    vertex -4.09208 -5.5531 0.557267
  endloop
endfacet
facet normal -0.57735 -0.57735 -0.57735
  outer loop
    vertex -3.7337 -12.7716 1.59204
    vertex -3.7337 -12.7216 1.54204
    vertex -3.6837 -12.7716 1.54204
  endloop
endfacet
facet normal -0.57735 0.57735 -0.57735
  outer loop
    vertex -3.7337 -12.7716 1.59204
    vertex -3.6837 -12.7716 1.54204
    vertex -3.7337 -12.8216 1.54204
  endloop
endfacet
facet normal 0.57735 0.57735 -0.57735
  outer loop
    vertex -3.7337 -12.7716 1.59204
    vertex -3.7337 -12.8216 1.54204
    vertex -3.7837 -12.7716 1.54204
  endloop
endfacet
facet normal 0.57735 -0.57735 -0.57735
  outer loop
    vertex -3.7337 -12.7716 1.59204
    vertex -3.7837 -12.7716 1.54204
    vertex -3.7337 -12.7216 1.54204
  endloop
endfacet
facet normal -0.57735 -0.57735 0.57735
  outer loop
    vertex -3.7337 -12.7716 1.49204
    vertex -3.6837 -12.7716 1.54204
    vertex -3.7337 -12.7216 1.54204
  endloop
endfacet
facet normal -0.57735 0.57735 0.57735
  outer loop
    vertex -3.7337 -12.7716 1.49204
    vertex -3.7337 -12.8216 1.54204
    vertex -3.6837 -12.7716 1.54204
  endloop
endfacet
facet normal 0.57735 0.57735 0.57735
  outer loop
    vertex -3.7337 -12.7716 1.49204
    vertex -3.7837 -12.7716 1.54204
    vertex -3.7337 -12.8216 1.54204
  endloop
endfacet
facet normal 0.57735 -0.57735 0.57735
  outer loop
    vertex -3.7337 -12.7716 1.49204
    vertex -3.7337 -12.7216 1.54204
    vertex -3.7837 -12.7716 1.54204
  endloop
endfacet
facet normal -0.57735 -0.57735 -0.57735
  outer loop
    vertex -4.35533 -8.54379 3.11037
    vertex -4.35533 -8.49379 3.06037
    vertex -4.30533 -8.54379 3.06037
  endloop
endfacet
facet normal -0.57735 0.57735 -0.57735
  outer loop
    vertex -4.35533 -8.54379 3.11037
    vertex -4.30533 -8.54379 3.06037
    vertex -4.35533 -8.59379 3.06037
  endloop
endfacet
facet normal 0.57735 0.57735 -0.57735
  outer loop
    vertex -4.35533 -8.54379 3.11037
    vertex -4.35533 -8.59379 3.06037
    vertex -4.40533 -8.54379 3.06037
  endloop
endfacet
facet normal 0.57735 -0.57735 -0.57735
  outer loop
    vertex -4.35533 -8.54379 3.11037
    vertex -4.40533 -8.54379 3.06037
    vertex -4.35533 -8.49379 3.06037
  endloop
endfacet
facet normal -0.57735 -0.57735 0.57735
  outer loop
    vertex -4.35533 -8.54379 3.01037
    vertex -4.30533 -8.54379 3.06037
    vertex -4.35533 -8.49379 3.06037
  endloop
endfacet
facet normal -0.57735 0.57735 0.57735
  outer loop
    vertex -4.35533 -8.54379 3.01037
    vertex -4.35533 -8.59379 3.06037
    vertex -4.30533 -8.54379 3.06037
  endloop
endfacet
facet normal 0.57735 0.57735 0.57735
  outer loop
    vertex -4.35533 -8.54379 3.01037
    vertex -4.40533 -8.54379 3.06037
    vertex -4.35533 -8.59379 3.06037
  endloop
endfacet
facet normal 0.57735 -0.57735 0.57735
  outer loop
    vertex -4.35533 -8.54379 3.01037
    vertex -4.35533 -8.49379 3.06037
    vertex -4.40533 -8.54379 3.06037
  endloop
endfacet
facet normal -0.57735 -0.57735 -0.57735
  outer loop
    vertex -2.51372 -7.67699 0.501024
    vertex -2.51372 -7.62699 0.451024
    vertex -2.46372 -7.67699 0.451024
  endloop
endfacet
facet normal -0.57735 0.57735 -0.57735
  outer loop
    vertex -2.51372 -7.67699 0.501024
    vertex -2.46372 -7.67699 0.451024
    vertex -2.51372 -7.72699 0.451024
  endloop
endfacet
facet normal 0.57735 0.57735 -0.57735
  outer loop
    vertex -2.51372 -7.67699 0.501024
    vertex -2.51372 -7.72699 0.451024
    vertex -2.56372 -7.67699 0.451024
  endloop
endfacet
facet normal 0.57735 -0.57735 -0.57735
  outer loop
    vertex -2.51372 -7.67699 0.501024
    vertex -2.56372 -7.67699 0.451024
    vertex -2.51372 -7.62699 0.451024
  endloop
endfacet
facet normal -0.57735 -0.57735 0.57735
  outer loop
    vertex -2.51372 -7.67699 0.401024
    vertex -2.46372 -7.67699 0.451024
    vertex -2.51372 -7.62699 0.451024
  endloop
endfacet
facet normal -0.57735 0.57735 0.57735
  outer loop
    vertex -2.51372 -7.67699 0.401024
    vertex -2.51372 -7.72699 0.451024
    vertex -2.46372 -7.67699 0.451024
  endloop
endfacet
facet normal 0.57735 0.57735 0.57735
  outer loop
    vertex -2.51372 -7.67699 0.401024
    vertex -2.56372 -7.67699 0.451024
    vertex -2.51372 -7.72699 0.451024
  endloop
endfacet
facet normal 0.57735 -0.57735 0.57735
  outer loop
    vertex -2.51372 -7.67699 0.401024
    vertex -2.51372 -7.62699 0.451024
    vertex -2.56372 -7.67699 0.451024
  endloop
endfacet
endsolid centroids
