ply
format ascii 1.0
comment PCL generated
element vertex 1988
property float x
property float y
property float z
element face 0
element camera 1
property float view_px
property float view_py
property float view_pz
property float x_axisx
property float x_axisy
property float x_axisz
property float y_axisx
property float y_axisy
property float y_axisz
property float z_axisx
property float z_axisy
property float z_axisz
property float focal
property float scalex
property float scaley
property float centerx
property float centery
property int viewportx
property int viewporty
property float k1
property float k2
end_header
-5.8201113 -34.944267 0.14164633
-5.90061 -34.951363 0.1801918
-5.8607979 -34.951412 0.18028662
-5.8200102 -34.95145 0.18098538
-5.7796178 -34.951561 0.18040624
-5.7391648 -34.951633 0.17982627
-5.7005787 -34.951668 0.17927305
-5.6598263 -34.95174 0.17888293
-5.6193609 -34.951866 0.18006824
-5.5809941 -34.951904 0.1808525
-5.5398345 -34.951942 0.18089367
-5.4990087 -34.952057 0.18031141
-5.4600682 -34.952137 0.17975597
-5.4210691 -34.952164 0.17919977
-5.3798838 -34.952244 0.17880751
-5.3389831 -34.952366 0.17999913
-5.2998052 -34.952396 0.18141325
-5.2605681 -34.952446 0.18085659
-5.2212734 -34.95256 0.18029913
-5.1799521 -34.952629 0.17971289
-5.1385646 -34.952667 0.17912567
-5.0990868 -34.95277 0.17856559
-5.0596809 -34.952854 0.18017223
-5.0199556 -34.952888 0.1814068
-4.9803047 -34.952946 0.18084723
-4.9405885 -34.953072 0.18028669
-4.900816 -34.953121 0.17972538
-4.8609862 -34.953156 0.17916323
-4.8210931 -34.953262 0.17860025
-4.7810845 -34.95335 0.17983353
-4.7411308 -34.953381 0.18145648
-4.7010574 -34.953457 0.18089391
-4.6609263 -34.953564 0.18033057
-4.6207337 -34.953613 0.1797663
-4.5804787 -34.953659 0.1792013
-4.5401669 -34.953777 0.17863533
-4.4998555 -34.953846 0.17946465
-4.4593577 -34.953873 0.18150662
-4.4188633 -34.953964 0.18094116
-4.3783088 -34.954075 0.18037483
-4.3397188 -34.954105 0.17983608
-4.3010774 -34.954155 0.17929649
-4.2603426 -34.954281 0.17872769
-4.2200556 -34.954338 0.17891975
-4.1786823 -34.954384 0.18161421
-4.1398134 -34.954483 0.18107425
-4.1008821 -34.954559 0.1805336
-4.0598435 -34.954597 0.17996363
-4.0187416 -34.954681 0.17939274
-5.90061 -34.951355 0.22112238
-5.8603387 -34.951412 0.22057512
-5.8200097 -34.95145 0.22002706
-5.7796168 -34.95155 0.21947807
-5.7391648 -34.951637 0.21892825
-5.700141 -34.951668 0.2196164
-5.6601629 -34.951733 0.21997593
-5.6193624 -34.951855 0.22121932
-5.5805993 -34.9519 0.22069541
-5.539835 -34.95195 0.22014453
-5.4990087 -34.952065 0.21959269
-5.4600673 -34.952133 0.21906643
-5.4207644 -34.952164 0.21895951
-5.3802238 -34.952244 0.22011988
-5.3389845 -34.952354 0.22137
-5.2998047 -34.952396 0.22084336
-5.2605681 -34.952442 0.22031599
-5.2212739 -34.95256 0.21978788
-5.1799521 -34.952633 0.21923238
-5.1385646 -34.952656 0.21867615
-5.0986991 -34.952759 0.2195646
-5.0597291 -34.952854 0.22136179
-5.0199556 -34.952885 0.22104578
-4.9803042 -34.952942 0.22051585
-4.940589 -34.953072 0.21998505
-4.9008164 -34.953121 0.21945341
-4.8609843 -34.953159 0.21892099
-4.8210931 -34.953255 0.21838772
-4.7816038 -34.95335 0.22099958
-4.7411308 -34.953381 0.22130373
-4.7010574 -34.953453 0.22077101
-4.6609268 -34.953568 0.22023773
-4.6207333 -34.953613 0.21970347
-4.5804787 -34.953659 0.21916839
-4.5401673 -34.95377 0.21863258
-4.4997945 -34.953846 0.21929711
-4.4593582 -34.953876 0.22156428
-4.4188633 -34.953968 0.22102903
-4.3783083 -34.954071 0.22049302
-4.3397188 -34.954105 0.21998309
-4.3010774 -34.954159 0.21947233
-4.2603436 -34.954285 0.21893391
-4.2195454 -34.954342 0.21839471
-4.1781454 -34.954376 0.22092083
-4.1398134 -34.954472 0.2213705
-4.1008821 -34.954567 0.22085892
-4.0598431 -34.954597 0.22031952
-4.0187411 -34.954674 0.2197794
-5.900609 -34.951359 0.26010385
-5.8603392 -34.951412 0.25958663
-5.8200102 -34.951447 0.25906864
-5.7791166 -34.951557 0.25947794
-5.7391648 -34.951637 0.25998539
-5.7010236 -34.951668 0.26062593
-5.6600008 -34.951736 0.26092967
-5.6193624 -34.951855 0.26041082
-5.5805988 -34.9519 0.25991583
-5.539835 -34.951942 0.25939536
-5.4990087 -34.952061 0.25887403
-5.4596033 -34.952137 0.25940058
-5.4213595 -34.952164 0.26021388
-5.3800592 -34.95224 0.26129219
-5.3389835 -34.952362 0.26077083
-5.2998052 -34.952396 0.26027343
-5.2605677 -34.952442 0.2597754
-5.2212734 -34.952564 0.25927657
-5.1799512 -34.952629 0.25875199
-5.1380954 -34.952663 0.25925672
-5.0994897 -34.952755 0.26105464
-5.0595531 -34.952858 0.26118457
-5.0199556 -34.952888 0.26068482
-4.9803057 -34.952946 0.26018447
-4.9405885 -34.953072 0.25968331
-4.900816 -34.953121 0.25918138
-4.8609853 -34.953163 0.25867873
-4.8206325 -34.95327 0.25901133
-4.7811427 -34.95335 0.26165298
-4.7411308 -34.953381 0.26115096
-4.701057 -34.953457 0.26064822
-4.6609263 -34.953568 0.26014477
-4.6207337 -34.953613 0.2596406
-4.5804782 -34.953651 0.25913566
-4.5401669 -34.953773 0.25862989
-4.4998965 -34.953846 0.25911552
-4.4593582 -34.95388 0.26162189
-4.4188628 -34.953964 0.26111689
-4.3783088 -34.954071 0.26061118
-4.3397193 -34.954105 0.26012996
-4.3010769 -34.954159 0.25964814
-4.2603431 -34.954281 0.25914019
-4.2195454 -34.954342 0.25863132
-4.1792212 -34.954372 0.25908253
-4.1398139 -34.954479 0.26166672
-4.1008821 -34.954567 0.26118419
-4.0598431 -34.954597 0.26067552
-4.0187416 -34.954678 0.26016593
-5.9006085 -34.951355 0.29908526
-5.8598676 -34.951412 0.29934549
-5.820013 -34.951447 0.30006245
-5.7801161 -34.951561 0.30042344
-5.7391639 -34.951637 0.30104253
-5.7005787 -34.951668 0.30057862
-5.6600008 -34.951736 0.30009076
-5.6193624 -34.951859 0.29960227
-5.5805984 -34.9519 0.29913616
-5.539835 -34.951939 0.29864624
-5.4990096 -34.952065 0.3001194
-5.4605317 -34.952137 0.30059445
-5.4210691 -34.952171 0.30115235
-5.3800597 -34.952255 0.30066231
-5.3389831 -34.952358 0.30017167
-5.2998047 -34.952393 0.29970348
-5.2605677 -34.952438 0.29923481
-5.2212734 -34.95256 0.29876539
-5.1794376 -34.952629 0.29921073
-5.1390333 -34.95266 0.30070207
-5.0990868 -34.952766 0.30126345
-5.0595522 -34.952858 0.30079409
-5.0199556 -34.952888 0.30032387
-4.9803047 -34.952946 0.29985309
-4.9405885 -34.953075 0.29938158
-4.900816 -34.953121 0.29890937
-4.8609843 -34.953163 0.29843646
-4.8212461 -34.953259 0.30033693
-4.7811427 -34.95335 0.30147025
-4.7411304 -34.953381 0.30099824
-4.7010579 -34.953453 0.30052543
-4.6609259 -34.953571 0.30005199
-4.6207337 -34.953613 0.29957768
-4.5804782 -34.953659 0.29910284
-4.5401673 -34.953773 0.29862723
-4.4999371 -34.95385 0.29873899
-4.4593582 -34.953873 0.30167949
-4.4188628 -34.953976 0.3012048
-4.3783083 -34.954071 0.3007293
-4.3397188 -34.954105 0.30027696
-4.3010778 -34.954159 0.29982391
-4.2603426 -34.954281 0.29934639
-4.2195454 -34.954342 0.29886806
-4.1786828 -34.954376 0.29838908
-4.1394682 -34.954475 0.30042979
-4.1008825 -34.954563 0.30150947
-4.0598431 -34.954601 0.30103147
-4.0187411 -34.954674 0.30055261
-5.900609 -34.951363 0.34001592
-5.8607974 -34.951412 0.34023243
-5.8200111 -34.951447 0.34105626
-5.7796183 -34.951561 0.34060073
-5.7391648 -34.951641 0.34014457
-5.7005782 -34.951672 0.33970946
-5.6600013 -34.95174 0.33925197
-5.6193624 -34.951855 0.33879378
-5.5802178 -34.951904 0.3397637
-5.539835 -34.951942 0.33985969
-5.4990101 -34.952057 0.34136489
-5.4600692 -34.952137 0.34092876
-5.4210706 -34.952164 0.34049189
-5.3800592 -34.952251 0.34003252
-5.3389845 -34.952354 0.33957246
-5.2998052 -34.952396 0.33913365
-5.2605681 -34.952446 0.33869416
-5.2208276 -34.952564 0.33947864
-5.1804609 -34.952629 0.34062475
-5.1385646 -34.952671 0.3412827
-5.0990868 -34.952778 0.34084335
-5.0595512 -34.95285 0.34040353
-5.0199556 -34.952888 0.33996299
-4.9803038 -34.952946 0.33952177
-4.9405885 -34.953072 0.33907998
-4.9008164 -34.953121 0.33863735
-4.8605261 -34.953159 0.33903039
-4.8214064 -34.95327 0.34130365
-4.7811427 -34.953346 0.34128764
-4.7411304 -34.953381 0.34084541
-4.701057 -34.953453 0.34040263
-4.6609263 -34.953568 0.33995903
-4.6207333 -34.953613 0.33951485
-4.5804777 -34.953663 0.33907002
-4.5401669 -34.953781 0.33862451
-4.499795 -34.95385 0.33857876
-4.4593577 -34.95388 0.34173715
-4.4188623 -34.953972 0.34129268
-4.3783083 -34.954071 0.34084752
-4.3397198 -34.954105 0.34042394
-4.3010774 -34.954151 0.33999979
-4.2603426 -34.954285 0.3395527
-4.2195454 -34.954338 0.3391048
-4.1786819 -34.954388 0.33865628
-4.1401391 -34.954472 0.33864543
-4.1003428 -34.954567 0.34087405
-4.0598426 -34.954597 0.34138733
-4.0187416 -34.954666 0.34093928
-5.900609 -34.951359 0.3809464
-5.8603401 -34.951408 0.3805224
-5.8200111 -34.951454 0.3800979
-5.7796183 -34.951561 0.37967253
-5.7391644 -34.951637 0.37924659
-5.7005787 -34.951668 0.3788403
-5.6595383 -34.95174 0.37969702
-5.6193614 -34.951859 0.37994489
-5.5809937 -34.951904 0.38087526
-5.5398345 -34.95195 0.38107303
-5.4990096 -34.952061 0.3806462
-5.4600682 -34.952133 0.38023919
-5.4210691 -34.952164 0.37983131
-5.3800588 -34.95224 0.37940279
-5.3389831 -34.952354 0.37897336
-5.2998061 -34.952396 0.3785637
-5.260406 -34.952442 0.37994388
-5.2217274 -34.952557 0.38086122
-5.1799512 -34.952629 0.38126284
-5.1385636 -34.952663 0.38083312
-5.0990868 -34.952763 0.38042337
-5.0595517 -34.952854 0.38001308
-5.0199556 -34.952885 0.37960193
-4.9803042 -34.95295 0.37919044
-4.9405885 -34.953075 0.37877816
-4.9008164 -34.953121 0.37836552
-4.8614359 -34.953163 0.38069496
-4.8210926 -34.953251 0.38151664
-4.7811422 -34.95335 0.38110504
-4.7411304 -34.953381 0.3806926
-4.7010574 -34.953457 0.38027969
-4.6609263 -34.953568 0.3798663
-4.6207337 -34.953613 0.37945193
-4.5804777 -34.953659 0.37903729
-4.5401669 -34.953773 0.37862176
-4.4999785 -34.953846 0.37838957
-4.4591742 -34.95388 0.38161099
-4.4188628 -34.953964 0.38138065
-4.3783083 -34.954071 0.38096562
-4.3397193 -34.954105 0.38057086
-4.3010769 -34.954151 0.38017562
-4.2603426 -34.954281 0.37975892
-4.2195454 -34.954338 0.37934148
-4.1786819 -34.954376 0.37892345
-4.1398134 -34.954472 0.37852588
-4.1014223 -34.954563 0.3790884
-4.0593987 -34.954601 0.38117731
-4.0187407 -34.954674 0.38132575
-5.90061 -34.951359 0.41992801
-5.8603401 -34.951412 0.419534
-5.8200097 -34.951454 0.41913936
-5.7796183 -34.951553 0.41874439
-5.7390051 -34.951645 0.42012289
-5.7005782 -34.951668 0.41992775
-5.6604757 -34.951733 0.42073929
-5.6193609 -34.951855 0.42109576
-5.5805993 -34.9519 0.42071959
-5.5398345 -34.951946 0.42032394
-5.4990082 -34.952061 0.4199276
-5.4600692 -34.952133 0.41954964
-5.4210701 -34.952164 0.41917089
-5.3800597 -34.952248 0.41877285
-5.338532 -34.952358 0.41920343
-5.2998056 -34.952396 0.41996536
-5.2607427 -34.952446 0.42134577
-5.2212739 -34.952557 0.42118043
-5.1799521 -34.952629 0.42078236
-5.1385636 -34.952667 0.42038372
-5.0990858 -34.952755 0.42000324
-5.0595527 -34.95285 0.41962242
-5.0199556 -34.952888 0.41924098
-4.9803042 -34.95295 0.41885909
-4.940589 -34.953072 0.41847652
-4.900425 -34.953121 0.41951916
-4.8609843 -34.953163 0.42168561
-4.8210926 -34.953259 0.42130426
-4.7811427 -34.953346 0.42092225
-4.7411299 -34.953381 0.42053983
-4.7010579 -34.953449 0.42015693
-4.6609254 -34.953571 0.41977328
-4.6207333 -34.953613 0.41938919
-4.5804782 -34.953655 0.41900444
-4.5401669 -34.95377 0.41861916
-4.4997935 -34.953846 0.41823316
-4.4592152 -34.95388 0.42126453
-4.4188628 -34.953979 0.42146847
-4.3783083 -34.954067 0.42108375
-4.3397188 -34.954105 0.42071784
-4.3010769 -34.954155 0.4203513
-4.2603436 -34.954281 0.41996521
-4.2195454 -34.954342 0.41957819
-4.1786823 -34.95438 0.41919079
-4.1398134 -34.954468 0.41882205
-4.1008821 -34.954567 0.41845286
-4.0603056 -34.954601 0.41943491
-4.0184059 -34.954674 0.42133865
-5.90061 -34.951359 0.45890954
-5.859838 -34.951412 0.45947406
-5.8200107 -34.951443 0.4601334
-5.7796187 -34.951553 0.45976973
-5.7393355 -34.951637 0.4611496
-5.7005782 -34.951668 0.46101528
-5.6600013 -34.951736 0.46065161
-5.6193633 -34.951855 0.46028733
-5.5805988 -34.9519 0.45993996
-5.5398355 -34.951939 0.45957461
-5.4990101 -34.952065 0.45920908
-5.4600673 -34.952137 0.45885995
-5.4208961 -34.952164 0.45872319
-5.3800602 -34.952236 0.46011171
-5.3394256 -34.952358 0.46049246
-5.2998066 -34.952396 0.4613668
-5.2605677 -34.952438 0.46101832
-5.2212734 -34.95256 0.46066901
-5.1799512 -34.952629 0.460302
-5.1385646 -34.952663 0.45993397
-5.0990863 -34.952763 0.4595834
-5.0595512 -34.952854 0.45923179
-5.0199556 -34.952885 0.45888025
-4.9803047 -34.952946 0.45852783
-4.940115 -34.953075 0.4592106
-4.9012218 -34.953121 0.46116164
-4.8609843 -34.953156 0.46144325
-4.8210931 -34.953255 0.46109188
-4.7811427 -34.953354 0.46073967
-4.7411304 -34.953381 0.46038714
-4.701057 -34.953453 0.46003401
-4.6609268 -34.953564 0.45968038
-4.6207337 -34.953617 0.45932615
-4.5804777 -34.953659 0.45897156
-4.5401673 -34.953777 0.45861641
-4.4997935 -34.953846 0.45826063
-4.4592557 -34.953876 0.46091828
-4.4188628 -34.953968 0.46155626
-4.3783083 -34.954075 0.46120211
-4.3397193 -34.954105 0.46086484
-4.3010769 -34.954151 0.46052718
-4.2603426 -34.954281 0.46017134
-4.2195454 -34.954342 0.45981488
-4.1786819 -34.954376 0.45945784
-4.1398134 -34.954483 0.45911828
-4.1008825 -34.954567 0.45877826
-4.0598431 -34.954601 0.45841956
-4.0190988 -34.954681 0.45964408
-5.900609 -34.951366 0.49984002
-5.8608351 -34.951412 0.50035286
-5.8200121 -34.95145 0.50112712
-5.7796187 -34.951557 0.50079525
-5.7391658 -34.951637 0.50046301
-5.7005782 -34.951668 0.50014603
-5.6600022 -34.95174 0.49981284
-5.6193614 -34.951859 0.49947885
-5.5805984 -34.9519 0.49916047
-5.5398345 -34.951942 0.49882573
-5.498704 -34.952049 0.49891147
-5.4600687 -34.952137 0.50013602
-5.4212313 -34.952164 0.49999893
-5.3800592 -34.952236 0.5014503
-5.3389831 -34.952354 0.50111562
-5.2998052 -34.952396 0.50079709
-5.2605681 -34.952442 0.50047761
-5.2212739 -34.952557 0.50015783
-5.1799521 -34.952629 0.49982154
-5.1385646 -34.952667 0.49948451
-5.0990868 -34.952759 0.49916333
-5.0595512 -34.952854 0.49884152
-5.0199556 -34.952888 0.49851918
-4.9798303 -34.952946 0.49923176
-4.941062 -34.953075 0.50080734
-4.900816 -34.953125 0.50152218
-4.8609843 -34.953159 0.50120103
-4.8210926 -34.953266 0.50087929
-4.7811427 -34.953354 0.50055707
-4.7411308 -34.953377 0.50023448
-4.701057 -34.953453 0.49991119
-4.6609254 -34.953568 0.49958751
-4.6207333 -34.953613 0.49926341
-4.5804777 -34.953655 0.49893886
-4.5401669 -34.953773 0.49861366
-4.4997926 -34.95385 0.49828812
-4.4592757 -34.953876 0.50037336
-4.4188628 -34.953976 0.50164413
-4.3783078 -34.954071 0.50132006
-4.3397193 -34.954105 0.50101185
-4.3010759 -34.954155 0.5007031
-4.2603421 -34.954285 0.5003776
-4.2195449 -34.954342 0.50005162
-4.1786819 -34.954376 0.4997251
-4.1398129 -34.954468 0.49941456
-4.1008821 -34.954567 0.49910346
-4.0598426 -34.954597 0.49877563
-4.0187411 -34.954678 0.49844724
-5.900609 -34.951359 0.54077059
-5.8603392 -34.951412 0.54046994
-5.8200121 -34.951447 0.5401687
-5.7796183 -34.95155 0.53986704
-5.7391644 -34.951645 0.53956503
-5.7005782 -34.951672 0.5392769
-5.6600013 -34.951736 0.53897387
-5.6193614 -34.951859 0.53867036
-5.5802174 -34.951904 0.53978932
-5.539835 -34.951946 0.54003888
-5.4992971 -34.952061 0.54010177
-5.4600677 -34.952133 0.541412
-5.4210687 -34.952164 0.54112369
-5.3800611 -34.952251 0.54082036
-5.3389845 -34.952354 0.54051673
-5.2998047 -34.952396 0.54022717
-5.2605681 -34.952442 0.53993708
-5.2212734 -34.95256 0.53964657
-5.1799512 -34.952629 0.53934103
-5.1385646 -34.952663 0.53903502
-5.0990863 -34.952759 0.5387432
-5.0595522 -34.95285 0.53845096
-5.0195069 -34.952888 0.53938913
-4.9807763 -34.952938 0.54079682
-4.9405885 -34.953075 0.54154146
-4.9008155 -34.953121 0.54125023
-4.8609843 -34.953163 0.54095864
-4.8210931 -34.953255 0.54066682
-4.7811427 -34.95335 0.5403747
-4.7411304 -34.953381 0.54008162
-4.7010574 -34.953453 0.53978842
-4.6609268 -34.953568 0.53949469
-4.6207333 -34.953613 0.5392006
-4.5804772 -34.953659 0.53890598
-4.5401669 -34.953773 0.53861094
-4.499794 -34.953846 0.53831559
-4.4594407 -34.953876 0.53961456
-4.4188633 -34.953968 0.54173207
-4.3783083 -34.954067 0.54143834
-4.3397188 -34.954105 0.54115891
-4.3010759 -34.954155 0.54087895
-4.2603431 -34.954285 0.54058391
-4.2195449 -34.954342 0.54028821
-4.1786819 -34.954384 0.53999245
-4.1398134 -34.954475 0.53971088
-4.1008821 -34.954563 0.53942853
-4.0598421 -34.954597 0.53913164
-4.0187411 -34.954678 0.5388338
-5.90061 -34.951359 0.57975191
-5.8603401 -34.951412 0.57948142
-5.8200111 -34.951447 0.57921034
-5.7796183 -34.951557 0.57893896
-5.7391644 -34.951645 0.57866704
-5.7002921 -34.951668 0.5800001
-5.6600018 -34.951736 0.58009309
-5.6193609 -34.951859 0.57982141
-5.5809941 -34.951904 0.58089799
-5.5398359 -34.951942 0.58125246
-5.4990087 -34.952061 0.58098108
-5.4600677 -34.952137 0.58072239
-5.4210701 -34.952168 0.58046311
-5.3800588 -34.95224 0.58019054
-5.3389845 -34.952358 0.57991755
-5.2998052 -34.952396 0.57965726
-5.2605677 -34.952438 0.57939655
-5.2212739 -34.952564 0.5791353
-5.1799517 -34.952633 0.5788607
-5.1385646 -34.952667 0.57858557
-5.0989094 -34.952759 0.57853764
-5.0595522 -34.952854 0.58004087
-5.0204129 -34.952885 0.58092588
-4.9803033 -34.952946 0.58150077
-4.9405885 -34.953068 0.58123964
-4.900815 -34.953121 0.58097839
-4.8609853 -34.953163 0.58071667
-4.8210926 -34.953262 0.58045459
-4.7811427 -34.953346 0.58019191
-4.7411308 -34.953381 0.57992887
-4.7010574 -34.953453 0.57966566
-4.6609249 -34.953575 0.57940191
-4.6207333 -34.953613 0.5791378
-4.5804777 -34.953663 0.57887328
-4.5401669 -34.953773 0.57860827
-4.499794 -34.953846 0.57834297
-4.4596062 -34.95388 0.57885581
-4.4188628 -34.953968 0.58182001
-4.3783083 -34.954071 0.58155638
-4.3397193 -34.954109 0.58130598
-4.3010764 -34.954151 0.58105475
-4.2603426 -34.954281 0.58079028
-4.2195449 -34.954342 0.58052498
-4.1786823 -34.954376 0.5802595
-4.1398125 -34.954464 0.58000708
-4.1008825 -34.954567 0.57975411
-4.0598421 -34.954601 0.57948768
-4.0187411 -34.95467 0.57922041
-5.940814 -34.951221 0.61897373
-5.900609 -34.951359 0.61873353
-5.8599491 -34.951412 0.61994559
-5.820013 -34.951443 0.62020421
-5.7796183 -34.95155 0.61996454
-5.7391648 -34.951641 0.61972421
-5.700881 -34.951664 0.62103158
-5.6600008 -34.95174 0.6212123
-5.6193624 -34.951859 0.62097257
-5.5805988 -34.9519 0.62074381
-5.539835 -34.951939 0.62050349
-5.4990087 -34.952057 0.6202625
-5.4600673 -34.952133 0.62003279
-5.4210701 -34.952164 0.61980265
-5.3800602 -34.952244 0.61956072
-5.3389845 -34.952354 0.61931843
-5.2998047 -34.952396 0.61908734
-5.2605677 -34.952438 0.61885595
-5.2212734 -34.95256 0.61862403
-5.1799507 -34.952629 0.61838049
-5.1385646 -34.95266 0.62011349
-5.0992498 -34.952747 0.62006468
-5.0595512 -34.952854 0.62163097
-5.0199552 -34.952888 0.62140036
-4.9803038 -34.95295 0.62116927
-4.9405885 -34.953075 0.62093794
-4.9008155 -34.953121 0.62070638
-4.8609838 -34.953159 0.62047446
-4.8210926 -34.953255 0.62024194
-4.7811427 -34.95335 0.62000912
-4.7411308 -34.953381 0.61977625
-4.701057 -34.953449 0.61954284
-4.6609254 -34.953568 0.61930883
-4.6207333 -34.953613 0.61907476
-4.5804772 -34.953659 0.61884058
-4.5401669 -34.953773 0.61860567
-4.4997945 -34.953846 0.61837047
-4.4595423 -34.95388 0.61831814
-4.4184246 -34.953972 0.62134755
-4.3783083 -34.954071 0.62167472
-4.3397193 -34.954105 0.62145287
-4.3010759 -34.954155 0.62123072
-4.2603426 -34.954288 0.62099636
-4.2195449 -34.954342 0.62076175
-4.1786823 -34.954376 0.62052691
-4.1398134 -34.954483 0.62030345
-4.1008821 -34.954563 0.62007952
-4.0598426 -34.954597 0.61984348
-4.0187416 -34.954678 0.61960715
-3.9796398 -34.954784 0.61938232
-5.940814 -34.951218 0.65987277
-5.9006085 -34.951359 0.65966415
-5.8607464 -34.951408 0.66083837
-5.8200111 -34.95145 0.6611979
-5.7796183 -34.951557 0.66098988
-5.7391644 -34.951637 0.66078132
-5.7005787 -34.951668 0.66058272
-5.6600003 -34.951736 0.66037333
-5.6193624 -34.951859 0.66016394
-5.5805993 -34.9519 0.6599642
-5.5398355 -34.951939 0.6597541
-5.4990087 -34.952049 0.65954393
-5.4600673 -34.952137 0.65934312
-5.4210687 -34.952164 0.65914226
-5.3800597 -34.952248 0.65893096
-5.3389845 -34.952354 0.65871942
-5.2998052 -34.952396 0.6585176
-5.2601147 -34.952438 0.65914798
-5.2212729 -34.952564 0.66008717
-5.1799507 -34.952629 0.65987575
-5.1385636 -34.952663 0.66164178
-5.0990863 -34.952763 0.66144109
-5.0595508 -34.95285 0.66124052
-5.0199552 -34.952888 0.66103953
-4.9803042 -34.952942 0.66083801
-4.9405885 -34.953068 0.66063631
-4.900816 -34.953121 0.66043442
-4.8609853 -34.953156 0.66023207
-4.8210931 -34.953262 0.66002953
-4.7811427 -34.95335 0.65982664
-4.7411304 -34.953377 0.65962362
-4.7010574 -34.953457 0.65941995
-4.6609249 -34.953568 0.65921628
-4.6207333 -34.953617 0.65901208
-4.5804777 -34.953659 0.65880775
-4.5401669 -34.953773 0.65860307
-4.499794 -34.953846 0.65839791
-4.4593577 -34.95388 0.65819246
-4.4188628 -34.953972 0.65999174
-4.3783078 -34.954071 0.66179276
-4.3397193 -34.954105 0.66159958
-4.3010769 -34.954155 0.66140664
-4.2603421 -34.954281 0.66120279
-4.2195449 -34.954342 0.66099858
-4.1786823 -34.954376 0.66079402
-4.1398125 -34.954479 0.66059965
-4.1008825 -34.954563 0.66040474
-4.0598421 -34.954601 0.6601994
-4.0187407 -34.954666 0.65999389
-3.9796391 -34.954781 0.65979826
-5.940815 -34.951221 0.70077175
-5.90061 -34.951359 0.70059472
-5.8603406 -34.951412 0.7004174
-5.8200097 -34.951447 0.70023972
-5.7796168 -34.951561 0.70006168
-5.7391639 -34.951637 0.69988334
-5.7005782 -34.951672 0.69971329
-5.6600003 -34.951736 0.69953465
-5.6193614 -34.951859 0.69935536
-5.5805998 -34.9519 0.69918478
-5.539835 -34.951939 0.69900519
-5.4990087 -34.952057 0.6988253
-5.4600682 -34.952137 0.69865382
-5.4210701 -34.952168 0.69848192
-5.3796616 -34.95224 0.69976759
-5.3389821 -34.952362 0.70009023
-5.2998056 -34.952396 0.6999191
-5.2610121 -34.952442 0.70049411
-5.2212734 -34.952564 0.7015503
-5.1799521 -34.952629 0.70137149
-5.1385636 -34.952663 0.70119226
-5.0990863 -34.952759 0.70102119
-5.0595512 -34.952854 0.70084983
-5.0199556 -34.952888 0.70067835
-4.9803042 -34.952946 0.70050651
-4.9405885 -34.953072 0.70033485
-4.9008155 -34.953121 0.70016235
-4.8609838 -34.953167 0.69998991
-4.8210931 -34.953262 0.6998173
-4.7811427 -34.953346 0.69964403
-4.7411294 -34.953377 0.69947082
-4.701057 -34.953453 0.69929725
-4.6609249 -34.953571 0.69912338
-4.6207337 -34.953617 0.69894928
-4.5804777 -34.953655 0.69877505
-4.5401673 -34.953766 0.69860017
-4.4997935 -34.953846 0.69842553
-4.4593577 -34.953873 0.69825041
-4.419301 -34.953972 0.6986348
-4.3778682 -34.954071 0.70135099
-4.3397193 -34.954105 0.70174658
-4.3010769 -34.954159 0.70158219
-4.2603426 -34.954285 0.70140886
-4.2195444 -34.954342 0.70123529
-4.1786819 -34.954384 0.70106119
-4.1398125 -34.954464 0.70089597
-4.1008821 -34.954567 0.70073009
-4.0598421 -34.954597 0.7005555
-4.0187411 -34.954674 0.70038038
-3.9796386 -34.954781 0.70021403
-5.940814 -34.951221 0.73972332
-5.900609 -34.951359 0.73957616
-5.8603387 -34.951412 0.73942894
-5.8200097 -34.95145 0.7392813
-5.7796187 -34.951553 0.73913372
-5.7391648 -34.951637 0.73898542
-5.7005782 -34.951672 0.7388441
-5.6600008 -34.95174 0.7386958
-5.6193628 -34.951866 0.73854691
-5.5802178 -34.9519 0.73981524
-5.5398355 -34.951942 0.74021882
-5.4990096 -34.952065 0.7400707
-5.4600673 -34.952137 0.73992968
-5.4210706 -34.952164 0.73978835
-5.3804741 -34.952244 0.74103498
-5.3389845 -34.952358 0.7414611
-5.2998052 -34.952396 0.74132079
-5.2605677 -34.952442 0.74117994
-5.2212734 -34.952564 0.74103904
-5.1799526 -34.952633 0.74089092
-5.1385636 -34.95266 0.74074274
-5.0990868 -34.95277 0.74060118
-5.0595512 -34.952858 0.74045944
-5.0199556 -34.952888 0.74031752
-4.9803038 -34.95295 0.74017525
-4.9405885 -34.953068 0.74003297
-4.9008164 -34.953121 0.73989046
-4.8609853 -34.953159 0.73974794
-4.8210926 -34.953251 0.73960465
-4.7811422 -34.953354 0.73946154
-4.7411299 -34.953381 0.73931801
-4.701057 -34.953453 0.73917437
-4.6609249 -34.953575 0.73903048
-4.6207333 -34.953613 0.73888665
-4.5804777 -34.953659 0.73874211
-4.5401669 -34.953773 0.73859787
-4.4997935 -34.953846 0.73845267
-4.4593577 -34.953876 0.73830795
-4.4188628 -34.953964 0.73816293
-4.3787656 -34.954067 0.73937809
-4.3395362 -34.954109 0.74169022
-4.3010759 -34.954151 0.74175829
-4.2603416 -34.954288 0.74161524
-4.2195439 -34.954342 0.74147201
-4.1786823 -34.954384 0.74132866
-4.139812 -34.954483 0.7411921
-4.1008821 -34.954567 0.74105537
-4.0598412 -34.954597 0.74091154
-4.0187397 -34.954685 0.74076706
-3.9796391 -34.954781 0.74063003
-5.9006076 -34.951328 0.76491427
-5.8603401 -34.951401 0.76478636
-5.8200102 -34.951469 0.76465839
-5.7796187 -34.951546 0.76453024
-5.7391648 -34.951614 0.76440185
-5.7005782 -34.951687 0.76427937
-5.6600013 -34.951756 0.76415056
-5.6193619 -34.951832 0.76402152
-5.5823689 -34.951897 0.76509792
-5.539835 -34.951969 0.76573175
-5.4990091 -34.952049 0.7656036
-5.4600682 -34.95211 0.76548147
-5.4210696 -34.952187 0.76535904
-5.377964 -34.952263 0.76648968
-5.3389835 -34.952328 0.76707178
-5.2998047 -34.9524 0.76695025
-5.2605677 -34.952469 0.76682866
-5.2212734 -34.952541 0.76670682
-5.1799502 -34.952614 0.76657885
-5.1385636 -34.952686 0.76645064
-5.0990858 -34.952763 0.76632816
-5.0595498 -34.952827 0.76620567
-5.0199561 -34.9529 0.766083
-4.9803023 -34.952976 0.76596004
-4.9405885 -34.953045 0.76583689
-4.9008169 -34.95311 0.76571369
-4.8609838 -34.953186 0.76559031
-4.8210912 -34.953255 0.76546669
-4.7811413 -34.953323 0.76534283
-4.7411289 -34.953396 0.76521873
-4.7010574 -34.953472 0.76509446
-4.6609254 -34.953541 0.76497012
-4.6207337 -34.953613 0.76484567
-4.5804801 -34.953686 0.76472092
-4.5401678 -34.953758 0.76459593
-4.4997931 -34.953835 0.76447076
-4.4593587 -34.953903 0.76434547
-4.4188614 -34.953972 0.76421994
-4.378305 -34.954048 0.76409423
-4.3405747 -34.954113 0.76566774
-4.3010764 -34.954189 0.7658636
-4.2603416 -34.954262 0.76573896
-4.2195444 -34.95433 0.76561403
-4.1786852 -34.954403 0.76548898
-4.139812 -34.954475 0.76536983
-4.1008811 -34.95454 0.76525056
-4.0583491 -34.954617 0.76567096
-4.0187402 -34.954689 0.76701844
-3.9796362 -34.954754 0.76690024
-5.9325557 -34.903908 0.7872262
-5.899848 -34.903999 0.78707945
-5.8603759 -34.904053 0.78726614
-5.8202143 -34.90419 0.78720278
-5.7799931 -34.904251 0.78714967
-5.7399912 -34.904625 0.78662151
-5.700264 -34.904758 0.78673786
-5.6604552 -34.904709 0.78687435
-5.6199431 -34.905022 0.78649664
-5.5791316 -34.90498 0.78747362
-5.5403543 -34.904724 0.78852046
-5.4998126 -34.905033 0.78807545
-5.4600186 -34.905186 0.78784698
-5.4204564 -34.905308 0.78793734
-5.3799205 -34.904827 0.78841096
-5.3395448 -34.903606 0.78971791
-5.299809 -34.903709 0.78960574
-5.2600083 -34.90379 0.78949285
-5.2201462 -34.9039 0.78938031
-5.1802187 -34.90398 0.78926736
-5.1402297 -34.904114 0.78915012
-5.1001797 -34.90427 0.78903103
-5.0600586 -34.904423 0.78891116
-5.0198727 -34.904583 0.78879136
-4.9796171 -34.904728 0.78867143
-4.9392948 -34.904884 0.78855127
-4.9008284 -34.905029 0.78843665
-4.8603725 -34.905186 0.78831595
-4.8198476 -34.905346 0.78819501
-4.77988 -34.905384 0.78832847
-4.7395792 -34.905655 0.78785998
-4.7001314 -34.905903 0.7876687
-4.6599622 -34.905834 0.78800511
-4.6194601 -34.90612 0.78747225
-4.5798044 -34.906273 0.78747755
-4.5407553 -34.906441 0.78736025
-4.5003152 -34.906597 0.78735936
-4.4595351 -34.906742 0.78708655
-4.4196348 -34.906933 0.7869004
-4.3799844 -34.907082 0.78687781
-4.3406096 -34.907242 0.78675991
-4.3001804 -34.907257 0.78693146
-4.2596931 -34.907558 0.78651792
-4.2197957 -34.907688 0.78636855
-4.1798234 -34.907875 0.78627819
-4.1401186 -34.908035 0.78615934
-4.1000185 -34.908195 0.78594249
-4.0604072 -34.906315 0.78943288
-4.0204458 -34.905926 0.78998119
-3.9905684 -34.905998 0.78989893
-5.9312115 -34.901321 0.81968027
-5.8998132 -34.901363 0.81961131
-5.8609772 -34.901405 0.81952566
-5.8202262 -34.901524 0.81943595
-5.7794075 -34.901592 0.81934607
-5.7403836 -34.90163 0.81925982
-5.7012963 -34.901699 0.81917417
-5.660295 -34.901829 0.81908381
-5.6192183 -34.901859 0.81899345
-5.5803294 -34.901905 0.8201943
-5.5406132 -34.902031 0.82071441
-5.4993467 -34.902096 0.82062483
-5.4598894 -34.902122 0.8205393
-5.4203696 -34.902218 0.82045406
-5.3789039 -34.902321 0.82036406
-5.3392596 -34.902348 0.82027835
-5.2995577 -34.902397 0.82019281
-5.2597847 -34.902531 0.82010627
-5.2199559 -34.902584 0.82001978
-5.1800642 -34.902622 0.81993324
-5.1401086 -34.902721 0.81984693
-5.1000881 -34.902809 0.81976026
-5.0600104 -34.90284 0.81967318
-5.0198698 -34.902908 0.81958687
-4.9796653 -34.903034 0.81949949
-4.939395 -34.903076 0.81941247
-4.9009867 -34.903118 0.8193292
-4.8605914 -34.903229 0.81924188
-4.820137 -34.903305 0.81915385
-4.7796168 -34.903339 0.81906676
-4.7390347 -34.903427 0.81897867
-4.7003255 -34.903522 0.81889457
-4.6591091 -34.903568 0.8197273
-4.6188426 -34.90361 0.82064724
-4.5799518 -34.90374 0.82056421
-4.5410008 -34.903801 0.82048148
-4.5000415 -34.903831 0.82039398
-4.4590149 -34.903934 0.8203066
-4.4198842 -34.904026 0.82022339
-4.380692 -34.904057 0.8201403
-4.3414412 -34.904102 0.8200562
-4.3001642 -34.904251 0.81996876
-4.2588224 -34.904293 0.8198806
-4.2193866 -34.904327 0.81979656
-4.1798921 -34.90443 0.81971258
-4.1403365 -34.904526 0.8196283
-4.1007209 -34.904549 0.81954408
-4.0612245 -34.904625 0.82119757
-4.0213118 -34.904739 0.8213262
-3.9914706 -34.904774 0.82126373
-5.9312119 -34.901325 0.86103481
-5.8998132 -34.901363 0.86099142
-5.8609776 -34.901405 0.86093801
-5.8202257 -34.901524 0.86088157
-5.779408 -34.901592 0.86082524
-5.7403846 -34.90163 0.8607713
-5.7012968 -34.901707 0.860717
-5.660295 -34.901825 0.86066049
-5.6192188 -34.901859 0.86060393
-5.579947 -34.901905 0.86054933
-5.5406132 -34.902023 0.86049527
-5.4993467 -34.902092 0.86043805
-5.4598894 -34.902126 0.86038369
-5.4203682 -34.902222 0.86032909
-5.3789039 -34.902321 0.86027181
-5.3392596 -34.902351 0.86021686
-5.2995577 -34.902397 0.86016208
-5.2597861 -34.902542 0.8601073
-5.2199564 -34.902576 0.86005217
-5.1800637 -34.902615 0.85999721
-5.1401072 -34.902725 0.85994166
-5.1000896 -34.902813 0.85988677
-5.0600109 -34.902836 0.85983109
-5.0198698 -34.902908 0.85977566
-4.9796638 -34.903034 0.85972023
-4.9393959 -34.903072 0.85966456
-4.9009862 -34.903114 0.85961157
-4.8605905 -34.903229 0.85955542
-4.8201375 -34.903305 0.85949975
-4.7796173 -34.903336 0.8594436
-4.7390347 -34.903423 0.85938776
-4.7003255 -34.903534 0.85933417
-4.6601162 -34.903568 0.86010969
-4.6188416 -34.903614 0.86115038
-4.5799503 -34.903744 0.86109793
-4.5410004 -34.903801 0.86104566
-4.500041 -34.903828 0.86099058
-4.4590149 -34.903927 0.86093539
-4.4198842 -34.904022 0.86088294
-4.380692 -34.904057 0.86083013
-4.3414412 -34.90411 0.8607775
-4.3001642 -34.904247 0.86072189
-4.258822 -34.904293 0.86066628
-4.2193871 -34.904327 0.86061317
-4.1798916 -34.904438 0.8605603
-4.1403365 -34.904518 0.86050707
-4.1007214 -34.904552 0.86045372
-4.0610471 -34.904625 0.86040062
-4.0213113 -34.904739 0.86034727
-3.9914706 -34.90477 0.86030698
-5.9315071 -34.901775 0.90050507
-5.8997216 -34.901852 0.9007808
-5.8606997 -34.901859 0.90034205
-5.8203001 -34.901966 0.9002834
-5.7796497 -34.902039 0.90041429
-5.740232 -34.902119 0.90068638
-5.7009649 -34.902134 0.90024614
-5.6603165 -34.902237 0.90018713
-5.6194096 -34.902309 0.90031862
-5.5799327 -34.902393 0.90046334
-5.5405989 -34.902443 0.90011519
-5.4994988 -34.902538 0.90024698
-5.4598303 -34.902592 0.90039212
-5.4203167 -34.902634 0.90004313
-5.3790183 -34.90276 0.90017492
-5.3393598 -34.90279 0.90015131
-5.2996454 -34.90284 0.90012747
-5.259861 -34.902962 0.90010369
-5.2200184 -34.903019 0.90007991
-5.1801147 -34.903065 0.90005612
-5.1401472 -34.903164 0.90003216
-5.1001148 -34.903244 0.90000826
-5.0600247 -34.903275 0.89998442
-5.0198708 -34.903343 0.89996046
-4.9796524 -34.90345 0.89993626
-4.9393725 -34.903515 0.89991212
-4.900949 -34.903557 0.89988929
-4.8605428 -34.903652 0.89986509
-4.8200774 -34.903725 0.89984101
-4.779727 -34.903744 0.89965826
-4.7391553 -34.90387 0.89996374
-4.7002292 -34.903954 0.89976937
-4.6598744 -34.903965 0.89946014
-4.619132 -34.904072 0.90002316
-4.5798197 -34.904148 0.89969736
-4.5408573 -34.904213 0.899674
-4.5000734 -34.904228 0.89949024
-4.4590516 -34.904366 0.89979726
-4.4197054 -34.90443 0.89960176
-4.3805022 -34.904476 0.89957833
-4.3412404 -34.904537 0.89955485
-4.3003316 -34.90461 0.89924318
-4.2591991 -34.904716 0.8996402
-4.2195473 -34.904739 0.89948201
-4.1798463 -34.904861 0.89963168
-4.1400795 -34.90493 0.89943457
-4.100451 -34.904953 0.89941102
-4.0607662 -34.905037 0.89938742
-4.0210209 -34.905148 0.89936346
-3.9911721 -34.905178 0.89934558
-5.900609 -34.951355 0.94422877
-5.8603396 -34.951412 0.94423985
-5.8200092 -34.95145 0.94425058
-5.7796187 -34.951546 0.9442609
-5.7391644 -34.951641 0.94427115
-5.7005773 -34.951675 0.9442811
-5.6600008 -34.951744 0.94429177
-5.6193628 -34.951851 0.94430262
-5.5811701 -34.951904 0.94338989
-5.5398335 -34.95195 0.94236052
-5.4990091 -34.952057 0.94236958
-5.4600687 -34.952133 0.94237852
-5.4210691 -34.952171 0.94238693
-5.3800578 -34.952251 0.94239652
-5.338984 -34.952339 0.9424057
-5.2998056 -34.952396 0.9424144
-5.2605677 -34.95245 0.94242316
-5.2212725 -34.952549 0.94243205
-5.1799526 -34.952629 0.94244123
-5.1385641 -34.952675 0.9424504
-5.0990849 -34.952766 0.94245911
-5.0595512 -34.952847 0.94246787
-5.0199552 -34.952892 0.94247705
-4.9803023 -34.952961 0.94248551
-4.9405885 -34.95306 0.94249439
-4.900816 -34.953117 0.94250357
-4.8609838 -34.953171 0.94251233
-4.8210926 -34.953259 0.94252139
-4.7811418 -34.953346 0.94253045
-4.7411299 -34.953381 0.9425391
-4.701057 -34.953461 0.94254816
-4.6609249 -34.95356 0.94255686
-4.6207323 -34.953613 0.94256604
-4.5804782 -34.953671 0.9425751
-4.5401673 -34.953762 0.94258392
-4.4997926 -34.953846 0.9425931
-4.4593577 -34.953884 0.94260186
-4.4188614 -34.953987 0.94261122
-4.3783064 -34.954063 0.94262064
-4.3397188 -34.954109 0.94262886
-4.3010769 -34.954166 0.94263744
-4.2603412 -34.954277 0.9426465
-4.2195435 -34.954338 0.94265574
-4.1786823 -34.954384 0.94266492
-4.139812 -34.954475 0.94267339
-4.1008821 -34.954563 0.94268209
-4.0598416 -34.954601 0.94269115
-4.0187411 -34.954689 0.94270074
-5.9351959 -34.911793 0.92312759
-5.899714 -34.911789 0.92310154
-5.8605766 -34.911419 0.92291749
-5.8204441 -34.911686 0.92300087
-5.779314 -34.911751 0.92299461
-5.7399931 -34.911804 0.92298877
-5.7006116 -34.911858 0.92298299
-5.6592898 -34.911919 0.92297691
-5.6197853 -34.911972 0.92297107
-5.5802193 -34.912029 0.92296511
-5.5396161 -34.911869 0.92286944
-5.4999933 -34.912361 0.92304313
-5.4601922 -34.911983 0.92285764
-5.4204226 -34.912479 0.92303151
-5.3805227 -34.912094 0.92284572
-5.3406072 -34.91259 0.92301977
-5.3006091 -34.912205 0.92283386
-5.2605453 -34.912701 0.92300826
-5.2204499 -34.912323 0.92282176
-5.1802363 -34.912819 0.9229964
-5.1400428 -34.912437 0.92280978
-5.1006761 -34.912712 0.9228943
-5.0603123 -34.912766 0.9228884
-5.019887 -34.912827 0.92288244
-4.9803252 -34.912663 0.92278582
-4.9398484 -34.913162 0.92296118
-4.9001665 -34.912998 0.92286474
-4.8604431 -34.91283 0.92276794
-4.8197441 -34.913334 0.92294377
-4.7798986 -34.913162 0.92284691
-4.7400112 -34.912998 0.92274994
-4.7000694 -34.91328 0.92283505
-4.6600475 -34.913555 0.92292041
-4.6199841 -34.913391 0.92282331
-4.5798788 -34.913227 0.92272604
-4.5396681 -34.913506 0.92281139
-4.5003972 -34.913563 0.92280561
-4.4610682 -34.913616 0.92279977
-4.4206514 -34.913448 0.92270213
-4.3793159 -34.91396 0.92287934
-4.3387752 -34.913795 0.92278177
-4.2992043 -34.913841 0.92277586
-4.2595758 -34.913902 0.92277002
-4.2198868 -34.91396 0.92276412
-4.1801386 -34.914021 0.92275822
-4.1403322 -34.914078 0.92275238
-4.1004648 -34.914131 0.92274648
-4.0605378 -34.914188 0.92274058
-4.0205507 -34.914246 0.92273486
-3.9873266 -34.914658 0.92287898
-5.940814 -34.951221 0.98122287
-5.900609 -34.951359 0.98126161
-5.8603387 -34.951412 0.98130071
-5.8200102 -34.951447 0.98133987
-5.7796197 -34.951557 0.98137879
-5.7391639 -34.951637 0.98141831
-5.7005782 -34.951668 0.98145574
-5.6600022 -34.951736 0.9814952
-5.6193624 -34.951859 0.98153466
-5.5801368 -34.951904 0.9805451
-5.5398345 -34.951942 0.97964913
-5.4990096 -34.952068 0.97968704
-5.4600682 -34.952137 0.97972357
-5.4210706 -34.952168 0.97975975
-5.3800588 -34.952232 0.97979826
-5.3389835 -34.952358 0.97983652
-5.2998056 -34.952393 0.97987318
-5.2605681 -34.952438 0.97990942
-5.2212725 -34.952564 0.97994626
-5.1799512 -34.952629 0.97998488
-5.1385632 -34.952663 0.98002326
-5.0990858 -34.952759 0.98006016
-5.0595512 -34.952858 0.98009712
-5.0199556 -34.952885 0.98013407
-4.980762 -34.952938 0.97902596
-4.9405885 -34.953068 0.9782235
-4.900816 -34.953117 0.97825891
-4.8609838 -34.953163 0.97829431
-4.8210931 -34.953262 0.97833014
-4.7811422 -34.95335 0.97836614
-4.7411294 -34.953381 0.97840172
-4.701057 -34.953457 0.97843766
-4.6609254 -34.953568 0.97847348
-4.6207333 -34.953613 0.97850937
-4.5804772 -34.953651 0.97854561
-4.5401673 -34.953773 0.97858149
-4.4997926 -34.953846 0.97861785
-4.4593577 -34.953876 0.97865415
-4.4188623 -34.953972 0.97869027
-4.3783073 -34.954071 0.97872663
-4.3397193 -34.954105 0.9787612
-4.3010759 -34.954155 0.97879583
-4.2603416 -34.954285 0.97883219
-4.2195439 -34.954342 0.97886878
-4.1786819 -34.954384 0.97890532
-4.1398125 -34.954464 0.97893989
-4.1008821 -34.954567 0.978975
-4.0598412 -34.954597 0.97901177
-4.0187397 -34.954681 0.97904867
-3.9796386 -34.954781 0.97908348
-5.940814 -34.951221 1.0201741
-5.900609 -34.951359 1.020243
-5.8603392 -34.951412 1.0203125
-5.8200111 -34.951447 1.0203813
-5.7796178 -34.95155 1.0204509
-5.7391639 -34.951637 1.0205202
-5.7005782 -34.951668 1.0205867
-5.6600008 -34.95174 1.0206565
-5.6193624 -34.951855 1.0207262
-5.5805993 -34.9519 1.0207925
-5.5398345 -34.951942 1.0208626
-5.4990096 -34.952057 1.0209324
-5.4600677 -34.952133 1.0209992
-5.4210701 -34.952164 1.0210665
-5.3800588 -34.952236 1.0211369
-5.3389835 -34.952358 1.0212073
-5.2998052 -34.952396 1.0212748
-5.2605677 -34.952442 1.0213418
-5.2212725 -34.952564 1.0214097
-5.1799517 -34.952629 1.0214801
-5.1385636 -34.952667 1.0215516
-5.0990858 -34.952763 1.0216192
-5.0595517 -34.95285 1.0216869
-5.0199547 -34.952888 1.0217552
-4.9798555 -34.952946 1.0205889
-4.9405894 -34.953079 1.0199065
-4.9008155 -34.953121 1.0199732
-4.8609834 -34.953156 1.0200404
-4.8215675 -34.953262 1.0191587
-4.7811418 -34.953354 1.0181829
-4.7411294 -34.953377 1.0182493
-4.701057 -34.953453 1.0183145
-4.6609254 -34.953564 1.0183809
-4.6207333 -34.953617 1.0184464
-4.5804768 -34.953659 1.0185128
-4.5401669 -34.953777 1.018579
-4.4997921 -34.953846 1.0186454
-4.4593577 -34.95388 1.018712
-4.4188619 -34.953968 1.0187781
-4.3783073 -34.954075 1.0188447
-4.3397188 -34.954105 1.0189079
-4.3010759 -34.954155 1.0189717
-4.2603416 -34.954281 1.0190382
-4.2195439 -34.954342 1.0191054
-4.1786819 -34.954376 1.0191725
-4.139812 -34.954483 1.0192364
-4.1008821 -34.954567 1.0193002
-4.0598407 -34.954597 1.0193679
-4.0187407 -34.954674 1.0194353
-3.9796391 -34.954781 1.0194997
-5.940814 -34.951225 1.0591255
-5.9006104 -34.951359 1.0592247
-5.8603387 -34.951412 1.059324
-5.8200111 -34.951443 1.0594233
-5.7796197 -34.951546 1.0595229
-5.7391644 -34.951641 1.0596224
-5.7005787 -34.951672 1.0597174
-5.6600008 -34.951736 1.0598176
-5.6193614 -34.951855 1.0599176
-5.5805984 -34.9519 1.0600131
-5.5398355 -34.951939 1.0601135
-5.4990096 -34.952068 1.0602142
-5.4600682 -34.952133 1.06031
-5.4210691 -34.952168 1.0604061
-5.3800588 -34.95224 1.0605072
-5.3389845 -34.952354 1.0606083
-5.2998052 -34.952396 1.0607047
-5.2605677 -34.952442 1.0608015
-5.2212739 -34.952568 1.0608983
-5.1799512 -34.952629 1.0610001
-5.1385646 -34.952667 1.061102
-5.0990858 -34.952763 1.0611993
-5.0595512 -34.952858 1.0612966
-5.0199547 -34.952888 1.0613942
-4.9803038 -34.952953 1.0614917
-4.9405885 -34.953075 1.0615896
-4.9008155 -34.953121 1.0616877
-4.8609843 -34.953156 1.0617858
-4.8206177 -34.95327 1.0608432
-4.7811418 -34.953346 1.0599916
-4.7415919 -34.953377 1.058938
-4.701057 -34.953457 1.0581923
-4.6609254 -34.953571 1.058288
-4.6207333 -34.953617 1.0583839
-4.5804768 -34.953659 1.0584803
-4.5401669 -34.953766 1.0585765
-4.4997921 -34.953846 1.0586729
-4.4593573 -34.953873 1.0587695
-4.4188623 -34.953976 1.0588661
-4.3783073 -34.954071 1.0589631
-4.3397193 -34.954105 1.0590552
-4.3010759 -34.954155 1.0591476
-4.2603416 -34.954285 1.0592448
-4.219543 -34.954342 1.0593424
-4.1786819 -34.954376 1.0594401
-4.139812 -34.954472 1.0595326
-4.1008816 -34.954567 1.0596257
-4.0598412 -34.954601 1.0597237
-4.0187397 -34.954674 1.0598217
-3.9796386 -34.954781 1.0599152
-5.90061 -34.951366 1.1001555
-5.8603396 -34.951408 1.1002861
-5.8201704 -34.951447 1.1002375
-5.7796183 -34.951553 1.0985948
-5.7391644 -34.951641 1.0987245
-5.7005782 -34.951672 1.0988485
-5.6600027 -34.951736 1.098979
-5.6193624 -34.951855 1.0991092
-5.5805988 -34.951904 1.0992336
-5.539835 -34.951939 1.0993645
-5.4990087 -34.952065 1.0994955
-5.4600682 -34.952133 1.0996205
-5.4210691 -34.952164 1.0997456
-5.3800578 -34.952255 1.0998774
-5.3389835 -34.952358 1.1000093
-5.2998061 -34.952396 1.1001351
-5.2605677 -34.952442 1.1002609
-5.2212739 -34.952564 1.1003871
-5.1799512 -34.952629 1.1005198
-5.1385646 -34.952667 1.1006523
-5.0990858 -34.952755 1.1007794
-5.0595512 -34.952854 1.1009064
-5.0199547 -34.952888 1.1010333
-4.9803038 -34.952953 1.1011605
-4.940588 -34.953075 1.1012882
-4.900815 -34.953121 1.1014158
-4.8609834 -34.953163 1.1015437
-4.8210926 -34.953259 1.1016717
-4.7811418 -34.953354 1.1017998
-4.7406764 -34.953377 1.1006892
-4.7015343 -34.953449 1.0991119
-4.6609254 -34.953575 1.0981951
-4.6207333 -34.953613 1.098321
-4.5804763 -34.953659 1.0984472
-4.5401669 -34.953773 1.0985736
-4.4997921 -34.953846 1.0987003
-4.4593568 -34.953876 1.098827
-4.4188623 -34.953968 1.098954
-4.3783073 -34.954075 1.0990813
-4.3397188 -34.954105 1.0992023
-4.3010759 -34.954151 1.0993234
-4.2603416 -34.954288 1.0994513
-4.2195435 -34.954338 1.099579
-4.1786819 -34.954372 1.0997071
-4.139812 -34.954483 1.0998291
-4.1008816 -34.954563 1.0999513
-4.0598412 -34.954601 1.1000799
-4.0187397 -34.95467 1.1002086
-5.900609 -34.951359 1.1410859
-5.8603401 -34.951408 1.1412485
-5.8198395 -34.951447 1.1411988
-5.7796192 -34.951561 1.1396198
-5.7391648 -34.951641 1.1397817
-5.7005787 -34.951668 1.1399361
-5.6600013 -34.951729 1.1400981
-5.6193614 -34.951866 1.1402603
-5.5810452 -34.9519 1.1392814
-5.5398355 -34.951935 1.1386153
-5.4990101 -34.952072 1.1387765
-5.4600682 -34.952133 1.1389313
-5.4210691 -34.952164 1.1390855
-5.3800578 -34.952248 1.1392473
-5.3389835 -34.952358 1.13941
-5.2998052 -34.952396 1.1395652
-5.2605677 -34.952442 1.1397204
-5.2212734 -34.95256 1.1398757
-5.1799512 -34.952629 1.1400391
-5.1385636 -34.952667 1.1402031
-5.0990858 -34.952755 1.1403592
-5.0595512 -34.952854 1.1405156
-5.0199547 -34.952888 1.1406723
-4.9803047 -34.952946 1.1408294
-4.9405885 -34.953075 1.1409867
-4.900816 -34.953121 1.1411439
-4.8609834 -34.953159 1.1413015
-4.8210926 -34.953262 1.1414595
-4.7811418 -34.95335 1.1416168
-4.7411289 -34.953381 1.1417756
-4.7005796 -34.953453 1.1408914
-4.6612401 -34.953575 1.1385314
-4.6207333 -34.953613 1.1382585
-4.5804763 -34.953655 1.1384145
-4.5401664 -34.953773 1.1385711
-4.4997926 -34.953846 1.1387277
-4.4593577 -34.95388 1.1388844
-4.4188619 -34.953972 1.1390423
-4.3783073 -34.954071 1.1391993
-4.3397188 -34.954109 1.1393493
-4.3010759 -34.954155 1.1394995
-4.2603416 -34.954281 1.1396577
-4.2195435 -34.954342 1.1398158
-4.1786819 -34.954376 1.1399745
-4.1398129 -34.954468 1.1401252
-4.1008816 -34.954559 1.1402764
-4.0598412 -34.954597 1.1404361
-4.0187397 -34.95467 1.1405952
-5.9006085 -34.951359 1.1800675
-5.8603401 -34.951412 1.1802598
-5.8200102 -34.951454 1.1804527
-5.7796187 -34.951561 1.1806455
-5.7391644 -34.951641 1.1808388
-5.7005787 -34.951668 1.1810234
-5.6600013 -34.95174 1.1812171
-5.6193614 -34.951859 1.1814114
-5.5801592 -34.9519 1.1803775
-5.539835 -34.951942 1.1798288
-5.4990096 -34.952065 1.1800225
-5.4600673 -34.952137 1.1802069
-5.4213753 -34.952164 1.1788476
-5.3800592 -34.952244 1.1786177
-5.3389835 -34.952358 1.1788108
-5.2998052 -34.952396 1.1789953
-5.2605677 -34.952442 1.1791798
-5.2212725 -34.95256 1.1793647
-5.1799517 -34.952633 1.179559
-5.1385636 -34.952667 1.1797538
-5.0990858 -34.952763 1.1799394
-5.0595503 -34.952858 1.1801252
-5.0199537 -34.952888 1.1803116
-4.9803038 -34.952946 1.1804981
-4.9405885 -34.953072 1.1806847
-4.900816 -34.953121 1.1808721
-4.8609834 -34.953159 1.1810592
-4.8210926 -34.953259 1.1812469
-4.7811418 -34.953354 1.1814346
-4.7411289 -34.953377 1.181623
-4.701057 -34.953457 1.1818115
-4.6610208 -34.953579 1.1798141
-4.6207333 -34.953613 1.1781956
-4.5804763 -34.953663 1.1783817
-4.5401669 -34.95377 1.1785685
-4.4997926 -34.953846 1.1787555
-4.4593573 -34.95388 1.1789424
-4.4188623 -34.953964 1.1791301
-4.3783073 -34.954071 1.1793178
-4.3397193 -34.954105 1.1794963
-4.3010759 -34.954155 1.1796751
-4.2603416 -34.954288 1.1798636
-4.219543 -34.954338 1.1800526
-4.1786819 -34.954376 1.1802418
-4.139812 -34.954479 1.1804216
-4.1008816 -34.954567 1.1806018
-4.0598412 -34.954601 1.1807917
-4.0187397 -34.954674 1.1809821
-5.9006085 -34.951359 1.2190491
-5.8603392 -34.951408 1.2192715
-5.8200111 -34.951447 1.2194943
-5.7796192 -34.95155 1.2197175
-5.7391644 -34.951637 1.2199409
-5.7005787 -34.951668 1.2201543
-5.6600008 -34.951736 1.2203783
-5.6193614 -34.951859 1.2206029
-5.5805993 -34.9519 1.2208172
-5.5398345 -34.951942 1.2210424
-5.4990087 -34.952065 1.2212675
-5.4600677 -34.952137 1.2214831
-5.4207807 -34.952164 1.2200971
-5.3800597 -34.95224 1.2199564
-5.3389835 -34.95237 1.2201818
-5.2998052 -34.952396 1.2184258
-5.2605677 -34.952442 1.218639
-5.2212734 -34.952564 1.2188534
-5.1799517 -34.952629 1.2190784
-5.1385636 -34.952663 1.2193043
-5.0990849 -34.952759 1.2195194
-5.0595508 -34.952854 1.2197351
-5.0199547 -34.952888 1.2199507
-4.9803042 -34.952942 1.2201667
-4.940588 -34.953075 1.2203833
-4.9008155 -34.953121 1.2206
-4.8609829 -34.953159 1.220817
-4.8210921 -34.953259 1.2210345
-4.7811418 -34.95335 1.2212521
-4.7411294 -34.953381 1.2214702
-4.7010565 -34.953461 1.2216889
-4.6605158 -34.953571 1.2212701
-4.6209121 -34.953617 1.2183492
-4.5804768 -34.953659 1.2183486
-4.5401669 -34.953773 1.2185658
-4.4997926 -34.953846 1.2187828
-4.4593568 -34.95388 1.2190003
-4.4188619 -34.953972 1.219218
-4.3783073 -34.954071 1.2194363
-4.3397183 -34.954105 1.2196434
-4.3010755 -34.954159 1.2198509
-4.2603416 -34.954285 1.2200701
-4.219543 -34.954342 1.2202892
-4.1786819 -34.954376 1.2205091
-4.139812 -34.954464 1.2207175
-4.1008811 -34.954563 1.2209274
-4.0598412 -34.954597 1.2211477
-4.0187397 -34.95467 1.2213687
-5.900609 -34.951363 1.2599798
-5.8603392 -34.951412 1.2602339
-5.8204713 -34.951443 1.2595559
-5.7796192 -34.95155 1.2587894
-5.7391648 -34.951637 1.2590429
-5.7005782 -34.951668 1.259285
-5.6600003 -34.95174 1.2595401
-5.6193624 -34.951862 1.2597942
-5.5805993 -34.951904 1.2600377
-5.5398345 -34.951946 1.2602932
-5.4990096 -34.952065 1.2605491
-5.4600682 -34.952137 1.2607937
-5.4210691 -34.952164 1.2610382
-5.3800588 -34.95224 1.2612954
-5.3389831 -34.952347 1.2615527
-5.2998052 -34.952396 1.2598268
-5.2605686 -34.952435 1.260072
-5.221674 -34.952564 1.2589722
-5.1799512 -34.952629 1.2585981
-5.1385636 -34.952667 1.2588546
-5.0990844 -34.952755 1.2590995
-5.0595508 -34.95285 1.2593442
-5.0199537 -34.952888 1.2595897
-4.9803038 -34.952946 1.2598352
-4.9405885 -34.953072 1.2600815
-4.900816 -34.953121 1.2603282
-4.8609834 -34.953159 1.2605748
-4.8210926 -34.95327 1.2608222
-4.7811418 -34.95335 1.2610697
-4.7411299 -34.953381 1.2613174
-4.7010565 -34.953453 1.261566
-4.6609254 -34.953579 1.2618146
-4.621026 -34.953609 1.2590953
-4.5804763 -34.953659 1.2583162
-4.5401669 -34.953773 1.258563
-4.4997921 -34.95385 1.25881
-4.4593577 -34.95388 1.2590579
-4.4188614 -34.953968 1.259306
-4.3783073 -34.954071 1.2595541
-4.3397188 -34.954105 1.2597904
-4.301075 -34.954159 1.2600268
-4.2603416 -34.954288 1.2602763
-4.219543 -34.954338 1.2605259
-4.1786814 -34.954376 1.2607762
-4.1398125 -34.954479 1.2610142
-4.1008811 -34.954567 1.2612526
-4.0598412 -34.954601 1.2615038
-4.0190759 -34.95467 1.2613825
-5.90061 -34.951359 1.3009104
-5.8603392 -34.951412 1.3011959
-5.8195534 -34.95145 1.3004624
-5.7796173 -34.951538 1.2998149
-5.7391639 -34.951641 1.3001
-5.7009573 -34.951668 1.2998214
-5.6600022 -34.95174 1.2987008
-5.6193614 -34.951859 1.2989856
-5.5805988 -34.9519 1.2992582
-5.5398355 -34.951939 1.2995441
-5.4990087 -34.952068 1.2998307
-5.4600682 -34.952137 1.3001039
-5.4210687 -34.952164 1.3003778
-5.3800583 -34.952236 1.3006653
-5.3389826 -34.952351 1.3009539
-5.2998042 -34.952396 1.3012286
-5.2605681 -34.952446 1.301504
-5.2208872 -34.952564 1.3003615
-5.1799507 -34.952629 1.3000941
-5.1385636 -34.952667 1.2984054
-5.0990849 -34.952763 1.2986792
-5.0595508 -34.95285 1.298954
-5.0199547 -34.952888 1.299229
-4.9803033 -34.952946 1.299504
-4.9405885 -34.953068 1.29978
-4.900816 -34.953121 1.3000561
-4.8609829 -34.953159 1.3003328
-4.8210921 -34.953262 1.3006097
-4.7811418 -34.953354 1.3008871
-4.7411284 -34.953381 1.3011651
-4.701057 -34.953453 1.3014432
-4.6609254 -34.953571 1.3017219
-4.6207328 -34.953613 1.3000035
-4.5804763 -34.953655 1.2982833
-4.5401669 -34.953773 1.2985605
-4.4997926 -34.953846 1.298838
-4.4593568 -34.953876 1.2991154
-4.4188609 -34.953976 1.2993938
-4.3783073 -34.954071 1.2996722
-4.3397188 -34.954105 1.2999375
-4.3010759 -34.954155 1.3002031
-4.2603416 -34.954288 1.3004826
-4.219543 -34.954342 1.3007628
-4.1786819 -34.95438 1.3010437
-4.139811 -34.954472 1.3013108
-4.1008811 -34.954559 1.301578
-4.0603652 -34.954597 1.300697
-4.0183821 -34.954678 1.2996863
-5.900609 -34.951363 1.3398923
-5.8603382 -34.951412 1.3402075
-5.8200111 -34.951443 1.3405234
-5.7796192 -34.951538 1.3408403
-5.7391648 -34.951641 1.3411576
-5.7001848 -34.951668 1.3408358
-5.6600013 -34.951733 1.3398204
-5.6193609 -34.95187 1.3401372
-5.5809932 -34.951904 1.3391032
-5.5398355 -34.951935 1.3387953
-5.4990087 -34.952065 1.3391119
-5.4600692 -34.952137 1.3394141
-5.4210691 -34.952164 1.3397175
-5.3800588 -34.952251 1.3400357
-5.3389826 -34.952358 1.3403546
-5.2998052 -34.952396 1.340659
-5.2605681 -34.952442 1.3409636
-5.2212739 -34.952564 1.3412684
-5.1799512 -34.952629 1.3415902
-5.1385641 -34.952663 1.3399335
-5.0995412 -34.952759 1.339093
-5.0595508 -34.952858 1.3385636
-5.0199537 -34.952888 1.3388679
-4.9803038 -34.952946 1.339173
-4.9405885 -34.953072 1.3394783
-4.9008155 -34.953121 1.3397844
-4.8609824 -34.953159 1.3400908
-4.8210926 -34.953266 1.3403969
-4.7811418 -34.953354 1.3407044
-4.7411289 -34.953381 1.3410126
-4.701057 -34.953453 1.3413204
-4.6609254 -34.953571 1.3416286
-4.6205754 -34.953613 1.3407251
-4.5804763 -34.953659 1.3382506
-4.5401669 -34.953781 1.3385581
-4.4997926 -34.95385 1.3388655
-4.4593577 -34.95388 1.3391739
-4.4188604 -34.953972 1.3394814
-4.3783069 -34.954071 1.3397903
-4.3397183 -34.954105 1.3400844
-4.3010755 -34.954151 1.3403785
-4.2603416 -34.954288 1.3406889
-4.219543 -34.954342 1.3409991
-4.1786819 -34.954372 1.341311
-4.1398115 -34.954475 1.3416066
-4.1013436 -34.954559 1.340534
-4.0593286 -34.954601 1.3389407
-4.0187397 -34.95467 1.3384906
-5.90061 -34.951359 1.3788733
-5.8603387 -34.951412 1.3792193
-5.8200111 -34.95145 1.3795655
-5.7796192 -34.951546 1.3799124
-5.7391644 -34.951637 1.3802598
-5.7005773 -34.951668 1.3805913
-5.6600022 -34.951736 1.3809389
-5.6193624 -34.951862 1.3812881
-5.5802174 -34.9519 1.3802131
-5.539835 -34.951942 1.3800087
-5.4994717 -34.952068 1.3794183
-5.4600682 -34.952133 1.3787248
-5.4210701 -34.95216 1.379057
-5.3800592 -34.952251 1.3794063
-5.3389835 -34.952354 1.3797555
-5.2998047 -34.952396 1.3800892
-5.2605681 -34.952442 1.3804229
-5.2212725 -34.95256 1.3807575
-5.1799512 -34.952633 1.3811089
-5.1385636 -34.952667 1.3814616
-5.0986376 -34.952759 1.3805687
-5.0599985 -34.952854 1.3794022
-5.0199552 -34.952888 1.3785069
-4.9803038 -34.95295 1.3788415
-4.940588 -34.953075 1.379177
-4.900816 -34.953121 1.3795123
-4.8609834 -34.953156 1.3798484
-4.8210931 -34.953278 1.3801848
-4.7811422 -34.953354 1.380522
-4.7411289 -34.953377 1.3808595
-4.701057 -34.953461 1.3811977
-4.6609254 -34.953571 1.3815362
-4.620594 -34.953613 1.3812633
-4.5804763 -34.953663 1.3782181
-4.5401664 -34.953773 1.3785549
-4.4997921 -34.95385 1.3788927
-4.4593573 -34.95388 1.3792311
-4.4188619 -34.953976 1.3795695
-4.3783073 -34.954071 1.3799089
-4.3397188 -34.954105 1.3802317
-4.301075 -34.954159 1.3805543
-4.2603412 -34.954285 1.3808953
-4.219543 -34.954342 1.3812366
-4.1786819 -34.95438 1.3815782
-4.1402507 -34.954475 1.3806044
-4.1004376 -34.954559 1.3787607
-4.0598407 -34.954597 1.3785362
-4.0187392 -34.954681 1.3788773
-5.900609 -34.951366 1.419804
-5.8603392 -34.951412 1.4201814
-5.8204026 -34.951443 1.4192286
-5.7796187 -34.951546 1.4189842
-5.7391644 -34.951641 1.4193616
-5.7005787 -34.951672 1.4197218
-5.6600008 -34.951736 1.4201006
-5.6193624 -34.951866 1.4204799
-5.5805984 -34.9519 1.4208413
-5.5398335 -34.951946 1.4212222
-5.4985461 -34.952061 1.4205785
-5.4600673 -34.952137 1.4200009
-5.4215198 -34.952164 1.4192246
-5.3800592 -34.952251 1.4187764
-5.3389845 -34.952354 1.4191566
-5.2998052 -34.952396 1.4195191
-5.2605677 -34.952442 1.4198828
-5.2212734 -34.952564 1.4202458
-5.1799512 -34.952633 1.4206287
-5.1385636 -34.952667 1.4210123
-5.0990849 -34.952766 1.4213773
-5.059094 -34.952854 1.4209094
-5.0204034 -34.952888 1.419376
-4.9803038 -34.952946 1.41851
-4.9405885 -34.953075 1.4188752
-4.900816 -34.953121 1.4192406
-4.8609829 -34.953159 1.419606
-4.8210921 -34.953266 1.4199725
-4.7811418 -34.953346 1.4203392
-4.7411289 -34.953381 1.4207072
-4.7010565 -34.953453 1.421075
-4.6609259 -34.953568 1.4214436
-4.620554 -34.953617 1.4215964
-4.5806556 -34.953655 1.4184011
-4.5401664 -34.953773 1.4185528
-4.4997931 -34.953846 1.4189203
-4.4593568 -34.95388 1.419289
-4.4188619 -34.953968 1.4196576
-4.3783073 -34.954075 1.4200273
-4.3397188 -34.954109 1.4203789
-4.3010755 -34.954155 1.4207305
-4.2603416 -34.954285 1.4211017
-4.219543 -34.954342 1.4214733
-4.179193 -34.954376 1.4210855
-4.1393881 -34.954479 1.4187989
-4.1008816 -34.954563 1.4185213
-4.0598412 -34.954601 1.4188924
-4.0187402 -34.954674 1.4192637
-5.9006085 -34.951359 1.4607347
-5.8603401 -34.951408 1.4611435
-5.8196344 -34.951443 1.460152
-5.7796197 -34.951546 1.4600098
-5.7396011 -34.951641 1.4596766
-5.7005787 -34.951668 1.4588529
-5.6600008 -34.95174 1.4592617
-5.6193614 -34.951855 1.4596716
-5.5805984 -34.9519 1.4600618
-5.539835 -34.951942 1.4604725
-5.4990096 -34.952065 1.460885
-5.4600682 -34.952133 1.4612771
-5.4206285 -34.952168 1.4604495
-5.3802214 -34.952248 1.4599499
-5.3389845 -34.952362 1.4585575
-5.2998052 -34.952396 1.4589493
-5.2605681 -34.952446 1.459342
-5.2212734 -34.95256 1.4597349
-5.1799521 -34.952629 1.4601483
-5.1385636 -34.952671 1.4605631
-5.0990858 -34.952763 1.4609575
-5.0595508 -34.95285 1.4613537
-5.0194974 -34.952888 1.4609153
-4.9807763 -34.952938 1.4592131
-4.9405885 -34.953075 1.4585735
-4.900815 -34.953121 1.4589686
-4.8609829 -34.953159 1.4593638
-4.8210926 -34.953266 1.4597604
-4.7811418 -34.95335 1.4601567
-4.7411289 -34.953381 1.4605544
-4.701056 -34.953457 1.4609522
-4.6609254 -34.953568 1.4613507
-4.6207323 -34.953617 1.4617496
-4.580616 -34.953663 1.4587644
-4.5401664 -34.953777 1.4585501
-4.4997926 -34.95385 1.4589478
-4.4593577 -34.953884 1.4593463
-4.4188609 -34.953972 1.4597458
-4.3783069 -34.954071 1.4601451
-4.3397183 -34.954109 1.4605255
-4.301075 -34.954159 1.4609064
-4.2603412 -34.954281 1.4613076
-4.2197289 -34.954342 1.4615251
-4.1781602 -34.954384 1.4592475
-4.139811 -34.954472 1.4584657
-4.1008816 -34.954563 1.4588467
-4.0598407 -34.954601 1.4592487
-4.0187397 -34.954674 1.4596503
-5.900609 -34.951359 1.4997165
-5.8603392 -34.951412 1.5001552
-5.8200121 -34.951447 1.5005946
-5.7796187 -34.951546 1.5010352
-5.738719 -34.951645 1.5006535
-5.7005787 -34.951668 1.4999404
-5.6605024 -34.95174 1.4995315
-5.6193614 -34.951859 1.4988627
-5.5805984 -34.9519 1.4992824
-5.5398345 -34.951946 1.4997243
-5.4990096 -34.952061 1.5001657
-5.4600677 -34.952133 1.5005875
-5.4210691 -34.952164 1.5010097
-5.3798828 -34.952251 1.5012608
-5.3389826 -34.952362 1.4999285
-5.3002052 -34.952396 1.4990065
-5.2605677 -34.952438 1.4988016
-5.2212734 -34.952564 1.4992236
-5.1799517 -34.952629 1.4996684
-5.1385632 -34.952667 1.5001134
-5.0990858 -34.952759 1.5005378
-5.0595503 -34.952854 1.5009629
-5.0199542 -34.952885 1.5013882
-4.9798322 -34.952942 1.5007808
-4.9409933 -34.953075 1.4989036
-4.9008155 -34.953121 1.4986966
-4.8609829 -34.953167 1.4991221
-4.8210921 -34.953251 1.4995475
-4.7811418 -34.953346 1.4999744
-4.7411284 -34.953381 1.5004017
-4.701057 -34.953453 1.5008295
-4.6609249 -34.953568 1.5012579
-4.6207328 -34.953613 1.501687
-4.5805759 -34.953659 1.499128
-4.5401669 -34.95377 1.4985473
-4.4997921 -34.953846 1.4989755
-4.4593568 -34.95388 1.4994044
-4.4188604 -34.953976 1.4998333
-4.3783073 -34.954075 1.5002637
-4.3397188 -34.954105 1.5006725
-4.3010759 -34.954155 1.5010824
-4.2603412 -34.954285 1.501514
-4.2198653 -34.954342 1.5005668
-4.1786819 -34.954376 1.4983536
-4.139811 -34.954487 1.4987621
-4.1008811 -34.954559 1.4991722
-4.0598407 -34.954597 1.4996043
-4.0187397 -34.954674 1.5000372
-5.9009099 -34.951363 1.5391144
-5.8603392 -34.951408 1.539166
-5.8200097 -34.951447 1.539637
-5.7796183 -34.95155 1.5401076
-5.7391644 -34.951637 1.5405784
-5.7005782 -34.951668 1.541028
-5.6594973 -34.951729 1.5405695
-5.6193619 -34.95187 1.5400141
-5.5809941 -34.9519 1.5391262
-5.5398345 -34.951939 1.5389745
-5.4990096 -34.952065 1.5394478
-5.4600682 -34.952133 1.5398979
-5.4210691 -34.952164 1.5403502
-5.3800588 -34.952255 1.5408235
-5.3389831 -34.952354 1.5412997
-5.2994208 -34.952396 1.5403386
-5.261013 -34.952442 1.5394841
-5.2212734 -34.95256 1.5387123
-5.1799507 -34.952629 1.5391885
-5.1385636 -34.952667 1.5396641
-5.0990844 -34.95277 1.5401181
-5.0595503 -34.952854 1.540573
-5.0199547 -34.952885 1.5410275
-4.9803033 -34.952946 1.5414828
-4.9403639 -34.953075 1.5403323
-4.900816 -34.953125 1.5384243
-4.8609834 -34.953163 1.53888
-4.8210931 -34.95327 1.5393357
-4.7811422 -34.95335 1.5397923
-4.7411284 -34.953381 1.540249
-4.701057 -34.953457 1.5407066
-4.6609249 -34.953568 1.5411649
-4.6207333 -34.953613 1.5416242
-4.5805364 -34.953655 1.5394908
-4.5401669 -34.953777 1.5385451
-4.4997921 -34.953846 1.5390029
-4.4593568 -34.953884 1.539462
-4.4188604 -34.953976 1.5399214
-4.3783069 -34.954071 1.5403825
-4.3397188 -34.954105 1.5408198
-4.301075 -34.954159 1.5412588
-4.2605267 -34.954277 1.5415361
-4.2190328 -34.954342 1.5389198
-4.1786819 -34.954376 1.5386206
-4.139811 -34.954472 1.5390593
-4.1008811 -34.954563 1.5394986
-4.0598412 -34.954601 1.5399605
-4.0187392 -34.954674 1.5404238
-5.9003258 -34.951366 1.5799932
-5.8603392 -34.95142 1.580129
-5.8203125 -34.95145 1.5790951
-5.7796183 -34.95155 1.579179
-5.7391648 -34.951637 1.5796802
-5.7005782 -34.951668 1.5801586
-5.6600008 -34.951744 1.5806615
-5.6193624 -34.951859 1.5811653
-5.5802174 -34.951904 1.5802387
-5.5401287 -34.951939 1.579855
-5.4990096 -34.952065 1.5787283
-5.4600682 -34.952137 1.5792085
-5.4210701 -34.952164 1.579689
-5.3800583 -34.952259 1.5801942
-5.3389845 -34.952354 1.5807004
-5.2998061 -34.952396 1.5811828
-5.2601147 -34.952446 1.5808371
-5.2216592 -34.952564 1.5796175
-5.1799512 -34.952629 1.5787075
-5.1385636 -34.952667 1.5792143
-5.0990849 -34.952766 1.5796978
-5.0595503 -34.952858 1.5801818
-5.0199542 -34.952888 1.5806667
-4.9803038 -34.95295 1.5811523
-4.9404111 -34.953075 1.5814245
-4.9012895 -34.953121 1.5791872
-4.8609829 -34.953156 1.5786374
-4.8210921 -34.953262 1.5791233
-4.7811418 -34.953346 1.5796094
-4.7411289 -34.953381 1.5800961
-4.701056 -34.953457 1.5805839
-4.6609249 -34.953564 1.5810723
-4.6207328 -34.953617 1.5815613
-4.5804763 -34.953663 1.5796529
-4.5401664 -34.953773 1.5785422
-4.4997921 -34.953846 1.5790309
-4.4593563 -34.95388 1.5795201
-4.41886 -34.953976 1.5800095
-4.3783073 -34.954071 1.5805
-4.3397183 -34.954105 1.5809668
-4.3010755 -34.954159 1.5814339
-4.2606816 -34.954281 1.58075
-4.219543 -34.954342 1.5783962
-4.1786819 -34.95438 1.5788878
-4.139811 -34.954491 1.5793552
-4.1008806 -34.954567 1.5798229
-4.0598412 -34.954597 1.5803162
-4.0187392 -34.954678 1.5808104
-5.900609 -34.951359 1.620559
-5.8603387 -34.951408 1.6210911
-5.8197269 -34.951447 1.6200376
-5.7797799 -34.951557 1.6200392
-5.7391644 -34.951641 1.6187825
-5.7005787 -34.951672 1.6192895
-5.6600008 -34.951736 1.619823
-5.6193624 -34.951859 1.6203569
-5.5805984 -34.9519 1.6208664
-5.5395217 -34.951946 1.6210204
-5.4990091 -34.952061 1.6199745
-5.4603739 -34.952137 1.6189389
-5.4210691 -34.952168 1.6190288
-5.3800583 -34.952251 1.6195644
-5.3389831 -34.952354 1.6201013
-5.2998052 -34.952396 1.6206132
-5.2605681 -34.952442 1.6211258
-5.2208719 -34.952568 1.6210119
-5.1804609 -34.952629 1.6193448
-5.1385636 -34.952663 1.6187651
-5.0990849 -34.952759 1.6192781
-5.0595508 -34.952854 1.6197915
-5.0199542 -34.952892 1.6203059
-4.9803033 -34.95295 1.6208214
-4.940588 -34.953072 1.6213373
-4.900342 -34.953121 1.620819
-4.8609829 -34.953159 1.6183953
-4.8210931 -34.953259 1.6189107
-4.7811418 -34.953354 1.6194268
-4.7411284 -34.953381 1.6199437
-4.701056 -34.953453 1.6204612
-4.6609249 -34.953568 1.6209797
-4.6207328 -34.953613 1.6214991
-4.5804963 -34.953659 1.6198217
-4.5401669 -34.953773 1.6185395
-4.4997921 -34.95385 1.6190579
-4.4593568 -34.953888 1.6195776
-4.41886 -34.953976 1.6200974
-4.3783069 -34.954071 1.6206181
-4.3397183 -34.954105 1.6211134
-4.3010755 -34.954159 1.6216103
-4.2600017 -34.954285 1.6192895
-4.219543 -34.954342 1.6186334
-4.1786814 -34.954384 1.6191553
-4.139811 -34.954483 1.6196519
-4.1008806 -34.954559 1.6201489
-4.0598407 -34.954601 1.6206727
-4.0187392 -34.954674 1.6211973
-5.90061 -34.951359 1.6595405
-5.8603392 -34.951408 1.6601026
-5.8200097 -34.95145 1.6606659
-5.7794447 -34.951542 1.6610388
-5.7391653 -34.951641 1.6598399
-5.7010145 -34.951668 1.6596323
-5.6600008 -34.951736 1.6589845
-5.6193624 -34.951859 1.6595485
-5.5805988 -34.9519 1.660087
-5.5398345 -34.951946 1.6606531
-5.4990087 -34.952068 1.6612198
-5.4597788 -34.952137 1.6601628
-5.4215345 -34.952164 1.659392
-5.3800583 -34.952255 1.658935
-5.3389845 -34.952354 1.6595024
-5.2998047 -34.952396 1.6600435
-5.2605677 -34.952446 1.6605855
-5.2212734 -34.952564 1.6611284
-5.1794376 -34.952633 1.6607608
-5.1390195 -34.952663 1.6591456
-5.0990868 -34.952774 1.6588578
-5.0595512 -34.952858 1.6594011
-5.0199542 -34.952888 1.6599447
-4.9803028 -34.952946 1.6604896
-4.9405885 -34.953068 1.6610352
-4.900815 -34.953121 1.6615819
-4.8614578 -34.953159 1.6591878
-4.8210921 -34.953259 1.6586984
-4.7811418 -34.95335 1.6592438
-4.7411284 -34.953381 1.6597906
-4.701056 -34.953453 1.6603382
-4.6609249 -34.953568 1.6608866
-4.6207328 -34.953613 1.6614358
-4.5804563 -34.953655 1.6601856
-4.5401669 -34.953777 1.6585374
-4.4997926 -34.953846 1.6590858
-4.4593563 -34.95388 1.6596351
-4.41886 -34.953968 1.6601857
-4.3783073 -34.954071 1.6607367
-4.3397183 -34.954105 1.6612608
-4.3015161 -34.954159 1.6612209
-4.2601557 -34.954281 1.6585039
-4.2195425 -34.954342 1.6588707
-4.1786819 -34.954384 1.6594228
-4.139811 -34.954491 1.6599481
-4.1008806 -34.954567 1.6604738
-4.0598412 -34.954597 1.6610286
-4.0189257 -34.954678 1.6613979
-5.6600013 -34.951733 1.7001034
-5.6193624 -34.951866 1.6987402
-5.5805988 -34.9519 1.699307
-5.5398359 -34.951942 1.699904
-5.4990096 -34.952065 1.7005012
-5.4600682 -34.952137 1.7010711
-5.4206057 -34.952164 1.7006184
-5.3805642 -34.952251 1.6994174
-5.3389835 -34.952354 1.6989028
-5.2998061 -34.952396 1.6994739
-5.2605677 -34.952442 1.700045
-5.2212744 -34.952564 1.700617
-5.1799507 -34.952629 1.7012186
-5.1381173 -34.952663 1.7005961
-5.0992599 -34.952759 1.6986508
-5.0595503 -34.952854 1.6990105
-5.0199537 -34.952888 1.6995844
-4.9803038 -34.952942 1.7001582
-4.9405885 -34.953072 1.7007337
-4.900815 -34.953121 1.7013098
-4.8606763 -34.953159 1.7006676
-4.8210917 -34.953259 1.6984856
-4.7811422 -34.953346 1.6990614
-4.7411284 -34.953381 1.6996385
-4.701056 -34.953453 1.7002156
-4.6609249 -34.953568 1.7007942
-4.6207333 -34.953617 1.701373
-4.5804763 -34.953659 1.7003545
-4.5401669 -34.95377 1.6985343
-4.4997921 -34.953846 1.6991134
-4.4593563 -34.953888 1.6996928
-4.41886 -34.953968 1.7002733
-4.3783064 -34.954063 1.7008548
-4.3397183 -34.954109 1.7014077
-4.3011379 -34.954159 1.7001593
-4.2603402 -34.954281 1.6985255
-4.219543 -34.954342 1.6991072
-4.1786819 -34.954384 1.69969
-4.1398101 -34.954479 1.7002443
-4.1008811 -34.954567 1.7007992
-4.0598402 -34.954597 1.7013848
-4.0190015 -34.954674 1.7003772
0 0 0 1 0 0 0 1 0 0 0 1 0 0 0 0 0 1988 1 0 0
