ply
format ascii 1.0
comment PCL generated
element vertex 2025
property float x
property float y
property float z
element face 0
element camera 1
property float view_px
property float view_py
property float view_pz
property float x_axisx
property float x_axisy
property float x_axisz
property float y_axisx
property float y_axisy
property float y_axisz
property float z_axisx
property float z_axisy
property float z_axisz
property float focal
property float scalex
property float scaley
property float centerx
property float centery
property int viewportx
property int viewporty
property float k1
property float k2
end_header
-5.6998053 -34.951855 1.6199622
-5.659533 -34.9519 1.6210413
-5.6207795 -34.95192 1.620618
-5.5801988 -34.952003 1.6199518
-5.5395441 -34.952103 1.6192852
-5.5005941 -34.952145 1.6188599
-5.4601388 -34.952168 1.6201087
-5.4191189 -34.952263 1.6212386
-5.3801365 -34.952351 1.6206027
-5.3410926 -34.952396 1.619965
-5.300024 -34.952427 1.6192942
-5.2588835 -34.95253 1.6186228
-5.2199302 -34.952614 1.6203253
-5.180326 -34.952641 1.6212898
-5.1409459 -34.952679 1.6206503
-5.1015024 -34.952797 1.6200097
-5.0600133 -34.952866 1.6193357
-5.0184546 -34.952888 1.6186607
-4.978807 -34.95293 1.6200002
-4.9390907 -34.953053 1.6213413
-4.8993068 -34.95311 1.6206988
-4.859458 -34.953133 1.6200551
-4.8195434 -34.953186 1.6194099
-4.7795596 -34.953312 1.6187639
-4.7393517 -34.953365 1.6193261
-4.6993914 -34.953384 1.6214585
-4.6592054 -34.953445 1.6208127
-4.6189547 -34.953564 1.6201656
-4.57863 -34.953609 1.6195172
-4.53824 -34.953636 1.6188678
-4.4999895 -34.953705 1.6184554
-4.4613109 -34.953812 1.621641
-4.4207234 -34.953854 1.6209919
-4.3800664 -34.953888 1.6203423
-4.3393388 -34.953968 1.619691
-4.2985454 -34.954071 1.6190387
-4.2597275 -34.954102 1.6184175
-4.2203288 -34.954144 1.6210626
-4.1798453 -34.954235 1.621174
-4.1387782 -34.954319 1.6205204
-4.099699 -34.95435 1.6198988
-4.0605559 -34.954384 1.6192763
-4.0192871 -34.954502 1.6186202
-5.9009748 -34.951473 1.6602215
-5.8608775 -34.951603 1.6595929
-5.8207154 -34.951653 1.658965
-5.7801895 -34.951675 1.6599524
-5.7405539 -34.951733 1.6602083
-5.6998043 -34.951859 1.6609784
-5.6593614 -34.9519 1.6603485
-5.6207795 -34.951927 1.6597471
-5.5801978 -34.951996 1.6591156
-5.5390978 -34.952106 1.6593049
-5.5009279 -34.952148 1.6600229
-5.4599771 -34.952171 1.6611704
-5.4191179 -34.952267 1.6605368
-5.3801374 -34.952354 1.6599334
-5.3410935 -34.952393 1.6593291
-5.3000231 -34.952427 1.658692
-5.2587209 -34.952534 1.6598438
-5.2196398 -34.952606 1.6613944
-5.180326 -34.952637 1.6607884
-5.1409459 -34.952682 1.6601814
-5.1015029 -34.952789 1.659574
-5.0600133 -34.952858 1.6589341
-5.0180511 -34.952888 1.6589234
-4.9791193 -34.952934 1.6612277
-4.9390907 -34.953049 1.6610422
-4.8993068 -34.953114 1.6604326
-4.859458 -34.953136 1.6598215
-4.8195429 -34.953182 1.6592107
-4.7795582 -34.953312 1.6585971
-4.7395086 -34.953362 1.6599779
-4.6993914 -34.953384 1.661359
-4.6592064 -34.953453 1.6607469
-4.6189547 -34.95356 1.6601328
-4.57863 -34.953609 1.6595198
-4.53824 -34.953636 1.6589043
-4.4998078 -34.953709 1.6583183
-4.4611273 -34.953808 1.6615565
-4.4207234 -34.953854 1.6611259
-4.3800664 -34.953888 1.6605101
-4.3393388 -34.953968 1.6598935
-4.298543 -34.954063 1.6592752
-4.2597275 -34.954102 1.6586866
-4.2211652 -34.954144 1.659481
-4.1798449 -34.954227 1.6615098
-4.1387787 -34.954319 1.6608907
-4.099699 -34.95435 1.6603013
-4.0605564 -34.954391 1.6597121
-4.0192876 -34.954498 1.6590905
-5.9009748 -34.951481 1.6991169
-5.8604188 -34.951607 1.6997969
-5.8207154 -34.951653 1.6998752
-5.7807879 -34.951675 1.700852
-5.7401781 -34.951733 1.7006367
-5.6998048 -34.951862 1.7000418
-5.6593614 -34.951897 1.699446
-5.6207795 -34.951927 1.6988772
-5.5799046 -34.952003 1.6999043
-5.5399837 -34.952106 1.7003866
-5.5007668 -34.952145 1.7010314
-5.4599771 -34.952179 1.7004344
-5.4191189 -34.952263 1.6998357
-5.3801374 -34.952354 1.6992645
-5.341095 -34.952393 1.6986924
-5.299861 -34.952431 1.6998938
-5.259058 -34.952526 1.7012187
-5.2196388 -34.952614 1.700859
-5.1803265 -34.952641 1.7002864
-5.1409454 -34.952682 1.699713
-5.1015019 -34.952774 1.6991383
-5.0600138 -34.952862 1.6985339
-5.0188427 -34.952888 1.7004719
-4.9788084 -34.952934 1.7013178
-4.9390907 -34.953049 1.7007422
-4.8993073 -34.953114 1.7001662
-4.8594575 -34.953136 1.6995888
-4.8195424 -34.95319 1.6990106
-4.7795591 -34.953308 1.6984314
-4.7398005 -34.953362 1.7008171
-4.6993914 -34.953388 1.7012606
-4.6592064 -34.953449 1.7006818
-4.6189547 -34.95356 1.7001022
-4.57863 -34.953609 1.6995215
-4.5382404 -34.953644 1.6989397
-4.4998078 -34.953712 1.698386
-4.4610629 -34.953808 1.7010615
-4.4207234 -34.953854 1.7012608
-4.3800664 -34.953892 1.7006786
-4.3393397 -34.953983 1.7000954
-4.298543 -34.954063 1.6995114
-4.2597275 -34.954102 1.6989558
-4.2210274 -34.95414 1.6985853
-4.179306 -34.954239 1.7008828
-4.1387782 -34.954323 1.7012612
-4.099699 -34.95435 1.7007049
-4.0605555 -34.954391 1.7001481
-4.0192871 -34.954502 1.6995603
-5.9009748 -34.951473 1.7399566
-5.8613462 -34.951611 1.7405996
-5.820715 -34.951649 1.740786
-5.7804799 -34.951672 1.7402264
-5.7401757 -34.951744 1.7396661
-5.6998053 -34.951859 1.739105
-5.6589174 -34.951897 1.739364
-5.6207786 -34.951923 1.7399638
-5.5805092 -34.952003 1.740979
-5.5395441 -34.952103 1.7407978
-5.5007668 -34.952145 1.7402616
-5.4599767 -34.952175 1.7396986
-5.4191189 -34.952267 1.7391341
-5.3799624 -34.952351 1.7388067
-5.341094 -34.952393 1.7400244
-5.3002 -34.952423 1.741236
-5.258883 -34.952526 1.7408634
-5.2196393 -34.952606 1.7403249
-5.180326 -34.952637 1.7397852
-5.1409473 -34.952682 1.7392443
-5.1015019 -34.952785 1.7387023
-5.0595403 -34.952862 1.7394297
-5.018455 -34.952888 1.7415254
-4.9788074 -34.95293 1.7409843
-4.9390907 -34.953053 1.7404424
-4.8993077 -34.95311 1.7398999
-4.8594575 -34.953136 1.7393554
-4.8195429 -34.95319 1.7388111
-4.7792449 -34.953308 1.7386903
-4.7396879 -34.953358 1.7414911
-4.6993918 -34.953388 1.7411613
-4.6592054 -34.953453 1.7406166
-4.6189547 -34.953564 1.7400711
-4.57863 -34.953606 1.7395234
-4.5382404 -34.95364 1.7389754
-4.4998074 -34.953712 1.7384543
-4.4612288 -34.953808 1.7403457
-4.4207234 -34.953854 1.7413948
-4.3800664 -34.953884 1.7408469
-4.3393397 -34.953972 1.7402986
-4.2985439 -34.954067 1.7397476
-4.2597275 -34.954105 1.7392249
-4.2208414 -34.954144 1.738701
-4.1803851 -34.954243 1.7391107
-4.1385913 -34.954315 1.7414457
-4.0996985 -34.95435 1.7411081
-4.0605564 -34.954391 1.7405835
-4.0192876 -34.954506 1.740031
-5.9009748 -34.951477 1.7807962
-5.860878 -34.951607 1.7802725
-5.820715 -34.951653 1.7797477
-5.7804794 -34.951672 1.7792222
-5.7398748 -34.95174 1.7791132
-5.6998057 -34.951855 1.7801214
-5.6597981 -34.9519 1.7803386
-5.6207795 -34.951927 1.7810493
-5.5801973 -34.952003 1.7805228
-5.5395446 -34.952103 1.7799954
-5.5007658 -34.952145 1.779492
-5.4599776 -34.952179 1.7789623
-5.4186687 -34.952267 1.7792581
-5.3802981 -34.952358 1.7800757
-5.3410931 -34.952389 1.7813562
-5.3000231 -34.952427 1.7808268
-5.2588835 -34.952538 1.7802962
-5.2196388 -34.952614 1.7797904
-5.180326 -34.952641 1.7792834
-5.1409459 -34.952682 1.7787755
-5.1010461 -34.952785 1.7790983
-5.0604992 -34.952862 1.7809341
-5.018455 -34.952888 1.7811596
-4.9788079 -34.952938 1.7806518
-4.9390907 -34.953049 1.7801427
-4.8993068 -34.95311 1.7796335
-4.8594584 -34.953136 1.7791226
-4.8195424 -34.95319 1.7786117
-4.7793846 -34.953312 1.7795091
-4.7395086 -34.953358 1.7815727
-4.6993914 -34.953388 1.7810627
-4.6592064 -34.953453 1.7805508
-4.6189547 -34.95356 1.7800385
-4.57863 -34.953609 1.7795252
-4.5382404 -34.95364 1.7790115
-4.4998074 -34.953712 1.7785227
-4.4613948 -34.953808 1.7796299
-4.4207225 -34.953854 1.7815295
-4.3800664 -34.953888 1.7810155
-4.3393388 -34.953968 1.7805008
-4.2985439 -34.954071 1.7799847
-4.2597275 -34.954102 1.7794939
-4.2208419 -34.95414 1.7790022
-4.1798458 -34.954231 1.7784843
-4.1386228 -34.954315 1.7801986
-4.099699 -34.95435 1.7815111
-4.0605555 -34.954384 1.7810197
-4.0192866 -34.954498 1.7805016
-5.9009752 -34.951481 1.8196907
-5.8608766 -34.951603 1.8192011
-5.8204141 -34.951649 1.819126
-5.780479 -34.951672 1.8201678
-5.7404623 -34.951736 1.8200417
-5.6998057 -34.951859 1.8211374
-5.6593633 -34.951897 1.8206472
-5.620779 -34.951923 1.8201791
-5.5801988 -34.952007 1.819687
-5.539546 -34.952103 1.8191921
-5.5007668 -34.952145 1.8187213
-5.459682 -34.952179 1.8198563
-5.4195595 -34.952255 1.820443
-5.3801379 -34.952358 1.8211905
-5.3410931 -34.952393 1.8207196
-5.3000245 -34.952427 1.8202249
-5.2588835 -34.952522 1.8197283
-5.2196393 -34.95261 1.8192552
-5.1803265 -34.952641 1.8187816
-5.1404905 -34.952679 1.8191384
-5.1019487 -34.952785 1.8205615
-5.0600133 -34.952858 1.8212913
-5.018455 -34.952888 1.8207932
-4.978807 -34.952938 1.8203192
-4.9390912 -34.953056 1.8198426
-4.8993077 -34.953114 1.8193669
-4.859458 -34.953136 1.81889
-4.8195434 -34.95319 1.8184117
-4.7797341 -34.953312 1.8205073
-4.7395082 -34.953362 1.8214401
-4.6993923 -34.953384 1.8209634
-4.6592064 -34.953453 1.8204862
-4.6189542 -34.953564 1.8200066
-4.57863 -34.953609 1.8195276
-4.5382404 -34.95364 1.8190477
-4.4998078 -34.953709 1.8185906
-4.4615593 -34.953812 1.8189138
-4.4207234 -34.953854 1.8216639
-4.3800664 -34.953888 1.8211837
-4.3393388 -34.953968 1.8207031
-4.2985435 -34.954063 1.8202214
-4.2597275 -34.954102 1.8197633
-4.2208419 -34.954144 1.8193043
-4.1798453 -34.954239 1.8188199
-4.1391139 -34.954319 1.8187103
-4.0993509 -34.954353 1.8203769
-4.0605564 -34.954384 1.8214557
-4.0192866 -34.954479 1.8209718
-5.9005427 -34.951473 1.8597926
-5.8608775 -34.951611 1.860076
-5.8209987 -34.951653 1.8599849
-5.7804799 -34.951672 1.8611138
-5.7401757 -34.951736 1.8606579
-5.6998053 -34.951862 1.8602017
-5.6593609 -34.9519 1.8597447
-5.62078 -34.951927 1.8593085
-5.5801978 -34.952003 1.8588496
-5.5391068 -34.952106 1.8596059
-5.5007668 -34.952145 1.8599133
-5.460289 -34.952171 1.8610356
-5.4191194 -34.952274 1.8609587
-5.3801374 -34.952354 1.8605223
-5.3410926 -34.952393 1.8600835
-5.3000245 -34.952427 1.8596227
-5.2588835 -34.95253 1.8591619
-5.2196393 -34.95261 1.8587213
-5.1798582 -34.952641 1.8593099
-5.1413932 -34.952679 1.8605659
-5.1015015 -34.952782 1.8613521
-5.0600133 -34.952862 1.8608899
-5.018455 -34.952888 1.8604264
-4.9788084 -34.95293 1.8599863
-4.9390907 -34.953053 1.8595438
-4.8993068 -34.953114 1.8591007
-4.8594584 -34.953136 1.8586569
-4.8191357 -34.953186 1.8588445
-4.7798734 -34.953312 1.8613245
-4.7395086 -34.953362 1.8613076
-4.6993909 -34.953384 1.8608645
-4.6592064 -34.953445 1.8604207
-4.6189551 -34.95356 1.8599753
-4.57863 -34.953609 1.8595297
-4.5382395 -34.953636 1.8590829
-4.4998078 -34.953709 1.8586589
-4.4614964 -34.953812 1.8584179
-4.4203916 -34.953854 1.8614265
-4.3800664 -34.953888 1.8613521
-4.3393397 -34.953976 1.8609051
-4.2985435 -34.954063 1.8604578
-4.2597275 -34.954102 1.8600322
-4.2208414 -34.954147 1.859605
-4.1798449 -34.954239 1.859156
-4.1387782 -34.954319 1.8587059
-4.1000261 -34.95435 1.8586942
-4.0600905 -34.954391 1.8605171
-4.0192871 -34.954498 1.8614422
-5.9014153 -34.951469 1.9005526
-5.8608766 -34.951607 1.9009511
-5.820715 -34.951653 1.9005307
-5.7804799 -34.951675 1.9001095
-5.7401757 -34.95174 1.899688
-5.6998057 -34.951859 1.8992652
-5.6593614 -34.9519 1.898842
-5.6203427 -34.951923 1.8996521
-5.5801983 -34.952003 1.8999718
-5.5399928 -34.95211 1.9006836
-5.5007658 -34.952145 1.9011052
-5.4599767 -34.952179 1.9006816
-5.4191194 -34.952267 1.9002575
-5.3801374 -34.952354 1.8998526
-5.3410935 -34.952396 1.8994477
-5.3000231 -34.952427 1.8990213
-5.2588835 -34.952522 1.8985935
-5.219348 -34.95261 1.8997917
-5.1807938 -34.952641 1.9006985
-5.1409459 -34.952682 1.9013226
-5.1015019 -34.952789 1.9009163
-5.0600138 -34.952862 1.900489
-5.0184546 -34.952888 1.9000614
-4.9788074 -34.952938 1.8996528
-4.9390907 -34.953053 1.8992438
-4.8993073 -34.953114 1.8988342
-4.8594584 -34.953136 1.8984237
-4.8195424 -34.953186 1.9000028
-4.7795582 -34.953312 1.9015841
-4.7395086 -34.953362 1.9011754
-4.6993914 -34.953388 1.9007655
-4.6592054 -34.953445 1.9003552
-4.6189547 -34.95356 1.8999437
-4.57863 -34.953609 1.8995317
-4.5382395 -34.953632 1.8991194
-4.4998074 -34.953709 1.8987267
-4.4613118 -34.953812 1.8983334
-4.4205351 -34.953854 1.9005451
-4.3800664 -34.953888 1.9015204
-4.3393388 -34.953976 1.9011077
-4.298543 -34.954063 1.9006946
-4.259727 -34.954102 1.9003012
-4.2208419 -34.954144 1.8999076
-4.1798449 -34.954231 1.8994921
-4.1387773 -34.954315 1.899076
-4.0996985 -34.95435 1.8986803
-4.0610023 -34.954388 1.8988513
-4.0189276 -34.954483 1.9003257
-5.9009743 -34.951477 1.9402655
-5.8608766 -34.951607 1.9398797
-5.820715 -34.951653 1.9394933
-5.7804809 -34.951672 1.9391054
-5.7401752 -34.951736 1.9387174
-5.6998057 -34.951862 1.9402817
-5.6593618 -34.9519 1.939894
-5.6212239 -34.951927 1.9406577
-5.5801978 -34.952015 1.9410932
-5.5395451 -34.952103 1.9407053
-5.5007658 -34.952145 1.9403349
-5.4599771 -34.952183 1.9399458
-5.4191194 -34.952259 1.9395561
-5.3801384 -34.952351 1.9391835
-5.3410926 -34.952389 1.9388108
-5.2996082 -34.952435 1.9389906
-5.2588835 -34.952526 1.939998
-5.2199473 -34.952614 1.9411763
-5.1803255 -34.952641 1.9412266
-5.1409469 -34.952679 1.9408541
-5.1015019 -34.952789 1.9404807
-5.0600138 -34.952862 1.940088
-5.018455 -34.952892 1.9396952
-4.9788084 -34.952934 1.93932
-4.9390907 -34.953049 1.9389437
-4.8993068 -34.953114 1.9385676
-4.8590512 -34.953136 1.9388239
-4.8199496 -34.953186 1.9411596
-4.7795591 -34.953312 1.9414182
-4.7395091 -34.953362 1.9410427
-4.6993914 -34.953384 1.9406667
-4.6592064 -34.953453 1.94029
-4.6189547 -34.95356 1.9399123
-4.5786304 -34.953609 1.9395342
-4.5382404 -34.953644 1.9391555
-4.4998074 -34.953709 1.9387949
-4.4613109 -34.953808 1.938434
-4.4210615 -34.953854 1.939227
-4.3800669 -34.953888 1.9416885
-4.3393397 -34.953983 1.9413103
-4.2985439 -34.954063 1.9409314
-4.2597275 -34.954102 1.9405704
-4.2208414 -34.954147 1.9402095
-4.1798449 -34.954224 1.9398286
-4.1387777 -34.954311 1.9394469
-4.099699 -34.95435 1.939083
-4.0605564 -34.954391 1.9387196
-4.0196242 -34.954498 1.9387109
-5.9009762 -34.951477 1.9791604
-5.860877 -34.951607 1.9788082
-5.8205566 -34.951653 1.9802231
-5.7804804 -34.951675 1.9800514
-5.7401781 -34.951736 1.9796985
-5.6998053 -34.951859 1.9812988
-5.6593623 -34.9519 1.9809463
-5.62078 -34.951923 1.9806105
-5.5801992 -34.951992 1.9802569
-5.5395446 -34.952099 1.9799031
-5.5007658 -34.952145 1.9795654
-5.4599771 -34.952179 1.97921
-5.4191189 -34.952259 1.9788544
-5.3801384 -34.952351 1.9785147
-5.3410945 -34.952393 1.9801433
-5.3004231 -34.952427 1.9802917
-5.2588835 -34.952526 1.9814026
-5.2196393 -34.952614 1.981064
-5.1803255 -34.952641 1.9807247
-5.1409469 -34.952679 1.9803855
-5.1015019 -34.952782 1.9800448
-5.0600133 -34.952862 1.9796873
-5.0184546 -34.952888 1.9793291
-4.9788094 -34.952934 1.9789871
-4.9390907 -34.953049 1.9786441
-4.8993068 -34.953114 1.9783014
-4.8598495 -34.953133 1.9805074
-4.8195424 -34.95319 1.981593
-4.7795582 -34.953312 1.9812522
-4.7395082 -34.953358 1.9809102
-4.6993909 -34.953384 1.9805675
-4.6592059 -34.953445 1.980224
-4.6189547 -34.95356 1.9798806
-4.57863 -34.953609 1.9795363
-4.5382404 -34.953644 1.9791914
-4.4998074 -34.953705 1.978863
-4.4613113 -34.953815 1.9785342
-4.4209085 -34.953854 1.9783716
-4.3796263 -34.953888 1.9812951
-4.3393388 -34.953957 1.9815129
-4.2985439 -34.954056 1.981168
-4.259727 -34.954102 1.9808395
-4.2208419 -34.95414 1.9805112
-4.1798458 -34.954239 1.9801641
-4.1387787 -34.954319 1.9798166
-4.0996985 -34.95435 1.9794862
-4.0605555 -34.954388 1.9791558
-4.0192866 -34.954498 1.9788063
-5.9009748 -34.951469 2.0200014
-5.8608761 -34.951603 2.0196831
-5.8208852 -34.951653 2.0211027
-5.7804799 -34.951679 2.0209966
-5.7401757 -34.95174 2.0206792
-5.6998053 -34.951859 2.0203617
-5.6593614 -34.951897 2.0200443
-5.62078 -34.951931 2.0197392
-5.5801978 -34.951992 2.0194206
-5.5395446 -34.952103 2.0191004
-5.5007658 -34.952145 2.0187953
-5.4595633 -34.952175 2.0190442
-5.4191179 -34.952267 2.0201175
-5.3801365 -34.952358 2.0198133
-5.3410926 -34.952393 2.0214748
-5.3000231 -34.952431 2.0211556
-5.2588835 -34.952526 2.0208354
-5.2196393 -34.952606 2.02053
-5.1803265 -34.952641 2.0202234
-5.1409454 -34.952675 2.0199175
-5.1015019 -34.952782 2.0196095
-5.0600123 -34.952866 2.0192864
-5.0184546 -34.952885 2.0189624
-4.9788074 -34.952938 2.0186532
-4.9390912 -34.953053 2.0183451
-4.8991423 -34.953117 2.019839
-4.8594584 -34.953133 2.0217028
-4.8195434 -34.95319 2.0213943
-4.7795591 -34.953312 2.0210862
-4.7395082 -34.953358 2.020777
-4.6993918 -34.953384 2.020469
-4.6592064 -34.953449 2.0201592
-4.6189547 -34.95356 2.0198498
-4.5786295 -34.953609 2.0195379
-4.53824 -34.95364 2.0192275
-4.4998074 -34.953705 2.0189312
-4.4613109 -34.953812 2.0186338
-4.420723 -34.953854 2.018321
-4.3801732 -34.953884 2.0198061
-4.3393393 -34.953976 2.0217149
-4.298543 -34.954063 2.0214043
-4.2597265 -34.954102 2.0211079
-4.2208419 -34.954136 2.0208118
-4.1798453 -34.954235 2.0205004
-4.1387777 -34.954315 2.0201876
-4.0996981 -34.95435 2.0198891
-4.0605559 -34.954391 2.0195909
-4.0192866 -34.954498 2.0192776
-5.9009733 -34.951477 2.0608401
-5.860877 -34.951603 2.0605581
-5.820715 -34.951649 2.0602756
-5.7804804 -34.951672 2.0599923
-5.7401752 -34.951744 2.0597093
-5.6998053 -34.951859 2.0594256
-5.6593614 -34.9519 2.0591407
-5.62078 -34.951927 2.0588694
-5.5800242 -34.952003 2.0587771
-5.539546 -34.95211 2.0602582
-5.5007663 -34.952148 2.0599871
-5.460372 -34.952175 2.060204
-5.4191179 -34.952259 2.0613811
-5.3801379 -34.952358 2.0611103
-5.341095 -34.952389 2.0608389
-5.3000245 -34.952431 2.0605531
-5.258883 -34.952522 2.0602674
-5.2196393 -34.95261 2.0599947
-5.1803255 -34.952641 2.0597219
-5.1409469 -34.952682 2.0594482
-5.1015024 -34.952782 2.0591738
-5.0600133 -34.952858 2.0588858
-5.0184536 -34.952888 2.0585968
-4.9788084 -34.952938 2.0583212
-4.9390907 -34.953056 2.06003
-4.8994837 -34.953114 2.0615273
-4.859458 -34.953136 2.0614686
-4.8195424 -34.95319 2.0611947
-4.7795591 -34.953312 2.0609198
-4.7395082 -34.953362 2.0606451
-4.6993914 -34.953384 2.0603695
-4.6592059 -34.953442 2.0600932
-4.6189547 -34.953564 2.0598173
-4.57863 -34.953609 2.0595403
-4.5382404 -34.95364 2.0592632
-4.4998074 -34.953712 2.0589995
-4.4613109 -34.953812 2.0587349
-4.4207225 -34.953854 2.0584562
-4.3803992 -34.953884 2.0585487
-4.3388028 -34.953972 2.0609624
-4.2985439 -34.954063 2.0616415
-4.2597265 -34.954102 2.0613775
-4.2208419 -34.95414 2.0611141
-4.1798453 -34.954231 2.0608361
-4.1387782 -34.954319 2.0605576
-4.0996981 -34.95435 2.0602925
-4.0605559 -34.954391 2.0600269
-4.0192866 -34.954506 2.0597472
-5.9009743 -34.951473 2.0997353
-5.8608775 -34.951607 2.0994871
-5.8207154 -34.951649 2.0992382
-5.7804799 -34.951672 2.0989885
-5.7401762 -34.951736 2.0987389
-5.6993446 -34.951859 2.0997715
-5.6593614 -34.9519 2.1001933
-5.620779 -34.951923 2.0999558
-5.580359 -34.952007 2.0998697
-5.5395451 -34.952103 2.1014156
-5.5007658 -34.952145 2.1011786
-5.4599771 -34.952171 2.1009295
-5.4191175 -34.952267 2.1006794
-5.3801379 -34.952354 2.1004407
-5.3410926 -34.952393 2.1002028
-5.300024 -34.952431 2.0999515
-5.2588835 -34.95253 2.0997002
-5.2196398 -34.95261 2.0994604
-5.1803265 -34.952637 2.0992203
-5.1409469 -34.952686 2.098979
-5.1015019 -34.952785 2.0987382
-5.0600138 -34.952862 2.0984848
-5.0179973 -34.952888 2.0990663
-4.978807 -34.95293 2.0999715
-4.9390907 -34.953049 2.1017153
-4.8993068 -34.953114 2.1014755
-4.8594575 -34.953136 2.1012356
-4.8195429 -34.95319 2.1009948
-4.7795591 -34.953312 2.1007535
-4.7395091 -34.953358 2.1005125
-4.6993923 -34.953384 2.1002707
-4.6592064 -34.953445 2.1000285
-4.6189547 -34.953564 2.0997858
-4.57863 -34.953609 2.0995426
-4.53824 -34.953636 2.099299
-4.4998074 -34.953712 2.0990672
-4.4613118 -34.953808 2.0988355
-4.420723 -34.953854 2.0985906
-4.3800659 -34.953888 2.0983455
-4.3398757 -34.95396 2.0990555
-4.2980332 -34.954067 2.1011205
-4.2597265 -34.954102 2.1016467
-4.2208419 -34.95414 2.1014161
-4.1798449 -34.954224 2.1011722
-4.1387777 -34.954319 2.1009281
-4.0996981 -34.95435 2.1006956
-4.0605559 -34.954391 2.1004629
-4.0192866 -34.954506 2.1002178
-5.9005351 -34.951473 2.1394506
-5.8608766 -34.951607 2.1403615
-5.8207154 -34.951653 2.1401482
-5.7804804 -34.951672 2.1399338
-5.7401791 -34.951733 2.13972
-5.7002797 -34.951859 2.1407073
-5.6593623 -34.951897 2.1412449
-5.6207805 -34.95192 2.1410413
-5.5801988 -34.952007 2.1408277
-5.5395441 -34.952103 2.1406136
-5.5007658 -34.952145 2.1404085
-5.4599767 -34.952171 2.1401935
-5.4191189 -34.952271 2.1399779
-5.3801374 -34.952351 2.1397724
-5.3410926 -34.952393 2.1395664
-5.3000245 -34.952431 2.1393497
-5.2588835 -34.952526 2.1391327
-5.2196388 -34.95261 2.1389256
-5.1803265 -34.952641 2.1387186
-5.1409469 -34.952682 2.1385105
-5.101192 -34.952778 2.1387279
-5.0600133 -34.952858 2.1400638
-5.0189033 -34.952888 2.1405966
-4.9788094 -34.952938 2.1416221
-4.9390907 -34.953049 2.1414161
-4.8993068 -34.953114 2.1412091
-4.8594584 -34.953136 2.1410024
-4.8195434 -34.95319 2.1407959
-4.7795591 -34.953312 2.1405871
-4.7395091 -34.953362 2.1403794
-4.6993899 -34.953381 2.1401718
-4.6592054 -34.953445 2.1399636
-4.6189551 -34.95356 2.1397541
-4.578629 -34.953609 2.1395442
-4.5382404 -34.95364 2.1393349
-4.4998074 -34.953701 2.1391351
-4.4613109 -34.953812 2.1389358
-4.420723 -34.953854 2.1387246
-4.3800664 -34.953892 2.1385136
-4.3393393 -34.953964 2.1383026
-4.2990637 -34.95406 2.1392496
-4.2592878 -34.954102 2.1406195
-4.2208409 -34.954144 2.1417177
-4.1798444 -34.954235 2.1415086
-4.1387773 -34.954315 2.1412983
-4.0996981 -34.95435 2.1410987
-4.0605559 -34.954395 2.1408989
-4.0192862 -34.954506 2.1406882
-5.9014068 -34.951473 2.1802063
-5.8608775 -34.951607 2.181237
-5.8207159 -34.951649 2.1810584
-5.7804794 -34.951675 2.1808801
-5.7401772 -34.951736 2.1807008
-5.6998067 -34.951859 2.1805222
-5.6593614 -34.9519 2.1803424
-5.62078 -34.951927 2.1801715
-5.5801988 -34.951996 2.1799908
-5.539546 -34.952106 2.1798115
-5.5007672 -34.952145 2.1796386
-5.4599771 -34.952175 2.1794579
-5.4191189 -34.952259 2.1792765
-5.3801374 -34.952358 2.1791034
-5.3410926 -34.952393 2.1789303
-5.3000245 -34.952423 2.1787481
-5.2588835 -34.952526 2.1785653
-5.2196393 -34.95261 2.1783915
-5.1801634 -34.952641 2.1800096
-5.1409464 -34.952679 2.1800187
-5.1017942 -34.952789 2.1802125
-5.0600138 -34.952858 2.1816428
-5.018455 -34.952888 2.1814625
-4.9788074 -34.952934 2.1812887
-4.9390903 -34.953053 2.1811163
-4.8993063 -34.953114 2.180943
-4.859458 -34.953136 2.1807694
-4.8195424 -34.95319 2.1805961
-4.7795591 -34.953312 2.1804218
-4.7395091 -34.953362 2.1802471
-4.6993904 -34.953384 2.1800725
-4.6592064 -34.953445 2.1798975
-4.6189547 -34.953564 2.1797225
-4.57863 -34.953609 2.1795471
-4.53824 -34.953644 2.1793711
-4.4998074 -34.953709 2.1792035
-4.4613118 -34.953815 2.1790359
-4.4207234 -34.953854 2.1788599
-4.3800659 -34.953888 2.1786823
-4.3393393 -34.953968 2.1785049
-4.298543 -34.954063 2.1783276
-4.260149 -34.954102 2.1787848
-4.2208409 -34.954144 2.1800046
-4.1793051 -34.954231 2.1808863
-4.1387773 -34.954319 2.1816688
-4.0996981 -34.95435 2.1815023
-4.0605559 -34.954391 2.1813347
-4.0192857 -34.954506 2.1811585
-5.9009762 -34.951477 2.2203095
-5.8608775 -34.951607 2.2201655
-5.8207159 -34.951649 2.2200203
-5.7804799 -34.951672 2.2198761
-5.7401762 -34.951736 2.2197311
-5.6998053 -34.951859 2.2195861
-5.6593614 -34.9519 2.2194405
-5.6207795 -34.951927 2.2193003
-5.5801978 -34.952 2.2191553
-5.5395451 -34.952106 2.2190073
-5.5007672 -34.952145 2.2188687
-5.4599771 -34.952171 2.2187219
-5.4191194 -34.952259 2.2185748
-5.3801384 -34.952354 2.2184346
-5.3410921 -34.952393 2.2202628
-5.300024 -34.952427 2.2201164
-5.2588835 -34.952526 2.2199695
-5.2196393 -34.952614 2.2198296
-5.180501 -34.952641 2.2214506
-5.1409469 -34.952675 2.2215271
-5.1015019 -34.952789 2.2213874
-5.0600133 -34.952858 2.2212415
-5.0184536 -34.952888 2.2210956
-4.9788084 -34.952938 2.2209558
-4.9390907 -34.953053 2.2208169
-4.8993058 -34.953114 2.2206769
-4.8594575 -34.953136 2.2205358
-4.8195424 -34.95319 2.2203968
-4.7795582 -34.953312 2.2202551
-4.7395091 -34.953358 2.2201142
-4.6993909 -34.953384 2.2199738
-4.6592054 -34.953445 2.2198319
-4.6189547 -34.953564 2.2196898
-4.578629 -34.953609 2.219548
-4.53824 -34.95364 2.2194076
-4.4998078 -34.953709 2.2192719
-4.4613109 -34.953815 2.219137
-4.420723 -34.953854 2.2189941
-4.3800659 -34.953888 2.2188511
-4.3393393 -34.953972 2.2187076
-4.2985435 -34.954067 2.2185633
-4.2597265 -34.954102 2.2184272
-4.2208414 -34.95414 2.2182903
-4.1803851 -34.954231 2.2191045
-4.1387773 -34.954319 2.2200208
-4.0996981 -34.95435 2.2198853
-4.0602198 -34.954391 2.2213986
-4.0192857 -34.954491 2.2216289
-5.9009762 -34.951473 2.2592049
-5.8608775 -34.951607 2.259094
-5.8207159 -34.951649 2.2589824
-5.7804799 -34.951672 2.2588718
-5.7401772 -34.951733 2.2587605
-5.6998062 -34.951859 2.2586486
-5.6593628 -34.9519 2.2585375
-5.6207786 -34.951923 2.2603874
-5.5801973 -34.952007 2.2602758
-5.539546 -34.952114 2.2601655
-5.5007668 -34.952145 2.2600603
-5.4599767 -34.952175 2.2599494
-5.4191184 -34.952263 2.2598381
-5.3801346 -34.952362 2.2597322
-5.3410945 -34.952393 2.2615938
-5.300024 -34.952427 2.2614841
-5.258883 -34.952526 2.261374
-5.2196393 -34.952602 2.2612689
-5.1803265 -34.952641 2.2611637
-5.1409473 -34.952675 2.2610579
-5.1015019 -34.952793 2.2609518
-5.0600133 -34.952862 2.2608409
-5.0184546 -34.952888 2.2607298
-4.9788079 -34.952934 2.2606232
-4.9390907 -34.953053 2.2605166
-4.8993063 -34.953114 2.2604103
-4.859458 -34.953136 2.2603035
-4.8195424 -34.95319 2.2601969
-4.7795596 -34.953308 2.2600892
-4.7395082 -34.953358 2.2599819
-4.6993909 -34.953384 2.2598748
-4.6592054 -34.953453 2.2597671
-4.6189547 -34.953564 2.2596595
-4.578629 -34.953609 2.259551
-4.53824 -34.953644 2.2594426
-4.4998069 -34.953705 2.25934
-4.4613109 -34.953815 2.2592368
-4.4207225 -34.953854 2.2591279
-4.3800659 -34.953888 2.2590189
-4.3393388 -34.953968 2.2589099
-4.298543 -34.954067 2.2588003
-4.2597265 -34.954102 2.2586966
-4.2208409 -34.954136 2.2585926
-4.1798449 -34.954243 2.2584827
-4.1387773 -34.954323 2.2583723
-4.0996985 -34.95435 2.2582679
-4.0609145 -34.954395 2.2597466
-4.0192862 -34.954491 2.260076
-5.9009743 -34.951466 2.300045
-5.8608775 -34.951607 2.299969
-5.8207164 -34.951653 2.2998931
-5.7804799 -34.951672 2.2998176
-5.7401791 -34.951733 2.2997417
-5.6998057 -34.951855 2.2996655
-5.6593623 -34.9519 2.2995892
-5.620779 -34.951927 2.3014731
-5.5801978 -34.952003 2.3013985
-5.5395446 -34.952099 2.3013237
-5.5007658 -34.952145 2.3012521
-5.4599767 -34.952175 2.3011763
-5.4191194 -34.952263 2.3011014
-5.3801374 -34.952351 2.3010297
-5.3410926 -34.952393 2.3009577
-5.3000231 -34.952423 2.3008819
-5.2588835 -34.952538 2.3008063
-5.2196398 -34.95261 2.3007343
-5.180326 -34.952641 2.300662
-5.1409469 -34.952682 2.3005891
-5.1015024 -34.952782 2.3005166
-5.0600138 -34.952862 2.3004398
-5.0184546 -34.952885 2.3003635
-4.9788079 -34.952934 2.3002901
-4.9390907 -34.953049 2.3002172
-4.8993068 -34.953114 2.3001435
-4.859458 -34.953133 2.300071
-4.8195438 -34.953182 2.2999978
-4.7795591 -34.953312 2.2999234
-4.7395091 -34.953358 2.2998497
-4.6993904 -34.953384 2.2997754
-4.6592059 -34.953453 2.2997017
-4.6189542 -34.953568 2.2996278
-4.5786285 -34.953609 2.2995534
-4.5382395 -34.95364 2.2994792
-4.4998069 -34.953709 2.2994075
-4.4613104 -34.953808 2.2993374
-4.4207225 -34.953854 2.2992623
-4.3800659 -34.953888 2.2991874
-4.3393393 -34.953976 2.2991121
-4.2985425 -34.954063 2.2990375
-4.2597265 -34.954102 2.2989659
-4.2208409 -34.95414 2.2988949
-4.1798444 -34.954239 2.2988181
-4.1387773 -34.954323 2.2987428
-4.0996981 -34.95435 2.2986712
-4.0605555 -34.954391 2.2985985
-4.0192857 -34.954502 2.2985222
-5.9009748 -34.951473 2.3408849
-5.860877 -34.951603 2.3408442
-5.8207159 -34.951653 2.3408036
-5.7804804 -34.951675 2.3407633
-5.7401776 -34.951744 2.340723
-5.6998048 -34.951855 2.3406825
-5.6593623 -34.9519 2.3406413
-5.620779 -34.951927 2.3406026
-5.5801988 -34.952007 2.3405614
-5.5395446 -34.952106 2.3405209
-5.5007658 -34.952145 2.3404815
-5.4599771 -34.952179 2.340441
-5.4191194 -34.952259 2.3403997
-5.3801384 -34.952354 2.3403611
-5.3410926 -34.952393 2.3403215
-5.300024 -34.952427 2.3402805
-5.2588835 -34.95253 2.340239
-5.2196393 -34.952614 2.3401997
-5.1803265 -34.952641 2.3401597
-5.1409459 -34.952679 2.3401206
-5.1015019 -34.952778 2.3400812
-5.0600133 -34.952858 2.3400388
-5.0184546 -34.952888 2.3399978
-4.978807 -34.95293 2.3399572
-4.9390907 -34.953049 2.3399177
-4.8993068 -34.953114 2.3398778
-4.8594584 -34.953136 2.3398378
-4.8195429 -34.95319 2.3397977
-4.7795587 -34.953312 2.3397574
-4.7395086 -34.953362 2.3397169
-4.6993904 -34.953384 2.3396766
-4.6592059 -34.953453 2.3396368
-4.6189542 -34.953568 2.339596
-4.5786295 -34.953609 2.3395553
-4.53824 -34.953636 2.3395145
-4.4998078 -34.95372 2.3394763
-4.4613099 -34.953812 2.339437
-4.4207225 -34.953854 2.3393967
-4.3800659 -34.953888 2.3393557
-4.3393388 -34.953964 2.3393149
-4.2985425 -34.954071 2.3392742
-4.2597265 -34.954102 2.3392348
-4.2208405 -34.954136 2.339196
-4.1798439 -34.954235 2.3391542
-4.1387773 -34.954323 2.3391132
-4.0996981 -34.95435 2.3390744
-4.0605559 -34.954391 2.3390348
-4.0192857 -34.954498 2.3389933
-5.9009762 -34.951477 2.3797786
-5.8608775 -34.951607 2.3797715
-5.8207159 -34.951649 2.3797665
-5.7804799 -34.951672 2.3797591
-5.7401795 -34.951744 2.3797529
-5.6998062 -34.951859 2.3797455
-5.6593623 -34.951897 2.3797393
-5.62078 -34.951927 2.3797321
-5.5801978 -34.952015 2.3797247
-5.5395451 -34.952103 2.3797181
-5.5007668 -34.952148 2.3797119
-5.4599767 -34.952171 2.3797054
-5.4191194 -34.952267 2.3796978
-5.3801379 -34.952354 2.3796918
-5.3410935 -34.952393 2.3796854
-5.3000245 -34.952431 2.3796782
-5.2588835 -34.952538 2.3796709
-5.2196393 -34.952606 2.3796661
-5.1803255 -34.952641 2.3796587
-5.1409469 -34.952679 2.3796513
-5.1015019 -34.952774 2.3796451
-5.0600133 -34.952862 2.3796375
-5.0184541 -34.952885 2.3796313
-4.9788084 -34.95293 2.3796244
-4.9390903 -34.953049 2.3796172
-4.8993063 -34.953114 2.3796117
-4.859458 -34.953136 2.3796041
-4.8195424 -34.95319 2.3795974
-4.7795582 -34.953312 2.379591
-4.7395091 -34.953362 2.3795846
-4.6993909 -34.953384 2.3795779
-4.6592064 -34.953453 2.3795705
-4.6189542 -34.953568 2.3795643
-4.5786295 -34.953609 2.3795571
-4.5382395 -34.953636 2.3795512
-4.4998069 -34.953701 2.3795445
-4.4613104 -34.953812 2.3795378
-4.4207225 -34.953854 2.3795311
-4.3800659 -34.953888 2.379524
-4.3393393 -34.953976 2.3795171
-4.298543 -34.954071 2.3795109
-4.2597265 -34.954102 2.3795037
-4.2208409 -34.95414 2.3794978
-4.1798444 -34.954235 2.3794901
-4.1387773 -34.954327 2.3794837
-4.0996981 -34.95435 2.379477
-4.0605555 -34.954391 2.3794711
-4.0192862 -34.954494 2.3794641
-5.9009752 -34.951477 2.4186742
-5.860877 -34.951603 2.4187014
-5.8207159 -34.951653 2.4187279
-5.7804804 -34.951675 2.4187553
-5.7401757 -34.951736 2.418782
-5.6998057 -34.951859 2.4188092
-5.6593614 -34.9519 2.4188361
-5.6207781 -34.951931 2.4188621
-5.5801988 -34.952003 2.4188893
-5.5395446 -34.952103 2.4189162
-5.5007668 -34.952145 2.4189432
-5.4599767 -34.952175 2.4189696
-5.4191179 -34.952255 2.4189968
-5.3801374 -34.952354 2.419023
-5.3410926 -34.952393 2.4190493
-5.3000231 -34.952431 2.4190769
-5.258883 -34.952526 2.4191043
-5.2196398 -34.952606 2.4191306
-5.1803255 -34.952641 2.419157
-5.1409469 -34.952679 2.4191833
-5.1015019 -34.952782 2.4192097
-5.0600138 -34.952862 2.4192371
-5.018455 -34.952888 2.4192655
-4.9788084 -34.952938 2.4192915
-4.9390907 -34.953049 2.4193182
-4.8993063 -34.953114 2.4193449
-4.8594589 -34.953133 2.4193714
-4.8195424 -34.95319 2.4193981
-4.7795587 -34.953308 2.419425
-4.7395082 -34.953362 2.4194517
-4.6993909 -34.953384 2.4194789
-4.6592054 -34.953449 2.4195056
-4.6189542 -34.953564 2.4195325
-4.57863 -34.953609 2.4195602
-4.53824 -34.95364 2.4195864
-4.4998064 -34.953701 2.4196124
-4.4613104 -34.953808 2.4196386
-4.4207225 -34.953854 2.4196653
-4.3800659 -34.953888 2.4196928
-4.3393393 -34.953976 2.4197199
-4.2985425 -34.954071 2.4197471
-4.2597265 -34.954102 2.4197731
-4.2208405 -34.954147 2.4197991
-4.1798449 -34.954243 2.4198265
-4.1387773 -34.954315 2.4198539
-4.0996981 -34.95435 2.4198804
-4.0605564 -34.954391 2.4199069
-4.0192862 -34.954494 2.419934
-5.9009743 -34.951473 2.4595137
-5.8608775 -34.951607 2.4595764
-5.8207159 -34.951653 2.4596381
-5.7804799 -34.951672 2.4597006
-5.7401781 -34.951736 2.4597631
-5.6998057 -34.951855 2.4598258
-5.6593628 -34.9519 2.4598885
-5.6207795 -34.951923 2.4599481
-5.5801988 -34.952003 2.4600112
-5.5395465 -34.952114 2.4600739
-5.5007658 -34.952148 2.4601343
-5.4599771 -34.952175 2.460197
-5.4191184 -34.952251 2.4602609
-5.3805199 -34.952354 2.4597685
-5.3410926 -34.952396 2.4584124
-5.3000231 -34.952427 2.4584746
-5.2588835 -34.952534 2.4585366
-5.2196393 -34.95261 2.458596
-5.180326 -34.952641 2.4586554
-5.1409469 -34.952686 2.4587145
-5.1015024 -34.952782 2.4587741
-5.0600133 -34.952858 2.4588366
-5.0184546 -34.952888 2.4588993
-4.9788079 -34.952938 2.4589591
-4.9390903 -34.953049 2.4590185
-4.8993068 -34.953114 2.4590786
-4.8594575 -34.953136 2.4591384
-4.8195424 -34.95319 2.459199
-4.7795591 -34.953304 2.4592595
-4.7395082 -34.953362 2.4593194
-4.6993909 -34.953388 2.4593794
-4.6592059 -34.953457 2.4594402
-4.6189542 -34.953564 2.4595013
-4.57863 -34.953609 2.4595618
-4.53824 -34.95364 2.4596224
-4.4998069 -34.953709 2.4596808
-4.4613109 -34.953812 2.459739
-4.420722 -34.953854 2.4597993
-4.3800654 -34.953888 2.459861
-4.3393393 -34.953976 2.4599221
-4.298543 -34.954071 2.4599836
-4.2597265 -34.954102 2.4600425
-4.2208409 -34.95414 2.4601007
-4.1798444 -34.954239 2.4601629
-4.1387768 -34.954315 2.4602244
-4.0996981 -34.95435 2.4602833
-4.0605559 -34.954395 2.4603426
-4.0192852 -34.954502 2.4604044
-5.9009748 -34.951473 2.5003533
-5.860877 -34.951607 2.5004513
-5.8207159 -34.951653 2.5005491
-5.7804809 -34.951679 2.5006471
-5.7401776 -34.951744 2.5007441
-5.6998057 -34.951855 2.5008428
-5.6593623 -34.9519 2.5009403
-5.62078 -34.951927 2.5010343
-5.5801988 -34.951996 2.5011327
-5.5395446 -34.952099 2.5012314
-5.5007658 -34.952148 2.5013254
-5.4599767 -34.952175 2.5014241
-5.4191194 -34.952267 2.5015235
-5.3797407 -34.952354 2.5009887
-5.3410945 -34.952393 2.4997447
-5.300024 -34.952435 2.4998429
-5.258883 -34.952538 2.4999413
-5.2196388 -34.952614 2.500035
-5.180326 -34.952641 2.5001283
-5.1413932 -34.952686 2.4994752
-5.1015019 -34.952778 2.4983389
-5.0600138 -34.952862 2.4984355
-5.0184541 -34.952885 2.498533
-4.9788074 -34.952938 2.498626
-4.9390907 -34.953053 2.4987192
-4.8993068 -34.953114 2.4988122
-4.859458 -34.953136 2.4989057
-4.8195424 -34.95319 2.4989996
-4.7795587 -34.953312 2.4990935
-4.7395086 -34.953362 2.499187
-4.6993914 -34.953388 2.4992805
-4.6592045 -34.953453 2.4993751
-4.6189547 -34.953564 2.4994693
-4.578629 -34.953609 2.4995639
-4.5382395 -34.953636 2.4996588
-4.4998069 -34.953712 2.4997487
-4.4613109 -34.953808 2.4998391
-4.420722 -34.953854 2.4999342
-4.3800664 -34.953892 2.5000293
-4.3393388 -34.953972 2.5001252
-4.2985425 -34.954063 2.5002205
-4.2597265 -34.954102 2.5003116
-4.2208409 -34.954132 2.5004032
-4.1798449 -34.954239 2.500499
-4.1387768 -34.954323 2.5005951
-4.0996981 -34.95435 2.5006864
-4.0605555 -34.954395 2.5007782
-4.0192857 -34.954491 2.5008752
-5.9009752 -34.951473 2.5392492
-5.860877 -34.951607 2.5393796
-5.8207154 -34.951649 2.539511
-5.7804809 -34.951672 2.5396423
-5.7401776 -34.95174 2.5397739
-5.6998048 -34.951859 2.5399058
-5.6593623 -34.9519 2.5400376
-5.6207795 -34.95192 2.540164
-5.5801988 -34.951996 2.5402961
-5.5395441 -34.952103 2.5404291
-5.5007658 -34.952145 2.5405557
-5.4599767 -34.952179 2.5406883
-5.4191189 -34.952263 2.540822
-5.3801384 -34.952362 2.5409489
-5.3410926 -34.952393 2.5410769
-5.300024 -34.952431 2.5412109
-5.2588844 -34.952534 2.5413456
-5.2196388 -34.952606 2.5414732
-5.1803265 -34.952641 2.5416021
-5.1404924 -34.952679 2.5408952
-5.1015015 -34.952793 2.5398812
-5.0600138 -34.952854 2.5400145
-5.0188427 -34.952888 2.5395913
-4.9788084 -34.952934 2.5382931
-4.9390907 -34.953045 2.5384197
-4.8993058 -34.953114 2.5385461
-4.859458 -34.953136 2.5386729
-4.8195438 -34.95319 2.5387995
-4.7795577 -34.953312 2.5389271
-4.7395086 -34.953362 2.5390546
-4.6993904 -34.953384 2.5391817
-4.659205 -34.953449 2.5393097
-4.6189542 -34.953571 2.5394382
-4.578629 -34.953609 2.5395658
-4.53824 -34.953636 2.5396948
-4.4998069 -34.953701 2.5398171
-4.4613104 -34.953815 2.5399392
-4.4207225 -34.953854 2.5400684
-4.3800659 -34.953888 2.5401981
-4.3393393 -34.953968 2.5403273
-4.298542 -34.954063 2.5404577
-4.2597265 -34.954102 2.5405807
-4.22084 -34.954144 2.5407047
-4.1798444 -34.954227 2.5408347
-4.1387763 -34.954323 2.5409651
-4.0996981 -34.95435 2.5410898
-4.0605559 -34.954391 2.5412142
-4.0192857 -34.954498 2.5413456
-5.9009748 -34.951473 2.5800881
-5.8608766 -34.951607 2.5802541
-5.8207154 -34.951653 2.5804222
-5.7806525 -34.951672 2.5788312
-5.7401776 -34.951736 2.578804
-5.6998057 -34.951859 2.5789673
-5.6593614 -34.9519 2.5791352
-5.6207795 -34.951927 2.5792937
-5.5801988 -34.952003 2.5794604
-5.5395446 -34.952103 2.5796268
-5.5007668 -34.952145 2.5797863
-5.4599767 -34.952175 2.5799532
-5.4191189 -34.952274 2.5801208
-5.3801374 -34.952354 2.580281
-5.3410935 -34.952389 2.5804398
-5.300024 -34.952427 2.5806088
-5.258883 -34.952526 2.5807781
-5.2196393 -34.95261 2.5809388
-5.180326 -34.952641 2.5810993
-5.1409469 -34.952675 2.5812616
-5.1015024 -34.952778 2.581423
-5.0600138 -34.952862 2.581594
-5.0180511 -34.952888 2.5811307
-4.9788065 -34.95293 2.5799437
-4.9393849 -34.953053 2.579735
-4.8993063 -34.953114 2.57828
-4.859458 -34.953136 2.5784397
-4.8195429 -34.95319 2.5786011
-4.7795596 -34.953308 2.5787611
-4.7395086 -34.953362 2.5789227
-4.6993914 -34.953388 2.5790834
-4.6592045 -34.953453 2.5792437
-4.6189547 -34.953568 2.5794067
-4.5786285 -34.953609 2.5795684
-4.5382395 -34.953636 2.5797305
-4.4998069 -34.953716 2.579886
-4.4613099 -34.953812 2.5800397
-4.4207225 -34.953854 2.5802023
-4.3800654 -34.95388 2.5803666
-4.3393393 -34.953979 2.5805295
-4.2985425 -34.954071 2.5806942
-4.2597265 -34.954102 2.5808501
-4.2208414 -34.954144 2.5810056
-4.1798439 -34.954239 2.5811703
-4.1387758 -34.954323 2.5813351
-4.0996981 -34.95435 2.5814929
-4.0605559 -34.954391 2.58165
-4.0197515 -34.954494 2.5804429
-5.9009752 -34.951473 2.6209283
-5.8608775 -34.951603 2.62113
-5.8207159 -34.951649 2.6213322
-5.7803202 -34.951675 2.6197476
-5.7401791 -34.951733 2.6197851
-5.6998076 -34.951855 2.6199858
-5.6593623 -34.9519 2.6201873
-5.6210651 -34.951927 2.6200161
-5.5801988 -34.951996 2.6186235
-5.5395441 -34.952103 2.6188238
-5.5007653 -34.952148 2.6190155
-5.4599767 -34.952175 2.6192174
-5.4191189 -34.952259 2.6194193
-5.3801379 -34.952354 2.6196115
-5.3410926 -34.952393 2.6198046
-5.3000231 -34.952431 2.620007
-5.2588835 -34.952526 2.6202109
-5.2196388 -34.95261 2.620404
-5.180326 -34.952641 2.6205988
-5.1409469 -34.952682 2.6207929
-5.1015019 -34.952785 2.6209879
-5.0600138 -34.952866 2.6211925
-5.0184541 -34.952888 2.621398
-4.978807 -34.952927 2.621594
-4.9387779 -34.953056 2.6213629
-4.8993063 -34.953114 2.6200001
-4.8596354 -34.953136 2.618422
-4.8195424 -34.95319 2.6184013
-4.7795577 -34.953312 2.6185949
-4.7395082 -34.953362 2.618789
-4.6993895 -34.953384 2.6189837
-4.659205 -34.953449 2.6191795
-4.6189547 -34.953568 2.6193743
-4.578629 -34.953609 2.6195703
-4.5382395 -34.953636 2.6197665
-4.4998069 -34.953709 2.6199534
-4.4613109 -34.953808 2.6201401
-4.420722 -34.953857 2.6203375
-4.3800654 -34.953892 2.6205347
-4.3393393 -34.953976 2.6207328
-4.298542 -34.954071 2.6209304
-4.259726 -34.954102 2.6211193
-4.22084 -34.95414 2.6213076
-4.1798444 -34.954235 2.6215069
-4.1387768 -34.954319 2.6217062
-4.0998983 -34.95435 2.620121
-4.060555 -34.954399 2.620064
-4.0188384 -34.954498 2.6188047
-5.9009767 -34.951473 2.6598237
-5.860878 -34.951603 2.6600585
-5.8207159 -34.951649 2.6602945
-5.7804809 -34.951675 2.6605296
-5.7401791 -34.951744 2.6607656
-5.6998067 -34.951859 2.6610022
-5.6593628 -34.9519 2.6612396
-5.6204767 -34.951927 2.6610456
-5.5801978 -34.952007 2.6597452
-5.5395451 -34.952103 2.659982
-5.5007668 -34.952145 2.6602075
-5.460289 -34.952175 2.6588657
-5.4191179 -34.952255 2.6587176
-5.3801365 -34.952354 2.6589425
-5.3410926 -34.952393 2.659168
-5.3000245 -34.952427 2.6594055
-5.2588835 -34.952534 2.6596432
-5.2196398 -34.95261 2.6598699
-5.180326 -34.952641 2.6600966
-5.1409454 -34.952682 2.6603248
-5.1015019 -34.952778 2.6605523
-5.0600138 -34.952862 2.6607919
-5.0184546 -34.952888 2.6610324
-4.9788079 -34.952938 2.6612611
-4.9390912 -34.953049 2.6614907
-4.8993068 -34.953114 2.6617203
-4.859292 -34.953136 2.6601455
-4.8197207 -34.953186 2.6584165
-4.7795577 -34.953308 2.6584291
-4.7395082 -34.953362 2.6586564
-4.6993895 -34.953384 2.6588852
-4.6592054 -34.953453 2.6591144
-4.6189547 -34.953564 2.659343
-4.578629 -34.953609 2.6595721
-4.53824 -34.95364 2.6598024
-4.4998069 -34.953705 2.6600208
-4.4613104 -34.953812 2.6602411
-4.4207225 -34.953854 2.6604714
-4.3800659 -34.953888 2.6607027
-4.3393388 -34.953964 2.6609352
-4.2985415 -34.954067 2.6611669
-4.2597256 -34.954105 2.6613884
-4.22084 -34.954144 2.6616092
-4.1803842 -34.954231 2.6608846
-4.1387768 -34.954311 2.6600585
-4.0995131 -34.954353 2.658464
-4.0605555 -34.954391 2.6584785
-4.0192857 -34.954498 2.65871
-5.9011459 -34.951477 2.6989295
-5.8608775 -34.951607 2.6989877
-5.8207164 -34.951653 2.6992567
-5.7804799 -34.951675 2.6995261
-5.7401772 -34.951736 2.6997952
-5.6998062 -34.951859 2.7000666
-5.6593614 -34.9519 2.7003367
-5.6207795 -34.951927 2.7005951
-5.5801988 -34.951992 2.7008667
-5.539546 -34.952099 2.7011395
-5.5007672 -34.952148 2.7013986
-5.4596834 -34.952179 2.7000408
-5.4191184 -34.952259 2.6999812
-5.3804259 -34.952358 2.6998744
-5.3410945 -34.952393 2.6985323
-5.300024 -34.952431 2.6988037
-5.2588835 -34.952534 2.6990759
-5.2196393 -34.952602 2.6993353
-5.1803269 -34.952637 2.6995955
-5.1409459 -34.952686 2.6998565
-5.1015019 -34.952785 2.7001166
-5.0600138 -34.952862 2.7003915
-5.0184541 -34.952888 2.7006664
-4.9788079 -34.952934 2.700928
-4.9390912 -34.953053 2.7011912
-4.8993068 -34.953114 2.7014544
-4.859457 -34.953136 2.7017176
-4.8195424 -34.953182 2.6999915
-4.7795582 -34.953304 2.6982622
-4.7395082 -34.953358 2.6985242
-4.6993904 -34.953384 2.6987863
-4.6592045 -34.953461 2.6990485
-4.6189547 -34.95356 2.6993113
-4.5786281 -34.953609 2.6995742
-4.53824 -34.953644 2.6998386
-4.4998069 -34.953709 2.7000899
-4.4613104 -34.953812 2.7003405
-4.420722 -34.953854 2.7006061
-4.3800659 -34.953888 2.700871
-4.3393393 -34.953976 2.7011378
-4.2985425 -34.954071 2.7014039
-4.2597265 -34.954105 2.7016575
-4.2213035 -34.95414 2.7005429
-4.1793051 -34.954235 2.6991038
-4.1387763 -34.954319 2.6984098
-4.0996985 -34.95435 2.698662
-4.0605555 -34.954395 2.6989143
-4.0192857 -34.954491 2.6991806
-5.9008183 -34.951473 2.7397366
-5.8608775 -34.951607 2.739862
-5.8207159 -34.951653 2.7401659
-5.7809758 -34.951672 2.7396269
-5.7401781 -34.951736 2.7388258
-5.6998067 -34.951862 2.7391303
-5.6593623 -34.9519 2.7394345
-5.620779 -34.951923 2.7397251
-5.5801992 -34.951996 2.7400303
-5.5395446 -34.952103 2.7403371
-5.5007668 -34.952145 2.7406297
-5.4599771 -34.952171 2.7409363
-5.4191189 -34.952255 2.7412446
-5.3798327 -34.952358 2.7411158
-5.3410945 -34.952393 2.7398646
-5.3001876 -34.952427 2.7400069
-5.2588835 -34.952538 2.7385094
-5.2196393 -34.95261 2.7388008
-5.180326 -34.952641 2.739094
-5.1409478 -34.952675 2.7393868
-5.1015015 -34.952778 2.739682
-5.0600133 -34.952869 2.7399905
-5.0184546 -34.952892 2.7402995
-4.9788074 -34.952934 2.7405963
-4.9390898 -34.953049 2.7408907
-4.8993063 -34.953114 2.7411873
-4.8594575 -34.953136 2.7414849
-4.819365 -34.953186 2.7415655
-4.7800336 -34.953312 2.7391353
-4.7395082 -34.953362 2.7383914
-4.6993899 -34.953384 2.7386875
-4.6592054 -34.953453 2.7389834
-4.6189547 -34.95356 2.7392795
-4.5786295 -34.953609 2.7395759
-4.53824 -34.953636 2.7398744
-4.4998069 -34.953712 2.7401576
-4.4613104 -34.953808 2.7404411
-4.420722 -34.953854 2.740741
-4.3800659 -34.953892 2.741039
-4.3393393 -34.953983 2.7413404
-4.298543 -34.954075 2.7416406
-4.2601638 -34.954102 2.7406294
-4.2203965 -34.954147 2.7387469
-4.1798439 -34.954235 2.738482
-4.1387763 -34.954327 2.7387815
-4.0996981 -34.95435 2.7390649
-4.0605559 -34.954391 2.7393501
-4.0192857 -34.954506 2.7396514
-5.9390941 -34.951424 2.780076
-5.9009752 -34.951477 2.7803979
-5.8608775 -34.951603 2.7807384
-5.8207159 -34.951649 2.7810774
-5.7799797 -34.951675 2.7804885
-5.7401795 -34.951736 2.7798061
-5.6998057 -34.951859 2.7801468
-5.6598058 -34.9519 2.7793546
-5.620779 -34.951923 2.7788546
-5.5801978 -34.952011 2.7791941
-5.5395446 -34.952099 2.7795353
-5.5007668 -34.952145 2.7798603
-5.4599771 -34.952183 2.780201
-5.4191179 -34.952267 2.7805429
-5.3801374 -34.952354 2.7808695
-5.3410935 -34.952393 2.7811959
-5.2998481 -34.952427 2.7813468
-5.2588835 -34.95253 2.7799125
-5.2200837 -34.952606 2.7794914
-5.1803269 -34.952641 2.7785926
-5.1409469 -34.952686 2.7789176
-5.1015019 -34.952789 2.7792456
-5.0600133 -34.952858 2.7795892
-5.0184546 -34.952885 2.7799344
-4.9788065 -34.952934 2.7802625
-4.9390898 -34.953053 2.7805924
-4.8993068 -34.953114 2.7809212
-4.859457 -34.953136 2.7812521
-4.8195438 -34.953182 2.7815833
-4.7790809 -34.953312 2.780875
-4.7395082 -34.953358 2.7782586
-4.6993914 -34.953384 2.7785885
-4.6592059 -34.953457 2.7789183
-4.6189547 -34.953564 2.7792478
-4.5786281 -34.953609 2.7795792
-4.53824 -34.953644 2.7799106
-4.4998074 -34.953709 2.780226
-4.4613099 -34.953812 2.7805417
-4.420722 -34.953854 2.780874
-4.3800654 -34.953884 2.7812078
-4.3393393 -34.953979 2.7815423
-4.2990794 -34.954063 2.7809191
-4.2593026 -34.954102 2.7787971
-4.22084 -34.95414 2.7784851
-4.1798429 -34.954235 2.7788172
-4.1387758 -34.954315 2.779151
-4.0996981 -34.95435 2.7794683
-4.0605559 -34.954391 2.7797852
-4.0192857 -34.954506 2.7801206
-5.9390936 -34.951424 2.818939
-5.9009752 -34.951473 2.819293
-5.8608775 -34.951603 2.8196659
-5.8207164 -34.951653 2.8200393
-5.7804794 -34.951675 2.8204136
-5.7401791 -34.951748 2.8207874
-5.6998057 -34.951859 2.8211625
-5.6589255 -34.9519 2.8203249
-5.6207795 -34.951923 2.8199408
-5.5805917 -34.952 2.8198152
-5.5395451 -34.952106 2.8187323
-5.5007668 -34.952145 2.8190897
-5.4599767 -34.952171 2.8194647
-5.4191189 -34.952267 2.8198416
-5.3801379 -34.952354 2.8202012
-5.3410931 -34.952396 2.8205602
-5.3000245 -34.952435 2.8209381
-5.2588835 -34.952538 2.8213167
-5.2191858 -34.95261 2.8208477
-5.180325 -34.952641 2.820065
-5.1409459 -34.952682 2.8184502
-5.1015015 -34.952782 2.8188095
-5.0600142 -34.952862 2.8191884
-5.0184541 -34.952885 2.8195682
-4.978807 -34.952934 2.8199296
-4.9390898 -34.953053 2.8202918
-4.8993068 -34.953114 2.8206549
-4.8594565 -34.953136 2.8210187
-4.8195424 -34.95319 2.8213825
-4.7795572 -34.953312 2.821748
-4.7399707 -34.953362 2.8189659
-4.6993909 -34.953388 2.8184893
-4.6592045 -34.953461 2.8188524
-4.6189547 -34.953568 2.8192172
-4.5786281 -34.953606 2.819581
-4.5382395 -34.95364 2.819947
-4.4998069 -34.953712 2.8202939
-4.4613109 -34.953812 2.8206418
-4.420722 -34.953854 2.8210089
-4.3800654 -34.953888 2.821377
-4.3395247 -34.953972 2.8215604
-4.2980051 -34.954067 2.8190477
-4.2597265 -34.954102 2.8184378
-4.22084 -34.954147 2.8187864
-4.1798429 -34.954239 2.8191538
-4.1387763 -34.954315 2.819521
-4.0996981 -34.95435 2.8198717
-4.060555 -34.954391 2.8202217
-4.0192857 -34.954502 2.8205917
-3.9800136 -34.954567 2.8209443
-5.9390945 -34.95142 2.8597453
-5.9009738 -34.951473 2.8601334
-5.8613758 -34.951611 2.8595202
-5.8207159 -34.951653 2.8590014
-5.7804809 -34.951672 2.8594086
-5.7401772 -34.951736 2.8598175
-5.6998034 -34.951855 2.8602259
-5.6593609 -34.9519 2.8606358
-5.62078 -34.951927 2.8610265
-5.5797868 -34.952 2.8608704
-5.5395446 -34.95211 2.85989
-5.5010548 -34.952145 2.8599153
-5.4599767 -34.952179 2.8587294
-5.4191194 -34.952259 2.8591397
-5.3801394 -34.952354 2.8595316
-5.3410926 -34.952393 2.8599236
-5.300024 -34.952427 2.8603363
-5.258883 -34.952534 2.8607492
-5.2196393 -34.95261 2.8611438
-5.1803265 -34.952641 2.8615389
-5.1409473 -34.952675 2.8599582
-5.1018114 -34.952774 2.8587976
-5.0600133 -34.952858 2.8587878
-5.0184536 -34.952888 2.8592014
-4.978807 -34.952938 2.8595963
-4.9390898 -34.953049 2.8599923
-4.8993063 -34.953114 2.8603885
-4.8594575 -34.953136 2.8607852
-4.8195424 -34.95319 2.8611839
-4.7795577 -34.953308 2.8615823
-4.73945 -34.953362 2.8601818
-4.6993909 -34.953384 2.8583908
-4.6592045 -34.953445 2.8587875
-4.6189547 -34.95356 2.8591857
-4.5786281 -34.953609 2.8595834
-4.53824 -34.95364 2.859982
-4.4998069 -34.953705 2.8603625
-4.4613109 -34.953812 2.8607426
-4.420722 -34.953854 2.8611429
-4.3800654 -34.953884 2.8615453
-4.3396611 -34.953979 2.8605683
-4.298543 -34.954071 2.8583269
-4.2597256 -34.954102 2.8587074
-4.22084 -34.95414 2.8590879
-4.1798434 -34.954235 2.8594894
-4.1387768 -34.954319 2.8598914
-4.0996981 -34.95435 2.860275
-4.0605555 -34.954395 2.8606582
-4.0192852 -34.954498 2.8610623
-3.9800134 -34.954571 2.8614476
-5.9009767 -34.951477 2.9009728
-5.8603826 -34.951611 2.9003141
-5.8207164 -34.951653 2.8999121
-5.7807698 -34.951675 2.9000239
-5.7401795 -34.951744 2.8988473
-5.6998081 -34.951859 2.8992903
-5.6593609 -34.9519 2.8997333
-5.6207781 -34.951923 2.900157
-5.5801973 -34.952 2.9006021
-5.5395446 -34.952099 2.9010475
-5.5004625 -34.952145 2.9010527
-5.4599762 -34.952171 2.8999565
-5.4195681 -34.952274 2.8992648
-5.3801365 -34.952351 2.8988626
-5.3410926 -34.952393 2.8992867
-5.300024 -34.952431 2.899735
-5.2588835 -34.952526 2.9001825
-5.2196393 -34.95261 2.9006097
-5.1803265 -34.952641 2.9010377
-5.1409469 -34.952682 2.9014657
-5.1012096 -34.952785 2.9002872
-5.0603304 -34.952862 2.8987718
-5.0184536 -34.952888 2.8988357
-4.978807 -34.952938 2.8992643
-4.9390898 -34.953049 2.899693
-4.8993068 -34.953114 2.9001224
-4.859457 -34.953133 2.9005527
-4.8195434 -34.95319 2.9009836
-4.7795577 -34.953308 2.9014158
-4.7390995 -34.953362 2.9012144
-4.6993909 -34.953384 2.8982918
-4.6592045 -34.953449 2.8987226
-4.6189542 -34.953564 2.8991537
-4.5786281 -34.953609 2.899586
-4.5382395 -34.953644 2.9000192
-4.4998069 -34.953709 2.9004307
-4.4613104 -34.953815 2.9008427
-4.420722 -34.953854 2.901278
-4.3800654 -34.953888 2.9017129
-4.3388295 -34.953976 2.8988893
-4.2985425 -34.954071 2.8985629
-4.2597265 -34.954102 2.8989766
-4.2208405 -34.95414 2.8993893
-4.1798429 -34.954231 2.8998258
-4.1387763 -34.954319 2.9002624
-4.0996981 -34.95435 2.9006782
-4.0605559 -34.954395 2.9010947
-4.0192857 -34.954506 2.9015331
-5.8608165 -34.946434 2.9399619
-5.8205538 -34.945526 2.9406002
-5.7805324 -34.946857 2.939728
-5.740212 -34.947994 2.938441
-5.69979 -34.947762 2.938586
-5.6594825 -34.947479 2.9390254
-5.6206961 -34.947159 2.93945
-5.580142 -34.946941 2.9396136
-5.5396686 -34.946644 2.940038
-5.5005293 -34.9459 2.9404995
-5.4603753 -34.947109 2.9400592
-5.4188805 -34.948376 2.9390073
-5.3799872 -34.948078 2.9386477
-5.340807 -34.947968 2.9388754
-5.3001461 -34.947903 2.9390433
-5.259274 -34.947235 2.9396646
-5.2197647 -34.947132 2.9399896
-5.1801896 -34.946644 2.9402843
-5.1407599 -34.946388 2.9404871
-5.1012654 -34.948692 2.9398596
-5.0599308 -34.949005 2.9384911
-5.0188341 -34.948204 2.9389243
-4.9789305 -34.948223 2.9390569
-4.9393625 -34.947987 2.9393909
-4.8995681 -34.947506 2.9398146
-4.8595557 -34.947208 2.9401228
-4.8196797 -34.946968 2.9403262
-4.7801261 -34.94809 2.9401741
-4.7395558 -34.948975 2.940006
-4.6996155 -34.949078 2.9385018
-4.6594567 -34.948593 2.9389381
-4.6192412 -34.948574 2.9391718
-4.5791535 -34.948292 2.9395108
-4.5390282 -34.947979 2.9398365
-4.5000048 -34.947124 2.9405901
-4.4607329 -34.947098 2.9404824
-4.4200683 -34.949585 2.9397638
-4.3796892 -34.949257 2.9400909
-4.3392687 -34.949429 2.9385817
-4.2987628 -34.949177 2.9389205
-4.2596955 -34.948486 2.9395564
-4.2205806 -34.948597 2.9395645
-4.17979 -34.948055 2.9399695
-4.1389756 -34.947914 2.9401748
-4.1001234 -34.948437 2.9403603
-4.0602398 -34.949932 2.9398162
-4.0193477 -34.949661 2.9401441
-5.8597703 -34.899044 2.9499667
-5.8194695 -34.89809 2.9499669
-5.7791781 -34.898979 2.9499667
-5.7403741 -34.900215 2.9499667
-5.7001381 -34.898518 2.9499667
-5.6601839 -34.901947 2.9499667
-5.6201825 -34.901291 2.9499669
-5.580565 -34.900143 2.9499671
-5.5399766 -34.898514 2.9499669
-5.5004101 -34.898247 2.9499669
-5.4592643 -34.898319 2.9499671
-5.4196782 -34.900169 2.9499669
-5.3802462 -34.899384 2.9499671
-5.3403168 -34.902271 2.9499669
-5.3004379 -34.901562 2.9499669
-5.2605567 -34.899956 2.9499669
-5.22019 -34.898891 2.9499669
-5.1798358 -34.897827 2.9499669
-5.1395049 -34.897213 2.9499669
-5.0995989 -34.899731 2.9499669
-5.0609851 -34.899925 2.9499671
-5.0203228 -34.90266 2.9499671
-4.9801655 -34.901497 2.9499669
-4.9404755 -34.900005 2.9499669
-4.8998599 -34.899162 2.9499669
-4.8601828 -34.897888 2.9499669
-4.8200197 -34.89695 2.9499669
-4.7790399 -34.898624 2.9499674
-4.7411189 -34.900524 2.9499676
-4.6997948 -34.902718 2.9499679
-4.6598382 -34.901653 2.9499679
-4.6198921 -34.900616 2.9499679
-4.5799379 -34.899578 2.9499679
-4.5400109 -34.897835 2.9499679
-4.5005293 -34.897148 2.9499679
-4.4596639 -34.896507 2.9499679
-4.420157 -34.900517 2.9499676
-4.3801517 -34.903027 2.9499679
-4.3399467 -34.902203 2.9499679
-4.3002052 -34.901051 2.9499681
-4.2604618 -34.89991 2.9499681
-4.2202444 -34.898609 2.9499681
-4.1800137 -34.897327 2.9499681
-4.1397839 -34.896267 2.9499681
-4.098485 -34.897831 2.9499681
-4.0600066 -34.903934 2.9499683
-4.0199995 -34.902302 2.9499683
-5.8599663 -34.85907 2.9499667
-5.8199372 -34.857903 2.9499667
-5.7807198 -34.860004 2.9499667
-5.7402287 -34.859875 2.9499667
-5.7000728 -34.8587 2.9499667
-5.6600566 -34.861092 2.9499667
-5.6208167 -34.860802 2.9499667
-5.5805268 -34.859634 2.9499667
-5.5402379 -34.858459 2.9499669
-5.5009294 -34.85944 2.9499671
-5.4597311 -34.860153 2.9499669
-5.4202418 -34.859211 2.9499669
-5.379488 -34.8591 2.9499671
-5.339817 -34.861103 2.9499669
-5.2999973 -34.860111 2.9499669
-5.2601905 -34.85928 2.9499669
-5.2210131 -34.858303 2.9499669
-5.1801782 -34.861191 2.9499671
-5.1399503 -34.860126 2.9499669
-5.100194 -34.858765 2.9499669
-5.0597577 -34.858391 2.9499671
-5.020227 -34.86105 2.9499669
-4.9794049 -34.859867 2.9499669
-4.939322 -34.858196 2.9499669
-4.900641 -34.860683 2.9499671
-4.8601489 -34.860855 2.9499669
-4.8205962 -34.8596 2.9499669
-4.7801037 -34.858536 2.9499671
-4.7390752 -34.858665 2.9499679
-4.7001243 -34.860447 2.9499676
-4.6597872 -34.859612 2.9499676
-4.6201162 -34.858978 2.9499676
-4.5794268 -34.861469 2.9499679
-4.5395803 -34.861073 2.9499679
-4.5002747 -34.859055 2.9499679
-4.4599595 -34.858315 2.9499679
-4.4189658 -34.857765 2.9499679
-4.3802714 -34.861164 2.9499676
-4.3403945 -34.858955 2.9499676
-4.3012981 -34.860638 2.9499676
-4.2600226 -34.861717 2.9499681
-4.2199421 -34.860451 2.9499681
-4.1798487 -34.859165 2.9499681
-4.1397557 -34.85812 2.9499681
-4.0996747 -34.857052 2.9499683
-4.0598674 -34.860424 2.9499679
-5.8211122 -34.818005 2.9499667
-5.779161 -34.822594 2.9499667
-5.7397399 -34.821606 2.9499667
-5.7000136 -34.820889 2.9499667
-5.6595922 -34.819141 2.9499667
-5.6195054 -34.818398 2.9499667
-5.5804858 -34.817265 2.9499669
-5.5415387 -34.818253 2.9499667
-5.4990511 -34.82151 2.9499671
-5.4602084 -34.82217 2.9499669
-5.4202294 -34.82056 2.9499669
-5.3802562 -34.81955 2.9499669
-5.3402739 -34.818836 2.9499669
-5.299952 -34.81707 2.9499669
-5.2606978 -34.819454 2.9499671
-5.219501 -34.819786 2.9499671
-5.1799769 -34.822227 2.9499669
-5.1397433 -34.820911 2.9499669
-5.0995231 -34.819592 2.9499669
-5.0596442 -34.818729 2.9499669
-5.0201273 -34.817585 2.9499669
-4.9814367 -34.819305 2.9499671
-4.940392 -34.81916 2.9499671
-4.8989558 -34.821392 2.9499669
-4.8596296 -34.821388 2.9499669
-4.8198586 -34.820221 2.9499669
-4.7800875 -34.819073 2.9499669
-4.7399626 -34.817291 2.9499669
-4.7009182 -34.819649 2.9499676
-4.6601863 -34.819813 2.9499679
-4.6199179 -34.819126 2.9499679
-4.580255 -34.821526 2.9499676
-4.5398717 -34.820663 2.9499676
-4.4998417 -34.819496 2.9499676
-4.4598126 -34.818329 2.9499676
-4.4208164 -34.818913 2.9499676
-4.3795137 -34.820278 2.9499679
-4.3398118 -34.818825 2.9499679
-4.2990346 -34.82058 2.9499676
-4.2598753 -34.821205 2.9499676
-4.2199531 -34.820045 2.9499676
-4.1804128 -34.818569 2.9499676
-4.1410532 -34.818405 2.9499679
-4.0997739 -34.820896 2.9499681
-5.7803693 -34.779724 2.9499667
-5.7399859 -34.781994 2.9499667
-5.7001047 -34.781105 2.9499667
-5.6602302 -34.779411 2.9499667
-5.6199946 -34.778641 2.9499667
-5.5800858 -34.777206 2.9499667
-5.5396981 -34.779339 2.9499669
-5.5007663 -34.781063 2.9499667
-5.4597211 -34.781876 2.9499669
-5.4199386 -34.780441 2.9499669
-5.380147 -34.779152 2.9499669
-5.3400221 -34.778255 2.9499669
-5.3002357 -34.777096 2.9499669
-5.2600665 -34.779522 2.9499669
-5.2201905 -34.782619 2.9499669
-5.1801567 -34.781456 2.9499669
-5.1397758 -34.780148 2.9499669
-5.100451 -34.778862 2.9499669
-5.0600672 -34.777962 2.9499669
-5.0200338 -34.776802 2.9499669
-4.9803762 -34.780605 2.9499669
-4.9398475 -34.782703 2.9499669
-4.9002609 -34.780846 2.9499669
-4.8599768 -34.779953 2.9499669
-4.8197036 -34.779068 2.9499669
-4.7797723 -34.777481 2.9499669
-4.7398415 -34.7766 2.9499669
-4.6992922 -34.781975 2.9499676
-4.6598601 -34.782185 2.9499671
-4.620028 -34.781166 2.9499676
-4.5801997 -34.779583 2.9499674
-4.540369 -34.77914 2.9499676
-4.4998531 -34.777393 2.9499674
-4.4602528 -34.777126 2.9499676
-4.4192343 -34.781166 2.9499676
-4.3802414 -34.7822 2.9499674
-4.3401628 -34.781319 2.9499676
-4.3000784 -34.780014 2.9499674
-4.2600069 -34.778698 2.9499676
-4.2199244 -34.777393 2.9499674
-4.1808138 -34.777641 2.9499676
-4.1393132 -34.780384 2.9499676
-5.7794619 -34.739006 2.9499667
-5.7400827 -34.741142 2.9499667
-5.700161 -34.739983 2.9499667
-5.6599641 -34.738762 2.9499667
-5.6200733 -34.739689 2.9499667
-5.5787449 -34.740032 2.9499667
-5.539031 -34.738632 2.9499667
-5.4989777 -34.740246 2.9499667
-5.4599552 -34.740257 2.9499667
-5.4197946 -34.73909 2.9499667
-5.3806291 -34.739952 2.9499669
-5.3397822 -34.740379 2.9499669
-5.2998352 -34.739094 2.9499669
-5.2593822 -34.738766 2.9499669
-5.2199478 -34.740463 2.9499669
-5.1798363 -34.739452 2.9499669
-5.1405263 -34.739716 2.9499669
-5.0996256 -34.741035 2.9499669
-5.0594435 -34.739616 2.9499669
-5.0203018 -34.738213 2.9499669
-4.9801474 -34.739674 2.9499669
-4.9403596 -34.739925 2.9499669
-4.9010348 -34.739452 2.9499669
-4.8603134 -34.741306 2.9499669
-4.8202252 -34.739883 2.9499669
-4.780148 -34.739098 2.9499669
-4.7400689 -34.737679 2.9499669
-4.6997123 -34.740017 2.9499669
-4.6602325 -34.739349 2.9499669
-4.6201353 -34.74189 2.9499671
-4.5801506 -34.74033 2.9499674
-4.5398321 -34.739555 2.9499674
-4.499476 -34.738766 2.9499674
-4.4596758 -34.737614 2.9499674
-4.4201059 -34.739933 2.9499674
-4.3806705 -34.740715 2.9499674
-4.3398905 -34.741531 2.9499674
-4.3000069 -34.740097 2.9499674
-4.2601161 -34.739079 2.9499674
-4.2198868 -34.737774 2.9499674
-4.1788692 -34.738075 2.9499674
-5.7401853 -34.699368 2.9499667
-5.700036 -34.698112 2.9499667
-5.6605587 -34.697281 2.9499667
-5.6196733 -34.701847 2.9499667
-5.5801229 -34.701218 2.9499667
-5.539989 -34.700272 2.9499667
-5.5004082 -34.698708 2.9499667
-5.4600267 -34.697903 2.9499667
-5.4207845 -34.698673 2.9499667
-5.3791914 -34.701256 2.9499669
-5.3401904 -34.701077 2.9499669
-5.3001132 -34.700272 2.9499669
-5.2597632 -34.698692 2.9499669
-5.2196851 -34.697803 2.9499669
-5.1804328 -34.699409 2.9499669
-5.1392975 -34.700634 2.9499669
-5.1002092 -34.701012 2.9499669
-5.0607142 -34.700104 2.9499669
-5.020112 -34.698692 2.9499669
-4.9795246 -34.698227 2.9499669
-4.9395461 -34.700031 2.9499669
-4.8991613 -34.699955 2.9499669
-4.8601532 -34.701134 2.9499669
-4.8201509 -34.700066 2.9499669
-4.7801538 -34.698708 2.9499669
-4.7408023 -34.698402 2.9499669
-4.7000551 -34.700115 2.9499669
-4.6598382 -34.699299 2.9499669
-4.6200237 -34.701241 2.9499669
-4.5797963 -34.69997 2.9499674
-4.5401154 -34.698807 2.9499671
-4.5015135 -34.698975 2.9499674
-4.4610386 -34.700294 2.9499674
-4.420557 -34.698769 2.9499674
-4.379323 -34.700481 2.9499674
-4.33992 -34.700352 2.9499674
-4.2997217 -34.699234 2.9499674
-4.2608066 -34.698906 2.9499674
-4.2201943 -34.700504 2.9499674
-4.1801553 -34.699337 2.9499674
-5.6999125 -34.659107 2.9499669
-5.6594329 -34.658619 2.9499667
-5.6203938 -34.659634 2.9499669
-5.5810971 -34.660168 2.9499669
-5.5397372 -34.660767 2.9499669
-5.4996538 -34.659271 2.9499667
-5.4598417 -34.658417 2.9499669
-5.4193034 -34.659019 2.9499667
-5.3806596 -34.659954 2.9499667
-5.3398294 -34.661144 2.9499669
-5.3000479 -34.660328 2.9499669
-5.2602644 -34.658825 2.9499667
-5.2199631 -34.657825 2.9499667
-5.1797423 -34.659428 2.9499667
-5.1407475 -34.661373 2.9499669
-5.1002932 -34.660862 2.9499669
-5.0603065 -34.659344 2.9499669
-5.0197611 -34.658516 2.9499669
-4.9795036 -34.657303 2.9499669
-4.9410248 -34.660847 2.9499669
-4.900146 -34.661407 2.9499669
-4.8599095 -34.66024 2.9499669
-4.8196831 -34.659233 2.9499669
-4.7797112 -34.658028 2.9499669
-4.7391915 -34.657692 2.9499669
-4.6998401 -34.662273 2.9499669
-4.6601839 -34.661167 2.9499669
-4.6199908 -34.65987 2.9499669
-4.5800586 -34.658699 2.9499669
-4.5401311 -34.657902 2.9499671
-4.5001407 -34.658798 2.9499674
-4.4600172 -34.661678 2.9499671
-4.4199123 -34.66132 2.9499671
-4.3799944 -34.659386 2.9499671
-4.3403811 -34.658596 2.9499671
-4.3002229 -34.657433 2.9499671
-4.2596431 -34.660114 2.9499674
-4.2199111 -34.661915 2.9499671
-5.700016 -34.619476 2.9499681
-5.6599631 -34.618561 2.9499679
-5.6207361 -34.618568 2.9499667
-5.5795383 -34.620552 2.9499669
-5.540246 -34.620537 2.9499681
-5.4999986 -34.619804 2.9499679
-5.4599452 -34.618385 2.9499681
-5.4205232 -34.619263 2.9499669
-5.3795075 -34.619907 2.9499669
-5.3402472 -34.620853 2.9499679
-5.2999821 -34.619873 2.9499681
-5.2597184 -34.618515 2.9499679
-5.2204919 -34.619663 2.9499669
-5.1799555 -34.619167 2.9499669
-5.1396356 -34.620827 2.9499674
-5.0999746 -34.620014 2.9499679
-5.0597248 -34.618587 2.9499679
-5.0203304 -34.619743 2.9499669
-4.9799528 -34.619587 2.9499669
-4.9391212 -34.619755 2.9499669
-4.8997645 -34.62001 2.9499676
-4.8599372 -34.61919 2.9499676
-4.8207793 -34.619583 2.9499669
-4.7800756 -34.6199 2.9499669
-4.7401361 -34.618732 2.9499669
-4.6999931 -34.620491 2.9499679
-4.6599498 -34.619385 2.9499674
-4.620923 -34.619926 2.9499669
-4.5800576 -34.619946 2.9499669
-4.5399003 -34.619091 2.9499669
-4.4987607 -34.619278 2.9499669
-4.4590869 -34.619904 2.9499679
-4.420207 -34.619442 2.9499671
-4.3801603 -34.62075 2.9499671
-4.3400383 -34.619534 2.9499671
-4.2999177 -34.618168 2.9499671
-4.2596126 -34.619888 2.9499674
-5.6597538 -34.578583 2.9499686
-5.6186824 -34.579399 2.9499695
-5.579988 -34.579487 2.9499695
-5.5402293 -34.581097 2.9499683
-5.5001616 -34.579582 2.9499686
-5.459908 -34.578468 2.9499686
-5.4191818 -34.579243 2.9499695
-5.3803864 -34.580669 2.9499691
-5.3397593 -34.580391 2.9499683
-5.2999172 -34.579464 2.9499681
-5.2600741 -34.578068 2.9499683
-5.2195444 -34.579208 2.9499695
-5.1801939 -34.581337 2.9499681
-5.1401434 -34.580345 2.9499683
-5.0998874 -34.578941 2.9499683
-5.0596137 -34.578358 2.9499683
-5.0199738 -34.579411 2.9499686
-4.9801588 -34.581104 2.9499683
-4.9399118 -34.580231 2.9499681
-4.8998575 -34.578888 2.9499681
-4.8600221 -34.577847 2.9499681
-4.8200326 -34.580231 2.9499681
-4.7799392 -34.581409 2.9499681
-4.7401047 -34.579762 2.9499681
-4.7000551 -34.578838 2.9499681
-4.6602159 -34.57774 2.9499683
-4.6199274 -34.580662 2.9499674
-4.5801449 -34.58112 2.9499681
-4.5400944 -34.579712 2.9499681
-4.500248 -34.579235 2.9499679
-4.4602103 -34.577633 2.9499681
-4.419292 -34.580688 2.9499669
-4.3801379 -34.580887 2.9499681
-4.3398776 -34.579964 2.9499679
-4.3000455 -34.57893 2.9499683
-5.2605395 -34.538681 2.94997
-5.2203522 -34.539463 2.9499691
-5.1801524 -34.540855 2.9499705
-5.1400719 -34.539795 2.9499707
-5.1001725 -34.538261 2.9499707
-5.0607305 -34.539921 2.9499691
-5.0203395 -34.539795 2.9499695
-4.9804425 -34.540092 2.949971
-4.9399977 -34.539272 2.9499705
-4.9006391 -34.539551 2.9499698
-4.8596897 -34.539383 2.9499691
-4.8192835 -34.540039 2.9499695
-4.7799773 -34.539787 2.9499707
-4.7402506 -34.539253 2.9499702
-4.6999025 -34.540043 2.9499688
-4.6602607 -34.538994 2.9499688
-4.6199675 -34.540123 2.9499705
-4.5799594 -34.539185 2.9499705
-4.5405564 -34.540192 2.9499693
-4.5002851 -34.5396 2.9499688
-4.4600339 -34.538811 2.9499691
-4.4198728 -34.540157 2.9499705
-4.3803716 -34.539413 2.9499698
-4.3398919 -34.540466 2.9499688
0 0 0 1 0 0 0 1 0 0 0 1 0 0 0 0 0 2025 1 0 0
